<svg xmlns="http://www.w3.org/2000/svg" width="48" height="48" fill="none" id="ai-voice">
  <path fill="#8227FF" fill-rule="evenodd" d="M8.562 11.752c-.125-.612-1-.612-1.125 0a3.45 3.45 0 0 1-2.685 2.685c-.612.126-.612 1 0 1.126a3.45 3.45 0 0 1 2.685 2.685c.126.612 1 .612 1.125 0a3.45 3.45 0 0 1 2.686-2.685c.612-.126.612-1 0-1.126a3.45 3.45 0 0 1-2.686-2.685m6.375 6.835c-.208-1.02-1.666-1.02-1.875 0a5.74 5.74 0 0 1-4.475 4.476c-1.02.208-1.02 1.666 0 1.875a5.74 5.74 0 0 1 4.475 4.475c.209 1.02 1.667 1.02 1.875 0a5.74 5.74 0 0 1 4.476-4.475c1.02-.209 1.02-1.667 0-1.875a5.74 5.74 0 0 1-4.476-4.476"></path>
  <path fill="currentColor" d="M24.5 7a1.5 1.5 0 0 1 3 0zm3 34a1.5 1.5 0 0 1-3 0zm-11-26a1.5 1.5 0 0 1 3 0zm3 2a1.5 1.5 0 1 1-3 0zm-3 14a1.5 1.5 0 1 1 3 0zm3 2a1.5 1.5 0 1 1-3 0zm13-18a1.5 1.5 0 0 1 3 0zm3 18a1.5 1.5 0 0 1-3 0zm5-11a1.5 1.5 0 1 1 3 0zm3 4a1.5 1.5 0 1 1-3 0zm-16-19v34h-3V7zm-8 8v2h-3v-2zm0 16v2h-3v-2zm16-16v18h-3V15zm8 7v4h-3v-4z"></path>
</svg>
