<svg width="20" height="20" viewBox="0 0 20 20" fill="none" xmlns="http://www.w3.org/2000/svg">
<path d="M4.32544 6.98262L4.10229 7.47276C4.06742 7.55257 4.00858 7.62075 3.9332 7.6687C3.85782 7.71666 3.76926 7.74225 3.67867 7.74225C3.58809 7.74225 3.49953 7.71666 3.42414 7.6687C3.34876 7.62075 3.28993 7.55257 3.25506 7.47276L3.03191 6.98262C2.63957 6.11555 1.92106 5.42035 1.01814 5.0342L0.329655 4.74064C0.246128 4.70396 0.175369 4.64518 0.125769 4.57128C0.0761678 4.49738 0.0498047 4.41145 0.0498047 4.32367C0.0498047 4.2359 0.0761678 4.14997 0.125769 4.07607C0.175369 4.00217 0.246128 3.94339 0.329655 3.90671L0.980046 3.63047C1.90566 3.23332 2.63647 2.5124 3.02193 1.61623L3.25234 1.08713C3.28604 1.00517 3.34483 0.934802 3.42104 0.885206C3.49725 0.835609 3.58735 0.809082 3.67958 0.809082C3.77181 0.809082 3.86191 0.835609 3.93812 0.885206C4.01433 0.934802 4.07312 1.00517 4.10682 1.08713L4.33632 1.61537C4.72138 2.51171 5.45186 3.23293 6.3773 3.63047L7.0286 3.90758C7.11187 3.94436 7.18238 4.00313 7.23179 4.07694C7.28121 4.15075 7.30746 4.23651 7.30746 4.32411C7.30746 4.4117 7.28121 4.49747 7.23179 4.57128C7.18238 4.64509 7.11187 4.70385 7.0286 4.74064L6.3392 5.03333C5.43647 5.41987 4.71828 6.11538 4.32634 6.98262M2.82963 19.5261C3.76031 14.1649 5.77589 2.53935 19.0994 2.53935C17.7424 5.13725 16.8316 6.4362 15.9245 7.30217L15.0174 8.16813L16.3781 9.0341C15.471 11.632 12.7497 14.6629 9.12128 15.0959C6.70053 15.3845 5.18809 16.9721 4.58396 19.8587H2.77157L2.82963 19.5261Z" fill="#EA7A7A"/>
</svg>
