<svg width="24" height="25" viewBox="0 0 24 25" fill="none" xmlns="http://www.w3.org/2000/svg">
<path d="M13.0391 4.20712C12.4391 3.89412 11.6161 3.88912 11.0121 4.20112C8.43411 5.53312 6.09711 7.05912 4.05211 8.74912C3.77811 8.97512 3.59811 9.29012 3.60111 9.65112C3.60411 10.0111 3.78911 10.3221 4.06111 10.5451C6.09011 12.2051 8.42911 13.7321 10.9611 15.0531C11.5611 15.3661 12.3841 15.3711 12.9881 15.0591C15.5661 13.7271 17.9031 12.2011 19.9481 10.5111C20.2221 10.2851 20.4021 9.97012 20.3991 9.60912C20.3961 9.24912 20.2111 8.93812 19.9391 8.71512C17.9101 7.05512 15.5711 5.52812 13.0391 4.20712Z" fill="white"/>
<path d="M20.958 14.356C21.0444 14.3052 21.1197 14.2377 21.1795 14.1573C21.2393 14.077 21.2824 13.9855 21.3063 13.8882C21.3301 13.7909 21.3343 13.6898 21.3185 13.5909C21.3026 13.492 21.2671 13.3973 21.2141 13.3123C21.1611 13.2274 21.0915 13.1539 21.0096 13.0962C20.9277 13.0386 20.8351 12.9979 20.7372 12.9766C20.6394 12.9553 20.5382 12.9539 20.4398 12.9723C20.3413 12.9907 20.2476 13.0287 20.164 13.084L14.056 16.897C13.512 17.237 12.773 17.426 12 17.426C11.227 17.426 10.487 17.236 9.94302 16.897L3.90302 13.127C3.73421 13.0217 3.53049 12.9878 3.33667 13.0327C3.14285 13.0776 2.97481 13.1977 2.86952 13.3665C2.76423 13.5353 2.73031 13.739 2.77523 13.9328C2.82014 14.1267 2.94021 14.2947 3.10902 14.4L9.14902 18.17C9.97802 18.687 11.006 18.926 11.999 18.926C12.994 18.926 14.022 18.686 14.851 18.169L20.958 14.356Z" fill="white"/>
<path d="M20.9578 18.1109C21.0442 18.0601 21.1195 17.9926 21.1793 17.9122C21.2391 17.8319 21.2822 17.7404 21.3061 17.6431C21.3299 17.5458 21.3341 17.4447 21.3182 17.3458C21.3024 17.2469 21.2669 17.1522 21.2139 17.0672C21.1609 16.9822 21.0913 16.9088 21.0094 16.8511C20.9275 16.7934 20.8349 16.7528 20.737 16.7315C20.6392 16.7102 20.538 16.7087 20.4396 16.7272C20.3411 16.7456 20.2473 16.7836 20.1638 16.8389L14.8738 20.1419C14.1018 20.6239 13.0678 20.8849 11.9998 20.8849C10.9318 20.8849 9.89781 20.6249 9.12481 20.1419L3.90281 16.8819C3.81922 16.8297 3.72617 16.7945 3.62897 16.7782C3.53177 16.762 3.43233 16.765 3.33631 16.7872C3.24029 16.8094 3.14959 16.8503 3.06938 16.9076C2.98916 16.9648 2.92101 17.0373 2.86881 17.1209C2.81661 17.2045 2.78138 17.2975 2.76514 17.3947C2.7489 17.4919 2.75197 17.5914 2.77416 17.6874C2.79635 17.7834 2.83724 17.8741 2.89449 17.9543C2.95174 18.0345 3.02422 18.1027 3.10781 18.1549L8.32981 21.4149C9.38781 22.0749 10.7108 22.3849 11.9998 22.3849C13.2888 22.3849 14.6108 22.0749 15.6698 21.4139L20.9578 18.1109Z" fill="white"/>
</svg>
