<svg width="16" height="17" viewBox="0 0 16 17" fill="none" xmlns="http://www.w3.org/2000/svg">
<g clip-path="url(#clip0_36_1559)">
<path d="M5.57386 1.02637C3.97522 1.58096 2.59654 2.63358 1.64035 4.02962C0.684163 5.42567 0.200854 7.09155 0.261418 8.78258C0.321982 10.4736 0.923226 12.1006 1.97684 13.4247C3.03045 14.7488 4.48089 15.7001 6.11511 16.1389C7.44002 16.4807 8.82813 16.4958 10.1601 16.1826C11.3668 15.9116 12.4823 15.3318 13.3976 14.5001C14.3502 13.6081 15.0417 12.4732 15.3976 11.2176C15.7845 9.85221 15.8534 8.41629 15.5989 7.02012H8.15886V10.1064H12.4676C12.3815 10.5986 12.197 11.0684 11.9251 11.4877C11.6531 11.9069 11.2994 12.267 10.8851 12.5464C10.359 12.8944 9.76586 13.1286 9.14387 13.2339C8.52005 13.3499 7.88019 13.3499 7.25636 13.2339C6.6241 13.1031 6.02599 12.8422 5.50011 12.4676C4.6553 11.8696 4.02096 11.02 3.68762 10.0401C3.34863 9.04186 3.34863 7.95963 3.68762 6.96137C3.9249 6.26164 4.31716 5.62454 4.83511 5.09762C5.42785 4.48355 6.17828 4.04462 7.00406 3.82896C7.82984 3.61331 8.69906 3.62928 9.51637 3.87512C10.1548 4.07111 10.7387 4.41354 11.2214 4.87512C11.7072 4.39179 12.1922 3.9072 12.6764 3.42137C12.9264 3.16012 13.1989 2.91137 13.4451 2.64387C12.7083 1.95822 11.8435 1.42469 10.9001 1.07387C9.18224 0.450107 7.30259 0.433344 5.57386 1.02637Z" fill="white"/>
<path d="M5.57397 1.02624C7.30254 0.432816 9.1822 0.449138 10.9002 1.07249C11.8437 1.4257 12.7082 1.96179 13.444 2.64999C13.194 2.91749 12.9302 3.16749 12.6752 3.42749C12.1902 3.91166 11.7056 4.39416 11.2215 4.87499C10.7388 4.41342 10.1549 4.07098 9.51646 3.87499C8.69943 3.6283 7.83024 3.6114 7.00424 3.82617C6.17824 4.04094 5.42735 4.47907 4.83396 5.09249C4.31601 5.61941 3.92375 6.25652 3.68646 6.95624L1.09521 4.94999C2.02273 3.1107 3.62865 1.70377 5.57397 1.02624Z" fill="#E33629"/>
<path d="M0.407438 6.93745C0.546714 6.24719 0.777942 5.57873 1.09494 4.94995L3.68619 6.9612C3.34721 7.95946 3.34721 9.04169 3.68619 10.04C2.82285 10.7066 1.9591 11.3766 1.09494 12.05C0.301376 10.4703 0.0593537 8.67058 0.407438 6.93745Z" fill="#F8BD00"/>
<path d="M8.15876 7.0188H15.5988C15.8533 8.41496 15.7844 9.85088 15.3975 11.2163C15.0416 12.4719 14.3501 13.6067 13.3975 14.4988C12.5613 13.8463 11.7213 13.1988 10.885 12.5463C11.2996 12.2666 11.6535 11.9062 11.9254 11.4865C12.1973 11.0668 12.3817 10.5965 12.4675 10.1038H8.15876C8.15751 9.0763 8.15876 8.04755 8.15876 7.0188Z" fill="#587DBD"/>
<path d="M1.09375 12.05C1.95792 11.3834 2.82167 10.7134 3.685 10.04C4.01901 11.0203 4.65426 11.8699 5.5 12.4675C6.02751 12.8404 6.62691 13.0992 7.26 13.2275C7.88382 13.3435 8.52368 13.3435 9.1475 13.2275C9.76949 13.1223 10.3626 12.8881 10.8888 12.54C11.725 13.1925 12.565 13.84 13.4012 14.4925C12.4861 15.3247 11.3705 15.9049 10.1637 16.1763C8.83176 16.4894 7.44365 16.4744 6.11875 16.1325C5.07088 15.8528 4.09209 15.3595 3.24375 14.6838C2.34583 13.9709 1.61244 13.0725 1.09375 12.05Z" fill="#319F43"/>
</g>
<defs>
<clipPath id="clip0_36_1559">
<rect width="16" height="16" fill="white" transform="translate(0 0.5)"/>
</clipPath>
</defs>
</svg>
