<svg width="24" height="25" viewBox="0 0 24 25" fill="none" xmlns="http://www.w3.org/2000/svg">
<path fill-rule="evenodd" clip-rule="evenodd" d="M19.5 7.125C19.1022 7.125 18.7206 7.28304 18.4393 7.56434C18.158 7.84564 18 8.22718 18 8.625V9.625H21V8.625C21 8.22718 20.842 7.84564 20.5607 7.56434C20.2794 7.28304 19.8978 7.125 19.5 7.125ZM21 10.625H18V18.875L19.5 21.125L21 18.875V10.625ZM3 5.125V20.125C3 20.5228 3.15804 20.9044 3.43934 21.1857C3.72064 21.467 4.10218 21.625 4.5 21.625H15.5C15.8978 21.625 16.2794 21.467 16.5607 21.1857C16.842 20.9044 17 20.5228 17 20.125V5.125C17 4.72718 16.842 4.34564 16.5607 4.06434C16.2794 3.78304 15.8978 3.625 15.5 3.625H4.5C4.10218 3.625 3.72064 3.78304 3.43934 4.06434C3.15804 4.34564 3 4.72718 3 5.125ZM10 8.125C10 7.99239 10.0527 7.86521 10.1464 7.77145C10.2402 7.67768 10.3674 7.625 10.5 7.625H14.5C14.6326 7.625 14.7598 7.67768 14.8536 7.77145C14.9473 7.86521 15 7.99239 15 8.125C15 8.25761 14.9473 8.38479 14.8536 8.47855C14.7598 8.57232 14.6326 8.625 14.5 8.625H10.5C10.3674 8.625 10.2402 8.57232 10.1464 8.47855C10.0527 8.38479 10 8.25761 10 8.125ZM10.5 9.625C10.3674 9.625 10.2402 9.67768 10.1464 9.77145C10.0527 9.86521 10 9.99239 10 10.125C10 10.2576 10.0527 10.3848 10.1464 10.4786C10.2402 10.5723 10.3674 10.625 10.5 10.625H14.5C14.6326 10.625 14.7598 10.5723 14.8536 10.4786C14.9473 10.3848 15 10.2576 15 10.125C15 9.99239 14.9473 9.86521 14.8536 9.77145C14.7598 9.67768 14.6326 9.625 14.5 9.625H10.5ZM10 14.625C10 14.4924 10.0527 14.3652 10.1464 14.2714C10.2402 14.1777 10.3674 14.125 10.5 14.125H14.5C14.6326 14.125 14.7598 14.1777 14.8536 14.2714C14.9473 14.3652 15 14.4924 15 14.625C15 14.7576 14.9473 14.8848 14.8536 14.9786C14.7598 15.0723 14.6326 15.125 14.5 15.125H10.5C10.3674 15.125 10.2402 15.0723 10.1464 14.9786C10.0527 14.8848 10 14.7576 10 14.625ZM10.5 16.125C10.3674 16.125 10.2402 16.1777 10.1464 16.2714C10.0527 16.3652 10 16.4924 10 16.625C10 16.7576 10.0527 16.8848 10.1464 16.9786C10.2402 17.0723 10.3674 17.125 10.5 17.125H14.5C14.6326 17.125 14.7598 17.0723 14.8536 16.9786C14.9473 16.8848 15 16.7576 15 16.625C15 16.4924 14.9473 16.3652 14.8536 16.2714C14.7598 16.1777 14.6326 16.125 14.5 16.125H10.5ZM6 14.625V16.125H7.5V14.625H6ZM5.5 13.625H8C8.13261 13.625 8.25979 13.6777 8.35355 13.7714C8.44732 13.8652 8.5 13.9924 8.5 14.125V16.625C8.5 16.7576 8.44732 16.8848 8.35355 16.9786C8.25979 17.0723 8.13261 17.125 8 17.125H5.5C5.36739 17.125 5.24021 17.0723 5.14645 16.9786C5.05268 16.8848 5 16.7576 5 16.625V14.125C5 13.9924 5.05268 13.8652 5.14645 13.7714C5.24021 13.6777 5.36739 13.625 5.5 13.625ZM8.8535 8.4785C8.94458 8.3842 8.99498 8.2579 8.99384 8.1268C8.9927 7.9957 8.94011 7.87029 8.84741 7.77759C8.75471 7.68489 8.6293 7.6323 8.4982 7.63116C8.3671 7.63002 8.2408 7.68042 8.1465 7.7715L6.5 9.418L5.8535 8.7715C5.7592 8.68042 5.6329 8.63002 5.5018 8.63116C5.3707 8.6323 5.24529 8.68489 5.15259 8.77759C5.05989 8.87029 5.0073 8.9957 5.00616 9.1268C5.00502 9.2579 5.05542 9.3842 5.1465 9.4785L6.5 10.832L8.8535 8.4785Z" fill="white"/>
</svg>
