<svg width="26" height="26" viewBox="0 0 26 26" fill="none" xmlns="http://www.w3.org/2000/svg">
<g clip-path="url(#clip0_71_469)">
<path d="M6.30166 0.458365L6.86716 2.19874C7.04253 2.7281 7.33931 3.20908 7.73377 3.60326C8.12822 3.99744 8.60943 4.29387 9.13891 4.46886L10.8809 5.03436L10.9167 5.04411C11.0509 5.09137 11.1671 5.17912 11.2494 5.29525C11.3316 5.41139 11.3758 5.55018 11.3758 5.69249C11.3758 5.83479 11.3316 5.97359 11.2494 6.08973C11.1671 6.20586 11.0509 6.29361 10.9167 6.34086L9.17466 6.90637C8.64488 7.08114 8.16335 7.37748 7.7686 7.77167C7.37384 8.16586 7.07682 8.64696 6.90128 9.17649L6.33741 10.9152C6.29015 11.0495 6.20241 11.1657 6.08627 11.248C5.97013 11.3302 5.83134 11.3744 5.68903 11.3744C5.54673 11.3744 5.40793 11.3302 5.29179 11.248C5.17566 11.1657 5.08791 11.0495 5.04066 10.9152L4.47516 9.17649C4.30092 8.64516 4.00448 8.1621 3.60965 7.76614C3.21482 7.37019 2.73262 7.07237 2.20178 6.89662L0.458157 6.33111C0.323926 6.28386 0.207669 6.19611 0.12543 6.07998C0.0431905 5.96384 -0.000976562 5.82504 -0.000976562 5.68274C-0.000976563 5.54043 0.0431905 5.40164 0.12543 5.2855C0.207669 5.16937 0.323926 5.08162 0.458157 5.03436L2.20016 4.46886C2.72332 4.28936 3.19771 3.99091 3.58598 3.59699C3.97426 3.20308 4.26584 2.72444 4.43778 2.19874L5.00491 0.45999C5.05182 0.325194 5.13952 0.208343 5.25585 0.125653C5.37218 0.0429629 5.51137 -0.00146484 5.65409 -0.00146484C5.79682 -0.00146484 5.93601 0.0429629 6.05234 0.125653C6.16867 0.208343 6.25637 0.325194 6.30328 0.45999M14.2739 13.3479L13.0292 12.9449C12.6515 12.8186 12.3083 12.6062 12.0268 12.3244C11.7454 12.0427 11.5333 11.6993 11.4074 11.3215L11.0012 10.08C10.9675 9.984 10.9049 9.90084 10.8219 9.84201C10.7389 9.78317 10.6397 9.75157 10.538 9.75157C10.4363 9.75157 10.3371 9.78317 10.2542 9.84201C10.1712 9.90084 10.1086 9.984 10.0749 10.08L9.67191 11.3215C9.54831 11.6969 9.33971 12.0387 9.06236 12.3203C8.78501 12.6019 8.4464 12.8156 8.07291 12.9449L6.82978 13.3479C6.7338 13.3815 6.65064 13.4441 6.5918 13.5271C6.53296 13.6101 6.50136 13.7093 6.50136 13.811C6.50136 13.9127 6.53296 14.0119 6.5918 14.0949C6.65064 14.1778 6.7338 14.2405 6.82978 14.2741L8.07291 14.6787C8.45174 14.8051 8.79587 15.018 9.07797 15.3007C9.36006 15.5833 9.57233 15.9279 9.69791 16.307L10.1009 17.5485C10.1346 17.6445 10.1972 17.7276 10.2802 17.7865C10.3631 17.8453 10.4623 17.8769 10.564 17.8769C10.6657 17.8769 10.7649 17.8453 10.8479 17.7865C10.9309 17.7276 10.9935 17.6445 11.0272 17.5485L11.4318 16.307C11.5578 15.929 11.7702 15.5855 12.0519 15.3037C12.3337 15.022 12.6772 14.8097 13.0552 14.6836L14.2983 14.2806C14.3943 14.247 14.4774 14.1843 14.5363 14.1014C14.5951 14.0184 14.6267 13.9192 14.6267 13.8175C14.6267 13.7158 14.5951 13.6166 14.5363 13.5336C14.4774 13.4506 14.3943 13.388 14.2983 13.3544L14.2739 13.3479ZM10.5657 19.5001C10.1333 19.4996 9.71101 19.3694 9.35341 19.1264C8.99591 18.8664 8.73591 18.5235 8.57341 18.1172L8.15091 16.814L8.11841 16.7327L7.04916 17.802C6.75538 18.096 6.53397 18.4542 6.40241 18.8485L4.91716 23.3059C4.86971 23.4489 4.86297 23.6023 4.8977 23.7489C4.93243 23.8956 5.00725 24.0297 5.11381 24.1362C5.22036 24.2428 5.35445 24.3176 5.50109 24.3523C5.64772 24.387 5.80113 24.3803 5.94416 24.3329L10.4015 22.8476C10.7958 22.7161 11.154 22.4946 11.448 22.2009L21.1249 12.524L21.5523 12.9514C21.7805 13.1799 21.9087 13.4896 21.9087 13.8126C21.9087 14.1356 21.7805 14.4453 21.5523 14.6739L19.7372 16.4874C19.5848 16.6399 19.4993 16.8468 19.4995 17.0624C19.4996 17.278 19.5854 17.4847 19.738 17.6371C19.8905 17.7894 20.0974 17.8749 20.313 17.8748C20.5286 17.8746 20.7353 17.7888 20.8877 17.6362L22.7012 15.8227C23.234 15.2895 23.5334 14.5665 23.5334 13.8126C23.5334 13.0588 23.234 12.3357 22.7012 11.8025L22.2738 11.3751L23.4649 10.1856C23.7538 9.89678 23.9831 9.55386 24.1395 9.17644C24.2959 8.79902 24.3764 8.39449 24.3765 7.98594C24.3766 7.57739 24.2962 7.17283 24.1399 6.79535C23.9836 6.41787 23.7546 6.07487 23.4657 5.78593C23.1769 5.49699 22.834 5.26776 22.4565 5.11135C22.0791 4.95494 21.6746 4.87439 21.266 4.87432C20.4409 4.87416 19.6496 5.20179 19.066 5.78511L13.4549 11.3962L13.5329 11.4271L14.7695 11.8334C15.2408 11.9959 15.5983 12.2721 15.8583 12.6312C16.102 12.9725 16.2499 13.395 16.2499 13.8516C16.2499 14.3066 16.1199 14.7139 15.8599 15.0736C15.5999 15.4311 15.2424 15.6911 14.8362 15.8374L13.5492 16.2599C13.4192 16.3086 13.2892 16.3736 13.1917 16.489C13.0942 16.6044 13.0129 16.7165 12.9642 16.8627L12.5579 18.101C12.3954 18.556 12.1354 18.8972 11.7779 19.1572C11.4204 19.4172 11.0012 19.5001 10.5657 19.5001Z" fill="url(#paint0_linear_71_469)"/>
</g>
<defs>
<linearGradient id="paint0_linear_71_469" x1="24" y1="-5.5" x2="5.5" y2="35" gradientUnits="userSpaceOnUse">
<stop stop-color="#68BBFD"/>
<stop offset="1" stop-color="#EF7377"/>
</linearGradient>
<clipPath id="clip0_71_469">
<rect width="26" height="26" fill="white"/>
</clipPath>
</defs>
</svg>
