<svg width="24" height="25" viewBox="0 0 24 25" fill="none" xmlns="http://www.w3.org/2000/svg">
<path fill-rule="evenodd" clip-rule="evenodd" d="M6.188 2.6875H17.813C18.3629 2.6875 18.9075 2.79583 19.4155 3.00631C19.9236 3.21679 20.3852 3.52529 20.774 3.9142C21.1628 4.3031 21.4712 4.76479 21.6816 5.2729C21.8919 5.781 22.0001 6.32557 22 6.8755V18.5005C22 19.0504 21.8917 19.595 21.6812 20.103C21.4707 20.6111 21.1622 21.0727 20.7733 21.4615C20.3844 21.8503 19.9227 22.1587 19.4146 22.3691C18.9065 22.5794 18.3619 22.6876 17.812 22.6875H6.188C5.63799 22.6876 5.09334 22.5794 4.58517 22.369C4.077 22.1586 3.61526 21.8501 3.22634 21.4612C2.83743 21.0722 2.52895 20.6105 2.31852 20.1023C2.1081 19.5942 1.99987 19.0495 2 18.4995V6.8755C2.00053 5.76494 2.44193 4.70001 3.22722 3.91472C4.01251 3.12943 5.07744 2.68803 6.188 2.6875ZM6.188 4.6875C4.979 4.6875 4 5.6675 4 6.8755V18.5005C4 19.7075 4.98 20.6875 6.188 20.6875H17.813C19.02 20.6875 20 19.7075 20 18.4995V6.8755C20 5.6675 19.02 4.6875 17.812 4.6875H6.188Z" fill="#67AEFF"/>
<path fill-rule="evenodd" clip-rule="evenodd" d="M17.24 11.6115C17.0287 11.435 16.7627 11.3372 16.4873 11.3348C16.212 11.3324 15.9443 11.4256 15.73 11.5985L10.486 15.8455C10.1208 16.141 9.66682 16.3052 9.19706 16.3115C8.7273 16.3179 8.26906 16.166 7.896 15.8805L6.511 14.8205C6.49317 14.8069 6.47107 14.8002 6.44871 14.8015C6.42634 14.8027 6.40516 14.812 6.389 14.8275L3.691 17.4095C3.59731 17.5057 3.48521 17.582 3.36138 17.634C3.23755 17.6859 3.10453 17.7124 2.97025 17.7118C2.83597 17.7112 2.70318 17.6836 2.57981 17.6306C2.45644 17.5775 2.34501 17.5002 2.25216 17.4032C2.15932 17.3062 2.08696 17.1915 2.03941 17.0659C1.99186 16.9403 1.97009 16.8065 1.97539 16.6723C1.98069 16.5381 2.01297 16.4064 2.07028 16.285C2.1276 16.1635 2.20878 16.0549 2.309 15.9655L5.006 13.3825C5.36702 13.0369 5.83974 12.8318 6.33876 12.8043C6.83778 12.7768 7.33018 12.9287 7.727 13.2325L9.112 14.2925C9.12866 14.3053 9.14914 14.3122 9.17017 14.312C9.1912 14.3118 9.21156 14.3046 9.228 14.2915L14.47 10.0445C15.0447 9.5795 15.7631 9.32856 16.5024 9.33458C17.2417 9.3406 17.9559 9.6032 18.523 10.0775L21.643 12.6905C21.8463 12.8609 21.9736 13.1051 21.9968 13.3693C22.0201 13.6336 21.9374 13.8962 21.767 14.0995C21.5966 14.3028 21.3524 14.4301 21.0882 14.4533C20.8239 14.4766 20.5613 14.3939 20.358 14.2235L17.24 11.6115Z" fill="#67AEFF"/>
<path d="M10.281 9.3275C10.281 9.76246 10.1082 10.1796 9.80063 10.4872C9.49307 10.7947 9.07593 10.9675 8.64098 10.9675C8.20602 10.9675 7.78888 10.7947 7.48132 10.4872C7.17376 10.1796 7.00098 9.76246 7.00098 9.3275C7.00098 8.89255 7.17376 8.4754 7.48132 8.16784C7.78888 7.86029 8.20602 7.6875 8.64098 7.6875C9.07593 7.6875 9.49307 7.86029 9.80063 8.16784C10.1082 8.4754 10.281 8.89255 10.281 9.3275Z" fill="#67AEFF"/>
</svg>
