<svg width="22" height="21" viewBox="0 0 22 21" fill="none" xmlns="http://www.w3.org/2000/svg">
<path fill-rule="evenodd" clip-rule="evenodd" d="M5.20021 0.5H16.8252C17.3751 0.5 17.9197 0.608333 18.4277 0.818812C18.9358 1.02929 19.3974 1.33779 19.7862 1.7267C20.175 2.1156 20.4834 2.57729 20.6938 3.0854C20.9041 3.5935 21.0123 4.13807 21.0122 4.688V16.313C21.0122 16.8629 20.9039 17.4075 20.6934 17.9155C20.4829 18.4236 20.1744 18.8852 19.7855 19.274C19.3966 19.6628 18.9349 19.9712 18.4268 20.1816C17.9187 20.3919 17.3741 20.5001 16.8242 20.5H5.20021C4.65019 20.5001 4.10554 20.3919 3.59737 20.1815C3.0892 19.9711 2.62747 19.6626 2.23855 19.2737C1.84963 18.8847 1.54115 18.423 1.33073 17.9148C1.12031 17.4067 1.01208 16.862 1.01221 16.312V4.688C1.01274 3.57744 1.45414 2.51251 2.23943 1.72722C3.02472 0.941935 4.08964 0.50053 5.20021 0.5ZM5.20021 2.5C3.99121 2.5 3.01221 3.48 3.01221 4.688V16.313C3.01221 17.52 3.99221 18.5 5.20021 18.5H16.8252C18.0322 18.5 19.0122 17.52 19.0122 16.312V4.688C19.0122 3.48 18.0322 2.5 16.8242 2.5H5.20021Z" fill="white"/>
<path fill-rule="evenodd" clip-rule="evenodd" d="M16.2522 9.424C16.0409 9.24746 15.7749 9.14968 15.4995 9.14731C15.2242 9.14493 14.9565 9.23813 14.7422 9.411L9.49821 13.658C9.133 13.9535 8.67902 14.1177 8.20927 14.124C7.73951 14.1304 7.28126 13.9785 6.90821 13.693L5.52321 12.633C5.50537 12.6194 5.48328 12.6127 5.46091 12.614C5.43854 12.6152 5.41737 12.6245 5.40121 12.64L2.7032 15.222C2.60952 15.3182 2.49742 15.3945 2.37359 15.4465C2.24976 15.4984 2.11673 15.5249 1.98246 15.5243C1.84818 15.5237 1.71539 15.4961 1.59202 15.4431C1.46865 15.39 1.35722 15.3127 1.26437 15.2157C1.17153 15.1187 1.09917 15.004 1.05162 14.8784C1.00407 14.7528 0.982293 14.619 0.987597 14.4848C0.992901 14.3506 1.02517 14.2189 1.08249 14.0975C1.13981 13.976 1.22099 13.8674 1.32121 13.778L4.01821 11.195C4.37923 10.8494 4.85195 10.6443 5.35097 10.6168C5.84998 10.5893 6.34238 10.7412 6.73921 11.045L8.12421 12.105C8.14087 12.1178 8.16135 12.1247 8.18238 12.1245C8.20341 12.1243 8.22377 12.1171 8.2402 12.104L13.4822 7.857C14.0569 7.392 14.7754 7.14106 15.5146 7.14708C16.2539 7.1531 16.9681 7.4157 17.5352 7.89L20.6552 10.503C20.8585 10.6734 20.9858 10.9176 21.009 11.1818C21.0323 11.4461 20.9496 11.7087 20.7792 11.912C20.6088 12.1153 20.3646 12.2426 20.1004 12.2658C19.8361 12.2891 19.5735 12.2064 19.3702 12.036L16.2522 9.424Z" fill="white"/>
<path d="M9.29318 7.14C9.29318 7.57496 9.1204 7.9921 8.81284 8.29965C8.50528 8.60721 8.08814 8.78 7.65318 8.78C7.21823 8.78 6.80109 8.60721 6.49353 8.29965C6.18597 7.9921 6.01318 7.57496 6.01318 7.14C6.01318 6.70505 6.18597 6.2879 6.49353 5.98034C6.80109 5.67279 7.21823 5.5 7.65318 5.5C8.08814 5.5 8.50528 5.67279 8.81284 5.98034C9.1204 6.2879 9.29318 6.70505 9.29318 7.14Z" fill="white"/>
</svg>
