<svg fill="currentColor" xmlns="http://www.w3.org/2000/svg" enable-background="new 0 0 64 64" viewBox="0 0 64 64" id="ink-pen">
  <path d="M37.31,39.02H16.82c-0.74,0-1.35-0.6-1.35-1.35v-3.44c0-0.74,0.6-1.35,1.35-1.35h20.49c0.74,0,1.35,0.6,1.35,1.35v3.44
			C38.66,38.41,38.05,39.02,37.31,39.02z M16.82,33.86c-0.2,0-0.36,0.16-0.36,0.36v3.44c0,0.2,0.16,0.36,0.36,0.36h20.49
			c0.2,0,0.36-0.16,0.36-0.36v-3.44c0-0.2-0.16-0.36-0.36-0.36H16.82z"></path>
  <path d="M18.95 42.33c-.27 0-.49-.22-.49-.49v-3.32c0-.27.22-.49.49-.49s.49.22.49.49v3.32C19.45 42.11 19.23 42.33 18.95 42.33zM35.18 42.33c-.27 0-.49-.22-.49-.49v-3.32c0-.27.22-.49.49-.49.27 0 .49.22.49.49v3.32C35.67 42.11 35.45 42.33 35.18 42.33z"></path>
  <path d="M39.42,64H14.46c-1.09,0-1.98-0.89-1.98-1.99V43.34c0-1.09,0.89-1.99,1.98-1.99h24.96c1.09,0,1.99,0.89,1.99,1.99v18.68
			C41.41,63.11,40.52,64,39.42,64z M14.46,42.33c-0.55,0-1,0.45-1,1v18.68c0,0.55,0.45,1,1,1h24.96c0.55,0,1-0.45,1-1V43.34
			c0-0.55-0.45-1-1-1H14.46z"></path>
  <path d="M35.97,59.24H17.92c-0.63,0-1.15-0.51-1.15-1.15V47.25c0-0.63,0.51-1.15,1.15-1.15h18.05c0.63,0,1.15,0.51,1.15,1.15
				V58.1C37.12,58.73,36.6,59.24,35.97,59.24z M17.92,47.09c-0.09,0-0.16,0.07-0.16,0.16V58.1c0,0.09,0.07,0.16,0.16,0.16h18.05
				c0.09,0,0.16-0.07,0.16-0.16V47.25c0-0.09-0.07-0.16-0.16-0.16H17.92z"></path>
  <path d="M26.94 56.85c-2.3 0-4.18-1.87-4.18-4.18 0-2.3 1.87-4.18 4.18-4.18s4.18 1.87 4.18 4.18C31.12 54.98 29.25 56.85 26.94 56.85zM26.94 49.48c-1.76 0-3.19 1.43-3.19 3.19s1.43 3.19 3.19 3.19 3.19-1.43 3.19-3.19S28.7 49.48 26.94 49.48zM27.63 30.94c-.18 0-.36-.1-.44-.27-3.44-6.85-1.26-14.58 6.47-23 .13-.14.32-.19.5-.14.18.05.31.2.35.39l.28 1.54c.81-2.29 2.37-4.39 4.55-6.08C42.71.77 47-.42 51.09.13c.24.03.42.23.43.47.14 3.79-1.1 7.2-3.78 10.43-.22.26-.5.48-.82.63l-3.28 1.55 2.19.5c.17.04.3.16.36.32.06.16.02.34-.08.47l-5 6.14c-.07.08-.16.14-.27.17l-4.15 1.01 1.54.94c.12.07.2.19.23.32.03.13 0 .27-.08.38-3.25 4.57-6.75 7.01-10.67 7.46C27.67 30.94 27.65 30.94 27.63 30.94zM33.72 9.08c-6.76 7.66-8.71 14.67-5.8 20.83 3.38-.5 6.44-2.66 9.33-6.58l-2.1-1.28c-.17-.1-.26-.3-.23-.5.03-.2.18-.36.37-.4l5.14-1.25 4.4-5.4-2.81-.64c-.2-.05-.36-.22-.38-.43-.02-.21.09-.41.28-.5l4.56-2.16c.19-.09.36-.22.48-.37 2.42-2.91 3.59-5.97 3.56-9.34-3.71-.38-7.54.74-10.6 3.1-2.69 2.08-4.37 4.84-4.73 7.77-.03.24-.23.43-.47.43-.27-.01-.46-.17-.5-.41L33.72 9.08z"></path>
  <path d="M27.27,33.86c-0.02,0-0.04,0-0.06,0c-0.27-0.03-0.46-0.28-0.43-0.55c1.22-9.68,6.59-18.59,16.4-27.21
				c0.2-0.18,0.52-0.16,0.69,0.04c0.18,0.2,0.16,0.52-0.04,0.69C34.21,15.3,28.96,24,27.76,33.43
				C27.73,33.68,27.52,33.86,27.27,33.86z"></path>
</svg>
