<svg fill="currentColor" xmlns="http://www.w3.org/2000/svg" enable-background="new 0 0 64 64" viewBox="0 0 64 64" id="ink-pen">
  <path d="M35.93,45.98H18.05c-0.62,0-1.14,0.51-1.14,1.13v10.75c0,0.62,0.52,1.13,1.14,1.13h17.88c0.63,0,1.14-0.51,1.14-1.13V47.11
		C37.07,46.48,36.56,45.98,35.93,45.98z M26.99,56.62c-2.29,0-4.14-1.85-4.14-4.13c0-2.29,1.85-4.14,4.14-4.14
		c2.28,0,4.13,1.85,4.13,4.14C31.12,54.77,29.27,56.62,26.99,56.62z"></path>
  <path d="M26.99,49.32c-1.74,0-3.17,1.42-3.17,3.17c0,1.74,1.43,3.16,3.17,3.16c1.74,0,3.16-1.42,3.16-3.16
		C30.15,50.73,28.74,49.32,26.99,49.32z"></path>
  <path d="M50.95,0.13C50.29,0.04,49.62,0,48.95,0c-3.51,0-7.01,1.21-9.86,3.41c-1.88,1.45-3.32,3.23-4.22,5.19l-0.09-0.51
		c-0.05-0.3-0.26-0.54-0.54-0.61C34.16,7.45,34.08,7.44,34,7.44c-0.22,0-0.43,0.1-0.57,0.26c-7.71,8.39-9.9,16.14-6.48,23.05
		c-0.13,0.65-0.25,1.33-0.35,2.08l-0.01,0.04h-9.63c-0.74,0-1.34,0.59-1.34,1.34v3.41c0,0.73,0.59,1.34,1.34,1.34h1.32v2.01h-3.66
		c-1.25,0-2.27,1.02-2.27,2.27v18.5c0,1.25,1.02,2.27,2.27,2.27h24.73c1.25,0,2.26-1.02,2.26-2.27v-18.5c0-1.25-1.01-2.27-2.26-2.27
		h-3.42v-2.01h1.32c0.74,0,1.34-0.6,1.34-1.34v-3.41c0-0.74-0.59-1.34-1.34-1.34h-9.07c0.07-0.55,0.17-1.13,0.3-1.75
		c3.69-0.66,6.99-3.08,10.06-7.39c0.13-0.18,0.18-0.41,0.13-0.62c-0.05-0.21-0.18-0.4-0.36-0.5l-0.91-0.56l3.42-0.83
		c0.16-0.04,0.3-0.13,0.42-0.27l4.96-6.09c0.17-0.21,0.22-0.48,0.13-0.76c-0.1-0.26-0.32-0.45-0.57-0.49l-1.34-0.31l2.48-1.17
		c0.35-0.16,0.66-0.41,0.92-0.7c2.7-3.26,3.94-6.71,3.81-10.54C51.61,0.49,51.32,0.18,50.95,0.13z M40.05,61.73
		c0,0.39-0.31,0.7-0.69,0.7H14.63c-0.38,0-0.69-0.32-0.69-0.7v-18.5c0-0.39,0.31-0.7,0.69-0.7h4.42c0.01,0,0.02,0,0.02,0
		s0.02,0,0.02,0h16.03c0.01,0,0.02,0,0.02,0s0.02,0,0.02,0h4.18c0.38,0,0.69,0.32,0.69,0.7V61.73z M19.86,40.97v-2.01h14.51v2.01
		H19.86z M41.7,12.84c-0.3,0.14-0.48,0.46-0.44,0.8c0.05,0.33,0.28,0.59,0.6,0.68l2.32,0.53l-3.99,4.9l-5,1.22
		c-0.31,0.08-0.54,0.33-0.59,0.64c-0.05,0.31,0.09,0.61,0.37,0.79l1.8,1.1c-2.49,3.29-5.08,5.22-7.88,5.93
		c2-7.75,6.92-14.99,15.03-22.12c0.33-0.28,0.37-0.78,0.08-1.12c-0.15-0.17-0.36-0.26-0.59-0.26c-0.19,0-0.38,0.07-0.52,0.2
		c-8.08,7.1-13.09,14.33-15.29,22.07c-1.77-5.46,0.22-11.59,5.93-18.23l0.4,2.23c0.06,0.38,0.37,0.64,0.8,0.65
		c0.39-0.02,0.7-0.31,0.75-0.69c0.35-2.82,1.97-5.49,4.57-7.51c2.57-1.98,5.73-3.07,8.89-3.07c0.38,0,0.75,0.02,1.13,0.05
		c-0.04,3.16-1.17,6.04-3.45,8.79c-0.1,0.12-0.24,0.22-0.38,0.29L41.7,12.84z"></path>
</svg>
