<svg width="18" height="18" viewBox="0 0 18 18" fill="none" xmlns="http://www.w3.org/2000/svg">
<path d="M8.2127 12.4125L12.4502 8.17495L11.3814 7.1062L8.2127 10.275L6.61895 8.6812L5.5502 9.74995L8.2127 12.4125ZM9.0002 16.5C8.0627 16.5 7.1847 16.322 6.3662 15.966C5.5477 15.61 4.8352 15.1287 4.2287 14.5222C3.6222 13.9157 3.14095 13.2032 2.78495 12.3847C2.42895 11.5662 2.2507 10.688 2.2502 9.74995C2.2497 8.81195 2.42795 7.93395 2.78495 7.11595C3.14195 6.29795 3.62295 5.58545 4.22795 4.97845C4.83295 4.37145 5.54545 3.8902 6.36545 3.5347C7.18545 3.1792 8.06369 3.00095 9.0002 2.99995C9.9367 2.99895 10.8149 3.1772 11.6349 3.5347C12.4549 3.8922 13.1674 4.37345 13.7724 4.97845C14.3774 5.58345 14.8587 6.29595 15.2162 7.11595C15.5737 7.93595 15.7517 8.81395 15.7502 9.74995C15.7487 10.686 15.5707 11.5642 15.2162 12.3847C14.8617 13.2052 14.3804 13.9177 13.7724 14.5222C13.1644 15.1267 12.4519 15.608 11.6349 15.966C10.8179 16.324 9.9397 16.502 9.0002 16.5ZM4.2002 1.76245L5.2502 2.81245L2.0627 5.99995L1.0127 4.94995L4.2002 1.76245ZM13.8002 1.76245L16.9877 4.94995L15.9377 5.99995L12.7502 2.81245L13.8002 1.76245Z" fill="white"/>
</svg>
