<svg width="32" height="27" viewBox="0 0 32 27" fill="none" xmlns="http://www.w3.org/2000/svg">
<path fill-rule="evenodd" clip-rule="evenodd" d="M15.9998 0.333496C17.1398 0.333496 18.3092 0.36283 19.4425 0.41083L20.7812 0.474829L22.0625 0.55083L23.2625 0.632163L24.3585 0.717496C25.5481 0.808018 26.6676 1.31541 27.5198 2.1503C28.372 2.98519 28.9022 4.09402 29.0172 5.2815L29.0705 5.84816L29.1705 7.0615C29.2638 8.31883 29.3332 9.6895 29.3332 11.0002C29.3332 12.3108 29.2638 13.6815 29.1705 14.9388L29.0705 16.1522L29.0172 16.7188C28.9022 17.9065 28.3717 19.0155 27.5193 19.8504C26.6668 20.6853 25.547 21.1926 24.3572 21.2828L23.2638 21.3668L22.0638 21.4495L20.7812 21.5255L19.4425 21.5895C18.2956 21.6392 17.1478 21.665 15.9998 21.6668C14.8519 21.665 13.7041 21.6392 12.5572 21.5895L11.2185 21.5255L9.93717 21.4495L8.73717 21.3668L7.64117 21.2828C6.45159 21.1923 5.3321 20.6849 4.4799 19.85C3.62769 19.0151 3.09742 17.9063 2.9825 16.7188L2.92917 16.1522L2.82917 14.9388C2.72761 13.6283 2.67336 12.3146 2.6665 11.0002C2.6665 9.6895 2.73584 8.31883 2.82917 7.0615L2.92917 5.84816L2.9825 5.2815C3.09738 4.09423 3.62745 2.98557 4.47939 2.1507C5.33132 1.31584 6.45049 0.808318 7.63984 0.717496L8.7345 0.632163L9.9345 0.55083L11.2172 0.474829L12.5558 0.41083C13.7032 0.361132 14.8514 0.335349 15.9998 0.333496ZM13.3332 7.76683V14.2335C13.3332 14.8495 13.9998 15.2335 14.5332 14.9268L20.1332 11.6935C20.255 11.6234 20.3562 11.5223 20.4266 11.4006C20.497 11.2789 20.5341 11.1408 20.5341 11.0002C20.5341 10.8596 20.497 10.7214 20.4266 10.5997C20.3562 10.478 20.255 10.377 20.1332 10.3068L14.5332 7.07483C14.4115 7.00459 14.2735 6.96763 14.133 6.96765C13.9926 6.96767 13.8546 7.00468 13.7329 7.07496C13.6113 7.14523 13.5103 7.2463 13.4402 7.36798C13.37 7.48967 13.3331 7.62769 13.3332 7.76816V7.76683Z" fill="white"/>
</svg>
