<svg width="13" height="10" viewBox="0 0 13 10" fill="none" xmlns="http://www.w3.org/2000/svg">
<rect y="1" width="12" height="7" fill="black"/>
<path d="M1.16667 9.33333C0.845833 9.33333 0.571278 9.21919 0.343 8.99092C0.114722 8.76264 0.000388889 8.48789 0 8.16667V1.16667C0 0.845833 0.114333 0.571278 0.343 0.343C0.571667 0.114722 0.846222 0.000388889 1.16667 0H11.6667C11.9875 0 12.2622 0.114333 12.4909 0.343C12.7196 0.571667 12.8337 0.846222 12.8333 1.16667V8.16667C12.8333 8.4875 12.7192 8.76225 12.4909 8.99092C12.2626 9.21958 11.9879 9.33372 11.6667 9.33333H1.16667ZM2.1875 4.375L3.57292 6.27083C3.60208 6.31944 3.64097 6.356 3.68958 6.3805C3.73819 6.405 3.79167 6.41706 3.85 6.41667H4.025C4.12222 6.41667 4.20486 6.38264 4.27292 6.31458C4.34097 6.24653 4.375 6.16389 4.375 6.06667V3.28125C4.375 3.17431 4.34097 3.08681 4.27292 3.01875C4.20486 2.95069 4.11736 2.91667 4.01042 2.91667C3.90347 2.91667 3.81597 2.95069 3.74792 3.01875C3.67986 3.08681 3.64583 3.17431 3.64583 3.28125V4.95833L2.28958 3.0625C2.25069 3.01389 2.20694 2.97753 2.15833 2.95342C2.10972 2.92931 2.05625 2.91706 1.99792 2.91667H1.82292C1.71597 2.91667 1.62847 2.95069 1.56042 3.01875C1.49236 3.08681 1.45833 3.17431 1.45833 3.28125V6.05208C1.45833 6.15903 1.49236 6.24653 1.56042 6.31458C1.62847 6.38264 1.71597 6.41667 1.82292 6.41667C1.92986 6.41667 2.01736 6.38264 2.08542 6.31458C2.15347 6.24653 2.1875 6.15903 2.1875 6.05208V4.375ZM5.25 6.41667H6.92708C7.03403 6.41667 7.12153 6.38264 7.18958 6.31458C7.25764 6.24653 7.29167 6.15903 7.29167 6.05208C7.29167 5.94514 7.25764 5.85764 7.18958 5.78958C7.12153 5.72153 7.03403 5.6875 6.92708 5.6875H5.83333V5.04583H6.92708C7.03403 5.04583 7.12153 5.01181 7.18958 4.94375C7.25764 4.87569 7.29167 4.78819 7.29167 4.68125C7.29167 4.57431 7.25764 4.48681 7.18958 4.41875C7.12153 4.35069 7.03403 4.31667 6.92708 4.31667H5.83333V3.64583H6.92708C7.03403 3.64583 7.12153 3.61181 7.18958 3.54375C7.25764 3.47569 7.29167 3.38819 7.29167 3.28125C7.29167 3.17431 7.25764 3.08681 7.18958 3.01875C7.12153 2.95069 7.03403 2.91667 6.92708 2.91667H5.25C5.17222 2.91667 5.10417 2.94583 5.04583 3.00417C4.9875 3.0625 4.95833 3.13056 4.95833 3.20833V6.125C4.95833 6.20278 4.9875 6.27083 5.04583 6.32917C5.10417 6.3875 5.17222 6.41667 5.25 6.41667ZM8.45833 6.41667H10.7917C10.9569 6.41667 11.0956 6.36067 11.2076 6.24867C11.3196 6.13667 11.3754 5.99822 11.375 5.83333V3.28125C11.375 3.17431 11.341 3.08681 11.2729 3.01875C11.2049 2.95069 11.1174 2.91667 11.0104 2.91667C10.9035 2.91667 10.816 2.95069 10.7479 3.01875C10.6799 3.08681 10.6458 3.17431 10.6458 3.28125V5.54167H10.0042V3.86458C10.0042 3.75764 9.97014 3.67014 9.90208 3.60208C9.83403 3.53403 9.74653 3.5 9.63958 3.5C9.53264 3.5 9.44514 3.53403 9.37708 3.60208C9.30903 3.67014 9.275 3.75764 9.275 3.86458V5.54167H8.60417V3.28125C8.60417 3.17431 8.57014 3.08681 8.50208 3.01875C8.43403 2.95069 8.34653 2.91667 8.23958 2.91667C8.13264 2.91667 8.04514 2.95069 7.97708 3.01875C7.90903 3.08681 7.875 3.17431 7.875 3.28125V5.83333C7.875 5.99861 7.931 6.13725 8.043 6.24925C8.155 6.36125 8.29344 6.41706 8.45833 6.41667Z" fill="#67AEFF"/>
</svg>
