<svg width="24" height="24" viewBox="0 0 24 24" fill="none" xmlns="http://www.w3.org/2000/svg">
<g clip-path="url(#clip0_26_585)">
<path d="M4.71302 7.1281L4.46702 7.6941C4.42858 7.78627 4.36372 7.865 4.28062 7.92038C4.19752 7.97575 4.09988 8.00531 4.00002 8.00531C3.90016 8.00531 3.80253 7.97575 3.71943 7.92038C3.63632 7.865 3.57147 7.78627 3.53302 7.6941L3.28702 7.1281C2.8545 6.12683 2.0624 5.32402 1.06702 4.8781L0.308022 4.5391C0.215941 4.49675 0.137936 4.42887 0.0832553 4.34353C0.0285747 4.25819 -0.000488281 4.15896 -0.000488281 4.0576C-0.000488281 3.95625 0.0285747 3.85702 0.0832553 3.77168C0.137936 3.68633 0.215941 3.61846 0.308022 3.5761L1.02502 3.2571C2.04542 2.79848 2.85108 1.96599 3.27602 0.931105L3.53002 0.320105C3.56718 0.225458 3.63199 0.144203 3.71601 0.0869296C3.80002 0.0296566 3.89934 -0.000976563 4.00102 -0.000976562C4.1027 -0.000976563 4.20202 0.0296566 4.28604 0.0869296C4.37005 0.144203 4.43486 0.225458 4.47202 0.320105L4.72502 0.930105C5.14951 1.96518 5.95481 2.79804 6.97502 3.2571L7.69302 3.5771C7.78482 3.61958 7.86255 3.68745 7.91703 3.77268C7.9715 3.85791 8.00045 3.95695 8.00045 4.0581C8.00045 4.15926 7.9715 4.2583 7.91703 4.34353C7.86255 4.42876 7.78482 4.49662 7.69302 4.5391L6.93302 4.8771C5.93784 5.32347 5.14609 6.12663 4.71402 7.1281M3.06402 21.6131C4.09002 15.4221 6.31202 1.9971 21 1.9971C19.504 4.9971 18.5 6.4971 17.5 7.4971L16.5 8.4971L18 9.4971C17 12.4971 14 15.9971 10 16.4971C7.33136 16.8304 5.66402 18.6638 4.99802 21.9971H3.00002L3.06402 21.6131Z" fill="white"/>
</g>
<defs>
<clipPath id="clip0_26_585">
<rect width="24" height="24" fill="white"/>
</clipPath>
</defs>
</svg>
