<svg width="43" height="16" viewBox="0 0 43 16" fill="none" xmlns="http://www.w3.org/2000/svg">
<path d="M5.13107 10.331H4.07307V15H0.209071V0.716999H4.87807C6.51874 0.716999 7.73774 1.09267 8.53507 1.844C9.33241 2.59533 9.73107 3.82967 9.73107 5.547C9.73107 7.26433 9.35541 8.491 8.60407 9.227C7.85274 9.963 6.69507 10.331 5.13107 10.331ZM5.56807 7.226C5.70607 6.96533 5.77507 6.49767 5.77507 5.823C5.77507 5.14833 5.6984 4.673 5.54507 4.397C5.39174 4.121 5.08507 3.983 4.62507 3.983H4.07307V7.617H4.71707C5.1464 7.617 5.43007 7.48667 5.56807 7.226ZM20.353 5.248C20.353 6.10667 20.2227 6.81967 19.962 7.387C19.7014 7.95433 19.295 8.468 18.743 8.928L20.652 15H16.397L14.971 9.848H14.442V15H10.578V0.716999H15.914C17.4474 0.716999 18.5667 1.07733 19.272 1.798C19.9927 2.51867 20.353 3.66867 20.353 5.248ZM15.04 7.433C15.4387 7.433 15.7224 7.318 15.891 7.088C16.0597 6.858 16.144 6.444 16.144 5.846C16.144 5.23267 16.0597 4.811 15.891 4.581C15.7224 4.33567 15.4464 4.213 15.063 4.213H14.442V7.433H15.04ZM22.4943 2.212C23.3836 1.062 24.8326 0.486999 26.8413 0.486999C28.8499 0.486999 30.2836 1.05433 31.1423 2.189C32.0163 3.32367 32.4533 5.17133 32.4533 7.732C32.4533 10.2773 32.0086 12.1633 31.1193 13.39C30.2299 14.6167 28.7886 15.23 26.7953 15.23C24.8019 15.23 23.3683 14.6243 22.4943 13.413C21.6203 12.2017 21.1833 10.3233 21.1833 7.778C21.1833 5.21733 21.6203 3.362 22.4943 2.212ZM28.4973 7.732C28.4973 6.32133 28.3823 5.37067 28.1523 4.88C27.9376 4.374 27.4853 4.121 26.7953 4.121C26.1206 4.121 25.6836 4.374 25.4843 4.88C25.2849 5.37067 25.1853 6.31367 25.1853 7.709V8.261C25.1853 9.74833 25.2926 10.7297 25.5073 11.205C25.7373 11.665 26.1896 11.895 26.8643 11.895C27.5543 11.895 27.9989 11.6727 28.1983 11.228C28.3976 10.7833 28.4973 9.86333 28.4973 8.468V7.732ZM42.5972 9.687H39.6992V12.792H36.7092V9.687H33.9032V6.789H36.7092V3.661H39.6992V6.789H42.5972V9.687Z" fill="url(#paint0_linear_26_237)"/>
<defs>
<linearGradient id="paint0_linear_26_237" x1="-16.1944" y1="9.26923" x2="57.5556" y2="9.26924" gradientUnits="userSpaceOnUse">
<stop stop-color="#813ADC"/>
<stop offset="1" stop-color="#FF5151"/>
</linearGradient>
</defs>
</svg>
