<svg width="33" height="16" viewBox="0 0 33 16" fill="none" xmlns="http://www.w3.org/2000/svg">
<path d="M5.52892 10.331H4.47092V15H0.606921V0.716999H5.27592C6.91659 0.716999 8.13559 1.09267 8.93292 1.844C9.73026 2.59533 10.1289 3.82967 10.1289 5.547C10.1289 7.26433 9.75326 8.491 9.00192 9.227C8.25059 9.963 7.09292 10.331 5.52892 10.331ZM5.96592 7.226C6.10392 6.96533 6.17292 6.49767 6.17292 5.823C6.17292 5.14833 6.09625 4.673 5.94292 4.397C5.78959 4.121 5.48292 3.983 5.02292 3.983H4.47092V7.617H5.11492C5.54425 7.617 5.82792 7.48667 5.96592 7.226ZM20.7509 5.248C20.7509 6.10667 20.6205 6.81967 20.3599 7.387C20.0992 7.95433 19.6929 8.468 19.1409 8.928L21.0499 15H16.7949L15.3689 9.848H14.8399V15H10.9759V0.716999H16.3119C17.8452 0.716999 18.9645 1.07733 19.6699 1.798C20.3905 2.51867 20.7509 3.66867 20.7509 5.248ZM15.4379 7.433C15.8365 7.433 16.1202 7.318 16.2889 7.088C16.4575 6.858 16.5419 6.444 16.5419 5.846C16.5419 5.23267 16.4575 4.811 16.2889 4.581C16.1202 4.33567 15.8442 4.213 15.4609 4.213H14.8399V7.433H15.4379ZM22.8921 2.212C23.7814 1.062 25.2304 0.486999 27.2391 0.486999C29.2478 0.486999 30.6814 1.05433 31.5401 2.189C32.4141 3.32367 32.8511 5.17133 32.8511 7.732C32.8511 10.2773 32.4064 12.1633 31.5171 13.39C30.6278 14.6167 29.1864 15.23 27.1931 15.23C25.1998 15.23 23.7661 14.6243 22.8921 13.413C22.0181 12.2017 21.5811 10.3233 21.5811 7.778C21.5811 5.21733 22.0181 3.362 22.8921 2.212ZM28.8951 7.732C28.8951 6.32133 28.7801 5.37067 28.5501 4.88C28.3354 4.374 27.8831 4.121 27.1931 4.121C26.5184 4.121 26.0814 4.374 25.8821 4.88C25.6828 5.37067 25.5831 6.31367 25.5831 7.709V8.261C25.5831 9.74833 25.6904 10.7297 25.9051 11.205C26.1351 11.665 26.5874 11.895 27.2621 11.895C27.9521 11.895 28.3968 11.6727 28.5961 11.228C28.7954 10.7833 28.8951 9.86333 28.8951 8.468V7.732Z" fill="url(#paint0_linear_20_375)"/>
<defs>
<linearGradient id="paint0_linear_20_375" x1="-22.9322" y1="8" x2="73.8559" y2="8.00001" gradientUnits="userSpaceOnUse">
<stop stop-color="#813ADC"/>
<stop offset="0.490385" stop-color="#FF757F"/>
<stop offset="1" stop-color="#FF5151"/>
</linearGradient>
</defs>
</svg>
