<svg width="565" height="140" viewBox="0 0 565 140" fill="none" xmlns="http://www.w3.org/2000/svg">
<rect x="38.1553" y="38.8165" width="488.78" height="99.3899" rx="21.7841" fill="white" fill-opacity="0.5"/>
<path d="M58.0372 96.2776C61.0986 96.2776 63.3722 94.5724 63.8509 91.9398V91.9199H62.036L62.0161 91.9398C61.5673 93.5952 60.0416 94.6223 58.0372 94.6223C55.265 94.6223 53.5299 92.3587 53.5299 88.7588V88.7388C53.5299 85.139 55.265 82.8654 58.0273 82.8654C60.0117 82.8654 61.5474 84.0321 62.026 85.8769L62.036 85.8968H63.8409L63.8509 85.8769C63.4221 83.1147 61.0587 81.21 58.0273 81.21C54.1183 81.21 51.6851 84.1019 51.6851 88.7388V88.7588C51.6851 93.3858 54.1282 96.2776 58.0372 96.2776ZM68.5736 96.1281C70.0196 96.1281 71.1464 95.4998 71.8245 94.3531H71.984V95.9386H73.7192V88.5793C73.7192 86.3456 72.2533 84.9994 69.6306 84.9994C67.3371 84.9994 65.7017 86.1362 65.4225 87.8214L65.4125 87.8813H67.1476L67.1576 87.8513C67.4368 87.0137 68.2844 86.535 69.5708 86.535C71.1763 86.535 71.984 87.253 71.984 88.5793V89.5565L68.9027 89.746C66.3997 89.8956 64.9837 91.0025 64.9837 92.9171V92.937C64.9837 94.8915 66.5294 96.1281 68.5736 96.1281ZM66.7587 92.8971V92.8772C66.7587 91.8102 67.4767 91.2318 69.1121 91.1321L71.984 90.9526V91.9299C71.984 93.4656 70.6976 94.6223 68.9326 94.6223C67.6861 94.6223 66.7587 93.9841 66.7587 92.8971ZM75.8691 95.9386H77.6042V89.5765C77.6042 87.6918 78.6912 86.535 80.4064 86.535C82.1215 86.535 82.9193 87.4624 82.9193 89.397V95.9386H84.6544V88.9782C84.6544 86.4253 83.3082 84.9994 80.895 84.9994C79.3094 84.9994 78.3023 85.6675 77.7638 86.8043H77.6042V85.1888H75.8691V95.9386ZM92.4146 99.708C94.3192 99.708 95.2067 99.01 96.0942 96.5967L100.292 85.1888H98.4676L95.5258 94.034H95.3663L92.4146 85.1888H90.5598L94.5386 95.9486L94.3392 96.5868C93.9503 97.8233 93.352 98.272 92.3647 98.272C92.1254 98.272 91.8562 98.2621 91.6467 98.2222V99.6482C91.8861 99.6881 92.1852 99.708 92.4146 99.708ZM105.584 96.1281C108.645 96.1281 110.54 94.014 110.54 90.5737V90.5537C110.54 87.1034 108.645 84.9994 105.584 84.9994C102.522 84.9994 100.627 87.1034 100.627 90.5537V90.5737C100.627 94.014 102.522 96.1281 105.584 96.1281ZM105.584 94.5924C103.549 94.5924 102.403 93.1066 102.403 90.5737V90.5537C102.403 88.0109 103.549 86.535 105.584 86.535C107.618 86.535 108.765 88.0109 108.765 90.5537V90.5737C108.765 93.1066 107.618 94.5924 105.584 94.5924ZM115.811 96.1281C117.386 96.1281 118.473 95.4799 119.002 94.3331H119.161V95.9386H120.897V85.1888H119.161V91.5509C119.161 93.4356 118.154 94.5924 116.26 94.5924C114.544 94.5924 113.846 93.665 113.846 91.7304V85.1888H112.111V92.1493C112.111 94.6921 113.368 96.1281 115.811 96.1281ZM133.184 96.1281C135.906 96.1281 137.691 93.9243 137.691 90.5737V90.5537C137.691 87.1832 135.916 84.9994 133.184 84.9994C131.708 84.9994 130.422 85.7373 129.833 86.8841H129.674V80.9208H127.939V95.9386H129.674V94.2234H129.833C130.492 95.4201 131.688 96.1281 133.184 96.1281ZM132.785 94.5924C130.831 94.5924 129.634 93.0567 129.634 90.5737V90.5537C129.634 88.0707 130.831 86.535 132.785 86.535C134.75 86.535 135.916 88.0508 135.916 90.5537V90.5737C135.916 93.0766 134.75 94.5924 132.785 94.5924ZM139.363 95.9386H141.098V89.2773C141.098 87.7018 142.274 86.6547 143.93 86.6547C144.309 86.6547 144.638 86.6946 144.997 86.7544V85.0692C144.827 85.0392 144.458 84.9994 144.129 84.9994C142.673 84.9994 141.666 85.6575 141.257 86.7843H141.098V85.1888H139.363V95.9386ZM147.037 83.1147C147.695 83.1147 148.234 82.5762 148.234 81.918C148.234 81.2599 147.695 80.7214 147.037 80.7214C146.379 80.7214 145.84 81.2599 145.84 81.918C145.84 82.5762 146.379 83.1147 147.037 83.1147ZM146.159 95.9386H147.895V85.1888H146.159V95.9386ZM150.144 95.9386H151.879V89.5765C151.879 87.6918 152.966 86.535 154.682 86.535C156.397 86.535 157.194 87.4624 157.194 89.397V95.9386H158.93V88.9782C158.93 86.4253 157.583 84.9994 155.17 84.9994C153.585 84.9994 152.577 85.6675 152.039 86.8043H151.879V85.1888H150.144V95.9386ZM165.477 99.7279C168.409 99.7279 170.264 98.1923 170.264 95.789V85.1888H168.529V86.9638H168.409C167.751 85.7473 166.574 84.9994 165.058 84.9994C162.246 84.9994 160.511 87.1832 160.511 90.1947V90.2147C160.511 93.2262 162.236 95.3802 165.018 95.3802C166.494 95.3802 167.711 94.712 168.389 93.5254H168.549V95.6993C168.549 97.2848 167.402 98.1923 165.477 98.1923C163.932 98.1923 162.974 97.6139 162.785 96.7962L162.775 96.7862H160.98L160.96 96.7962C161.229 98.5612 162.884 99.7279 165.477 99.7279ZM165.397 93.8445C163.403 93.8445 162.286 92.3487 162.286 90.2147V90.1947C162.286 88.0607 163.403 86.535 165.397 86.535C167.382 86.535 168.588 88.0607 168.588 90.1947V90.2147C168.588 92.3487 167.392 93.8445 165.397 93.8445ZM180.148 96.1281C181.594 96.1281 182.721 95.4998 183.399 94.3531H183.558V95.9386H185.293V88.5793C185.293 86.3456 183.828 84.9994 181.205 84.9994C178.911 84.9994 177.276 86.1362 176.997 87.8214L176.987 87.8813H178.722L178.732 87.8513C179.011 87.0137 179.859 86.535 181.145 86.535C182.751 86.535 183.558 87.253 183.558 88.5793V89.5565L180.477 89.746C177.974 89.8956 176.558 91.0025 176.558 92.9171V92.937C176.558 94.8915 178.104 96.1281 180.148 96.1281ZM178.333 92.8971V92.8772C178.333 91.8102 179.051 91.2318 180.686 91.1321L183.558 90.9526V91.9299C183.558 93.4656 182.272 94.6223 180.507 94.6223C179.26 94.6223 178.333 93.9841 178.333 92.8971ZM197.511 96.1281C200.233 96.1281 202.018 93.9243 202.018 90.5737V90.5537C202.018 87.1832 200.243 84.9994 197.511 84.9994C196.035 84.9994 194.749 85.7373 194.161 86.8841H194.001V80.9208H192.266V95.9386H194.001V94.2234H194.161C194.819 95.4201 196.015 96.1281 197.511 96.1281ZM197.112 94.5924C195.158 94.5924 193.961 93.0567 193.961 90.5737V90.5537C193.961 88.0707 195.158 86.535 197.112 86.535C199.077 86.535 200.243 88.0508 200.243 90.5537V90.5737C200.243 93.0766 199.077 94.5924 197.112 94.5924ZM204.607 83.1147C205.265 83.1147 205.804 82.5762 205.804 81.918C205.804 81.2599 205.265 80.7214 204.607 80.7214C203.949 80.7214 203.411 81.2599 203.411 81.918C203.411 82.5762 203.949 83.1147 204.607 83.1147ZM203.73 95.9386H205.465V85.1888H203.73V95.9386ZM212.142 99.7279C215.074 99.7279 216.929 98.1923 216.929 95.789V85.1888H215.193V86.9638H215.074C214.416 85.7473 213.239 84.9994 211.723 84.9994C208.911 84.9994 207.176 87.1832 207.176 90.1947V90.2147C207.176 93.2262 208.901 95.3802 211.683 95.3802C213.159 95.3802 214.376 94.712 215.054 93.5254H215.213V95.6993C215.213 97.2848 214.067 98.1923 212.142 98.1923C210.596 98.1923 209.639 97.6139 209.45 96.7962L209.44 96.7862H207.645L207.625 96.7962C207.894 98.5612 209.549 99.7279 212.142 99.7279ZM212.062 93.8445C210.068 93.8445 208.951 92.3487 208.951 90.2147V90.1947C208.951 88.0607 210.068 86.535 212.062 86.535C214.047 86.535 215.253 88.0607 215.253 90.1947V90.2147C215.253 92.3487 214.057 93.8445 212.062 93.8445ZM227.551 96.1281C229.994 96.1281 231.859 94.8018 231.859 92.8872V92.8672C231.859 91.3316 230.881 90.454 228.857 89.9654L227.202 89.5665C225.935 89.2574 225.397 88.7987 225.397 88.0707V88.0508C225.397 87.1034 226.334 86.4453 227.61 86.4453C228.907 86.4453 229.744 87.0336 229.974 87.8813H231.679C231.44 86.1262 229.874 84.9994 227.62 84.9994C225.337 84.9994 223.622 86.3456 223.622 88.1306V88.1405C223.622 89.6862 224.529 90.5637 226.543 91.0424L228.209 91.4412C229.535 91.7603 230.084 92.2689 230.084 92.9969V93.0168C230.084 93.9941 229.056 94.6821 227.61 94.6821C226.234 94.6821 225.377 94.0938 225.088 93.1963H223.313C223.512 94.9713 225.157 96.1281 227.551 96.1281ZM236.482 96.1281C237.927 96.1281 239.054 95.4998 239.732 94.3531H239.892V95.9386H241.627V88.5793C241.627 86.3456 240.161 84.9994 237.539 84.9994C235.245 84.9994 233.61 86.1362 233.33 87.8214L233.32 87.8813H235.056L235.066 87.8513C235.345 87.0137 236.192 86.535 237.479 86.535C239.084 86.535 239.892 87.253 239.892 88.5793V89.5565L236.811 89.746C234.308 89.8956 232.892 91.0025 232.892 92.9171V92.937C232.892 94.8915 234.437 96.1281 236.482 96.1281ZM234.667 92.8971V92.8772C234.667 91.8102 235.385 91.2318 237.02 91.1321L239.892 90.9526V91.9299C239.892 93.4656 238.606 94.6223 236.841 94.6223C235.594 94.6223 234.667 93.9841 234.667 92.8971ZM243.877 95.9386H245.612V80.9208H243.877V95.9386ZM250.873 96.1281C252.319 96.1281 253.446 95.4998 254.124 94.3531H254.283V95.9386H256.019V88.5793C256.019 86.3456 254.553 84.9994 251.93 84.9994C249.637 84.9994 248.001 86.1362 247.722 87.8214L247.712 87.8813H249.447L249.457 87.8513C249.736 87.0137 250.584 86.535 251.87 86.535C253.476 86.535 254.283 87.253 254.283 88.5793V89.5565L251.202 89.746C248.699 89.8956 247.283 91.0025 247.283 92.9171V92.937C247.283 94.8915 248.829 96.1281 250.873 96.1281ZM249.058 92.8971V92.8772C249.058 91.8102 249.776 91.2318 251.412 91.1321L254.283 90.9526V91.9299C254.283 93.4656 252.997 94.6223 251.232 94.6223C249.986 94.6223 249.058 93.9841 249.058 92.8971ZM262.137 96.1281C263.633 96.1281 264.83 95.4201 265.488 94.2234H265.648V95.9386H267.383V80.9208H265.648V86.8841H265.488C264.9 85.7373 263.613 84.9994 262.137 84.9994C259.405 84.9994 257.63 87.1832 257.63 90.5537V90.5737C257.63 93.9243 259.415 96.1281 262.137 96.1281ZM262.536 94.5924C260.572 94.5924 259.405 93.0766 259.405 90.5737V90.5537C259.405 88.0508 260.572 86.535 262.536 86.535C264.491 86.535 265.687 88.0707 265.687 90.5537V90.5737C265.687 93.0567 264.491 94.5924 262.536 94.5924ZM271.996 91.4911H273.741V90.8429C273.741 89.7959 274.1 89.2374 275.366 88.4895C276.643 87.7217 277.45 86.6148 277.45 85.0592V85.0392C277.45 82.995 275.735 81.4394 273.222 81.4394C270.42 81.4394 268.984 83.1545 268.874 85.2985V85.3185L270.57 85.3085L270.59 85.2985C270.689 83.8825 271.647 82.995 273.152 82.995C274.638 82.995 275.596 83.9024 275.596 85.129V85.1489C275.596 86.206 275.147 86.8342 273.99 87.5422C272.624 88.3599 271.986 89.2574 271.996 90.5737V91.4911ZM273.003 96.1181C273.811 96.1181 274.379 95.5397 274.379 94.732C274.379 93.9143 273.811 93.3359 273.003 93.3359C272.195 93.3359 271.617 93.9143 271.617 94.732C271.617 95.5397 272.195 96.1181 273.003 96.1181ZM284.084 95.9386H285.879V81.5491H284.084V95.9386ZM288.298 87.2231H289.584L291.15 81.5491H289.165L288.298 87.2231ZM293.35 95.9386H295.085V89.2773C295.085 87.7616 296.152 86.535 297.558 86.535C298.914 86.535 299.792 87.3627 299.792 88.6391V95.9386H301.527V89.028C301.527 87.6619 302.514 86.535 304.01 86.535C305.525 86.535 306.253 87.3228 306.253 88.9084V95.9386H307.988V88.5095C307.988 86.2558 306.762 84.9994 304.568 84.9994C303.082 84.9994 301.856 85.7473 301.277 86.8841H301.118C300.619 85.7672 299.602 84.9994 298.146 84.9994C296.74 84.9994 295.723 85.6675 295.244 86.8242H295.085V85.1888H293.35V95.9386ZM319.239 96.1281C322.3 96.1281 324.195 94.014 324.195 90.5737V90.5537C324.195 87.1034 322.3 84.9994 319.239 84.9994C316.177 84.9994 314.283 87.1034 314.283 90.5537V90.5737C314.283 94.014 316.177 96.1281 319.239 96.1281ZM319.239 94.5924C317.205 94.5924 316.058 93.1066 316.058 90.5737V90.5537C316.058 88.0109 317.205 86.535 319.239 86.535C321.273 86.535 322.42 88.0109 322.42 90.5537V90.5737C322.42 93.1066 321.273 94.5924 319.239 94.5924ZM325.866 95.9386H327.601V89.5765C327.601 87.6918 328.688 86.535 330.403 86.535C332.119 86.535 332.916 87.4624 332.916 89.397V95.9386H334.652V88.9782C334.652 86.4253 333.305 84.9994 330.892 84.9994C329.307 84.9994 328.299 85.6675 327.761 86.8043H327.601V85.1888H325.866V95.9386ZM345.463 96.1281C346.959 96.1281 348.156 95.4201 348.814 94.2234H348.973V95.9386H350.708V80.9208H348.973V86.8841H348.814C348.225 85.7373 346.939 84.9994 345.463 84.9994C342.731 84.9994 340.956 87.1832 340.956 90.5537V90.5737C340.956 93.9243 342.741 96.1281 345.463 96.1281ZM345.862 94.5924C343.898 94.5924 342.731 93.0766 342.731 90.5737V90.5537C342.731 88.0508 343.898 86.535 345.862 86.535C347.816 86.535 349.013 88.0707 349.013 90.5537V90.5737C349.013 93.0567 347.816 94.5924 345.862 94.5924ZM357.406 96.1281C359.938 96.1281 361.474 94.6921 361.843 93.2362L361.863 93.1564H360.128L360.088 93.2462C359.799 93.8943 358.901 94.5824 357.445 94.5824C355.531 94.5824 354.304 93.2861 354.254 91.0623H361.993V90.3842C361.993 87.1732 360.218 84.9994 357.296 84.9994C354.374 84.9994 352.479 87.273 352.479 90.5936V90.6036C352.479 93.9741 354.334 96.1281 357.406 96.1281ZM357.286 86.545C358.871 86.545 360.048 87.5522 360.228 89.6762H354.284C354.474 87.632 355.69 86.545 357.286 86.545ZM367.354 96.1281C369.797 96.1281 371.661 94.8018 371.661 92.8872V92.8672C371.661 91.3316 370.684 90.454 368.66 89.9654L367.005 89.5665C365.738 89.2574 365.2 88.7987 365.2 88.0707V88.0508C365.2 87.1034 366.137 86.4453 367.413 86.4453C368.71 86.4453 369.547 87.0336 369.777 87.8813H371.482C371.243 86.1262 369.677 84.9994 367.423 84.9994C365.14 84.9994 363.425 86.3456 363.425 88.1306V88.1405C363.425 89.6862 364.332 90.5637 366.346 91.0424L368.012 91.4412C369.338 91.7603 369.886 92.2689 369.886 92.9969V93.0168C369.886 93.9941 368.859 94.6821 367.413 94.6821C366.037 94.6821 365.18 94.0938 364.891 93.1963H363.115C363.315 94.9713 364.96 96.1281 367.354 96.1281ZM376.823 96.1281C379.266 96.1281 381.131 94.8018 381.131 92.8872V92.8672C381.131 91.3316 380.154 90.454 378.129 89.9654L376.474 89.5665C375.208 89.2574 374.669 88.7987 374.669 88.0707V88.0508C374.669 87.1034 375.606 86.4453 376.883 86.4453C378.179 86.4453 379.017 87.0336 379.246 87.8813H380.951C380.712 86.1262 379.146 84.9994 376.893 84.9994C374.609 84.9994 372.894 86.3456 372.894 88.1306V88.1405C372.894 89.6862 373.801 90.5637 375.816 91.0424L377.481 91.4412C378.807 91.7603 379.356 92.2689 379.356 92.9969V93.0168C379.356 93.9941 378.329 94.6821 376.883 94.6821C375.507 94.6821 374.649 94.0938 374.36 93.1963H372.585C372.784 94.9713 374.43 96.1281 376.823 96.1281ZM387.19 96.1281C389.723 96.1281 391.258 94.6921 391.627 93.2362L391.647 93.1564H389.912L389.872 93.2462C389.583 93.8943 388.686 94.5824 387.23 94.5824C385.315 94.5824 384.089 93.2861 384.039 91.0623H391.777V90.3842C391.777 87.1732 390.002 84.9994 387.08 84.9994C384.158 84.9994 382.264 87.273 382.264 90.5936V90.6036C382.264 93.9741 384.118 96.1281 387.19 96.1281ZM387.07 86.545C388.656 86.545 389.832 87.5522 390.012 89.6762H384.069C384.258 87.632 385.475 86.545 387.07 86.545ZM393.448 95.9386H395.183V89.2773C395.183 87.7018 396.36 86.6547 398.015 86.6547C398.394 86.6547 398.723 86.6946 399.082 86.7544V85.0692C398.913 85.0392 398.544 84.9994 398.215 84.9994C396.759 84.9994 395.752 85.6575 395.343 86.7843H395.183V85.1888H393.448V95.9386ZM404.224 96.0184C404.563 96.0184 404.892 95.9785 405.231 95.9187V94.4428C404.912 94.4727 404.742 94.4827 404.433 94.4827C403.316 94.4827 402.878 93.9741 402.878 92.7077V86.6248H405.231V85.1888H402.878V82.4066H401.083V85.1888H399.388V86.6248H401.083V93.1464C401.083 95.2007 402.01 96.0184 404.224 96.0184ZM55.993 120.128C57.4888 120.128 58.6854 119.42 59.3436 118.223H59.5031V119.939H61.2382V104.921H59.5031V110.884H59.3436C58.7552 109.737 57.4688 108.999 55.993 108.999C53.2607 108.999 51.4857 111.183 51.4857 114.554V114.574C51.4857 117.924 53.2706 120.128 55.993 120.128ZM56.3919 118.592C54.4274 118.592 53.2607 117.077 53.2607 114.574V114.554C53.2607 112.051 54.4274 110.535 56.3919 110.535C58.3464 110.535 59.543 112.071 59.543 114.554V114.574C59.543 117.057 58.3464 118.592 56.3919 118.592ZM67.1476 120.128C68.7232 120.128 69.8101 119.48 70.3387 118.333H70.4982V119.939H72.2333V109.189H70.4982V115.551C70.4982 117.436 69.491 118.592 67.5964 118.592C65.8812 118.592 65.1832 117.665 65.1832 115.73V109.189H63.448V116.149C63.448 118.692 64.7045 120.128 67.1476 120.128ZM78.2724 120.018C78.6114 120.018 78.9405 119.978 79.2795 119.919V118.443C78.9604 118.473 78.7909 118.483 78.4818 118.483C77.3649 118.483 76.9261 117.974 76.9261 116.708V110.625H79.2795V109.189H76.9261V106.407H75.1312V109.189H73.4359V110.625H75.1312V117.146C75.1312 119.201 76.0586 120.018 78.2724 120.018ZM81.7685 123.708C83.6732 123.708 84.5607 123.01 85.4482 120.597L89.6464 109.189H87.8215L84.8798 118.034H84.7202L81.7685 109.189H79.9137L83.8926 119.949L83.6931 120.587C83.3042 121.823 82.7059 122.272 81.7187 122.272C81.4793 122.272 81.2101 122.262 81.0007 122.222V123.648C81.24 123.688 81.5392 123.708 81.7685 123.708ZM90.839 120.038C91.557 120.038 92.1354 119.45 92.1354 118.742C92.1354 118.024 91.557 117.446 90.839 117.446C90.131 117.446 89.5427 118.024 89.5427 118.742C89.5427 119.45 90.131 120.038 90.839 120.038Z" fill="#3F3F3F"/>
<rect x="17.7241" y="20.1451" width="529.643" height="107.699" rx="23.6053" fill="white" fill-opacity="0.5"/>
<rect x="0.436035" y="0.91333" width="564.219" height="115.861" rx="25.1463" fill="white" fill-opacity="0.95"/>
<path d="M21.4428 56.2205L21.2863 55.7649L21.1628 55.279L21.0352 54.6476L20.972 54.2797L20.9116 53.7843L20.8595 53.1803L20.8101 52.5558L20.7414 51.1133L20.7854 50.2499L20.8252 49.5019L20.9693 47.6105L21.1326 46.5784L21.3138 45.5407L21.6144 43.6178L21.8559 42.2068L21.9479 41.839L22.0412 41.4272L22.1154 41.1568L22.2581 40.6997L22.3953 40.1795L22.4956 39.8282L22.6383 39.4054L22.7715 39.0595L22.884 38.748L23.0514 38.4185L23.2203 38.0535L23.4481 37.7227L23.6595 37.4234C23.6595 37.4234 23.8201 37.2135 23.8764 37.1462C23.9216 37.0927 24.0163 36.9897 24.0657 36.9417C24.1302 36.8813 24.2689 36.7372 24.3362 36.6795C24.3979 36.626 24.5749 36.4942 24.5749 36.4942L24.7644 36.3583L25.0581 36.2293L25.6181 36.1292L26.2412 36.1195L26.4498 36.1634L26.9399 36.2925L27.7881 36.6081L28.6473 37.0542L29.7564 37.7831L31.1261 38.7507L32.6154 39.6964L34.6371 41.0882C34.6371 41.0882 35.6912 41.9172 35.985 42.2521C36.0564 42.3331 36.2005 42.5197 36.2581 42.6103C36.3226 42.7105 36.4956 43.0015 36.4956 43.0015C36.4956 43.0015 36.6616 43.2623 36.6918 43.3597C36.7179 43.4462 36.7865 43.6287 36.7934 43.718C36.8003 43.8113 36.7907 43.998 36.7687 44.0872C36.7495 44.1668 36.6493 44.3919 36.6493 44.3919C36.6493 44.3919 36.5107 44.6664 36.4448 44.7501C36.3761 44.838 36.1854 45.0878 36.1854 45.0878L36.0248 45.2497L34.8746 46.1899L36.1977 45.7727L38.6258 45.0809L39.8912 44.7282L41.6618 44.5443L43.1799 44.4934L44.5648 44.4687L46.1364 44.547L47.7134 44.7899L48.9912 45.0644L51.0323 45.6889L52.3787 46.1721L53.4685 46.6236L54.6544 47.1397L55.541 47.6874L56.5883 48.4807L57.1209 48.957L57.4215 49.2397L57.6904 49.4909L57.884 49.6241L57.6369 49.1492L57.2471 48.7401L56.7873 48.2721L56.0887 47.6585L53.8432 45.9552C53.8268 45.9387 53.8103 45.9209 53.7938 45.9044L53.4795 45.4488C53.4671 45.4241 53.4548 45.4007 53.4424 45.376L53.3587 45.1262C53.334 45.0438 53.3271 44.9588 53.3367 44.8736L53.3463 44.7913C53.367 44.6252 53.4466 44.4729 53.5714 44.363L53.8268 44.1462L54.1164 43.939C54.1164 43.939 56.8916 42.005 57.8566 41.4341C58.1585 41.2556 59.0465 40.7464 59.0465 40.7464L59.8783 40.3525L60.6936 40.0409L61.8603 39.6662L63.0475 39.3793C63.0475 39.3793 64.1412 39.1899 64.5079 39.2133C64.6521 39.2229 64.9361 39.297 65.0708 39.3519C65.2301 39.4164 65.536 39.5097 65.6858 39.5962C65.7554 39.636 65.8983 39.7677 65.9616 39.8336C66.0368 39.9119 66.255 40.1548 66.255 40.1548C66.255 40.1548 66.5145 40.6023 66.5778 40.7629C66.6255 40.8836 66.7427 41.1403 66.7822 41.2652C66.848 41.4752 67.0417 42.0846 67.0417 42.0846L67.2774 42.9041L67.4235 43.7591L67.4943 44.4715L67.6454 45.6423L67.74 46.776L67.8347 47.8713L67.9187 48.6372L67.9381 49.609L67.9789 50.3268L68.0177 51.1202L67.9569 52.6848L67.9187 53.8199L67.735 55.15L67.4467 56.8629L67.1445 58.2135L66.8618 59.564C66.8618 59.564 66.534 60.3148 66.4393 60.5715C66.3497 60.8117 66.203 61.3058 66.0958 61.5392C66.0174 61.7094 65.8118 62.0388 65.7942 62.224C65.7805 62.3572 65.9077 62.7456 65.9077 62.7456C65.9077 62.7456 66.0462 62.9474 66.0889 63.016C66.1346 63.0874 66.2237 63.2315 66.2619 63.307C66.3459 63.473 66.5528 63.9891 66.5528 63.9891L66.6612 64.3707L66.8524 65.1064L66.9978 65.8696L67.132 66.4927L67.305 67.4041L67.3796 68.2536L67.4166 69.2268L67.441 70.0531L67.404 71.1127L67.3796 71.8401L67.2505 72.5511L67.0292 73.6574L66.8085 74.5934C66.8085 74.5934 66.5941 75.3909 66.502 75.649C66.4105 75.907 66.1766 76.4052 66.06 76.6536C65.8707 77.0503 65.2602 78.2197 65.2602 78.2197L64.5957 79.2244C64.5957 79.2244 63.7707 80.4983 63.4552 80.8933C63.3069 81.0788 62.8087 81.5922 62.8087 81.5922L62.213 82.221C62.213 82.221 61.7381 82.7037 61.583 82.8685C61.4361 83.0233 61.1465 83.3393 60.9873 83.4822C60.8034 83.6452 60.205 84.0777 60.205 84.0777L59.192 84.7065L57.4599 85.6562L55.0538 86.6899C55.0538 86.6899 53.2173 87.4045 52.5873 87.5888C51.8448 87.807 50.3185 88.0991 49.5498 88.1956C48.9912 88.2652 47.303 88.3179 47.303 88.3179L45.0589 88.353L41.4381 88.0345L39.1391 87.6164C39.1391 87.6164 37.5346 87.3512 37.0103 87.2152C36.5505 87.0961 35.2081 86.614 35.2081 86.614C35.2081 86.614 33.6736 86.0555 33.1836 85.8198C32.6579 85.5659 31.6697 84.9422 31.1646 84.6501C30.7418 84.4056 29.8744 83.9499 29.464 83.6853C28.996 83.3832 27.6646 82.3689 27.6646 82.3689C27.6646 82.3689 26.4554 81.2694 26.0518 80.9033C25.5289 80.4281 24.4816 79.4784 24.015 78.9499C23.6938 78.5862 22.8538 77.3962 22.8538 77.3962L21.576 75.4815L20.5053 73.5627L20.1416 72.7295L19.8767 72.0501L19.3579 70.0847L19.0834 68.5227L18.8062 66.5284L18.883 64.018L19.1301 62.4217L19.5267 60.6964L20.0936 58.8023L20.7949 57.2486L21.3303 56.4058L21.4428 56.2205Z" fill="black"/>
<path d="M22.918 56.7441L22.7705 56.3121L22.6541 55.8514L22.5337 55.2528L22.4743 54.9041L22.4173 54.4343L22.3681 53.8617L22.3216 53.2697L22.2569 51.902L22.2983 51.0835L22.3358 50.3742L22.4716 48.581L22.6256 47.6025L22.7964 46.6187L23.0797 44.7956L23.3074 43.4578L23.3941 43.109L23.4821 42.7187L23.552 42.4623L23.6866 42.0289L23.8159 41.5358L23.9103 41.2027L24.0449 40.8019L24.1704 40.4739L24.2765 40.1785L24.4343 39.8662L24.5935 39.52L24.8083 39.2064L25.0075 38.9228C25.0075 38.9228 25.1589 38.7237 25.2119 38.6599C25.2547 38.6091 25.3439 38.5115 25.3905 38.466C25.4513 38.4087 25.5819 38.2721 25.6454 38.2175C25.7036 38.1667 25.8705 38.0418 25.8705 38.0418L26.049 37.9129L26.3259 37.7906L26.8538 37.6956L27.4412 37.6865L27.6378 37.7281L28.0997 37.8505L28.8993 38.1498L29.7092 38.5727L30.7546 39.2637L32.0458 40.1811L33.4496 41.0777L35.3553 42.3972C35.3553 42.3972 36.349 43.1833 36.6259 43.5008C36.6931 43.5775 36.829 43.7545 36.8833 43.8404C36.9441 43.9354 37.1072 44.2113 37.1072 44.2113C37.1072 44.2113 37.2637 44.4585 37.2922 44.5509C37.3167 44.6329 37.3814 44.806 37.388 44.8905C37.3944 44.979 37.3853 45.156 37.3646 45.2406C37.3465 45.316 37.2521 45.5295 37.2521 45.5295C37.2521 45.5295 37.1214 45.7898 37.0593 45.8691C36.9946 45.9524 36.8147 46.1893 36.8147 46.1893L36.6634 46.3428L35.5792 47.2342L36.8264 46.8386L39.1152 46.1827L40.308 45.8483L41.9771 45.6739L43.408 45.6258L44.7134 45.6023L46.1949 45.6766L47.6814 45.9069L48.886 46.1671L50.8098 46.7592L52.0791 47.2173L53.1064 47.6454L54.2242 48.1347L55.06 48.6539L56.0472 49.406L56.5492 49.8576L56.8325 50.1257L57.0861 50.3638L57.2685 50.4901L57.0356 50.0398L56.6682 49.652L56.2348 49.2083L55.5762 48.6266L53.4595 47.0117C53.4441 46.996 53.4285 46.9791 53.413 46.9635L53.1167 46.5315C53.105 46.508 53.0934 46.486 53.0818 46.4625L53.0029 46.2257C52.9795 46.1476 52.9731 46.0669 52.9822 45.9862L52.9912 45.9082C53.0106 45.7507 53.0857 45.6063 53.2034 45.5022L53.4441 45.2965L53.7171 45.1C53.7171 45.1 56.3331 43.2665 57.2427 42.7251C57.5273 42.556 58.3644 42.0732 58.3644 42.0732L59.1484 41.6997L59.9169 41.4043L61.0167 41.0491L62.1358 40.7771C62.1358 40.7771 63.167 40.5976 63.5125 40.6197C63.6483 40.6288 63.9158 40.6991 64.043 40.7511C64.1929 40.8123 64.4812 40.9007 64.6223 40.9827C64.6887 41.0204 64.8229 41.1454 64.8824 41.2079C64.9539 41.282 65.1595 41.5123 65.1595 41.5123C65.1595 41.5123 65.404 41.9366 65.4635 42.0888C65.5086 42.2033 65.619 42.4467 65.656 42.5651C65.7186 42.7642 65.9011 43.342 65.9011 43.342L66.1236 44.1189L66.2603 44.9296L66.328 45.605L66.4703 46.715L66.5593 47.7898L66.6489 48.8283L66.7273 49.5544L66.7455 50.4757L66.7843 51.1563L66.8207 51.9085L66.7636 53.392L66.7273 54.4682L66.5543 55.7291L66.2822 57.3531L65.9976 58.6336L65.7312 59.9141C65.7312 59.9141 65.4221 60.6259 65.3325 60.8693C65.2485 61.0969 65.11 61.5654 65.0097 61.7866C64.9357 61.948 64.7414 62.2603 64.7244 62.436C64.7119 62.5622 64.8323 62.9305 64.8323 62.9305C64.8323 62.9305 64.9626 63.1218 65.0028 63.1869C65.0454 63.2546 65.1294 63.3912 65.1658 63.4627C65.2447 63.6202 65.4403 64.1095 65.4403 64.1095L65.5425 64.4712L65.7224 65.1688L65.8597 65.8923L65.9863 66.483L66.1493 67.3471L66.2189 68.1526L66.254 69.0753L66.2772 69.8586L66.2421 70.8633L66.2189 71.5529L66.0973 72.227L65.8892 73.2759L65.681 74.1633C65.681 74.1633 65.4792 74.9194 65.3921 75.1641C65.3055 75.4087 65.0855 75.8811 64.9758 76.1166C64.7972 76.4927 64.2217 77.6014 64.2217 77.6014L63.5952 78.554C63.5952 78.554 62.8176 79.7617 62.5201 80.1366C62.3803 80.3121 61.9107 80.7986 61.9107 80.7986L61.3492 81.3947C61.3492 81.3947 60.9015 81.853 60.7553 82.0091C60.6169 82.1558 60.3439 82.4554 60.1938 82.5908C60.0204 82.7456 59.4563 83.1556 59.4563 83.1556L58.5015 83.7511L56.8687 84.6519L54.6007 85.6317C54.6007 85.6317 52.8696 86.31 52.2757 86.4843C51.5758 86.6911 50.1371 86.9682 49.4126 87.0591C48.886 87.1255 47.2946 87.1751 47.2946 87.1751L45.1792 87.2089L41.7662 86.9068L39.599 86.51C39.599 86.51 38.0866 86.2592 37.5923 86.1301C37.1589 86.0166 35.8936 85.5603 35.8936 85.5603C35.8936 85.5603 34.4471 85.0306 33.9852 84.8068C33.4897 84.566 32.5581 83.9749 32.082 83.6978C31.6835 83.4665 30.8659 83.0346 30.479 82.7832C30.0378 82.4968 28.7828 81.5351 28.7828 81.5351C28.7828 81.5351 27.643 80.4927 27.2626 80.1454C26.7697 79.6953 25.7825 78.7947 25.3426 78.2937C25.0398 77.9489 24.248 76.8206 24.248 76.8206L23.0435 75.0053L22.0343 73.1861L21.6915 72.3962L21.4418 71.752L20.9527 69.8886L20.694 68.4077L20.4326 66.5169L20.5051 64.1368L20.738 62.6234L21.1119 60.9877L21.6462 59.1918L22.3073 57.7188L22.8119 56.9198L22.918 56.7441Z" fill="white"/>
<path d="M37.9339 43.1169C37.8804 43.0977 37.7185 42.9783 37.7185 42.9783L37.5551 42.8465L37.3218 42.6324L36.0206 41.1171L35.6912 40.6093L35.5347 40.2634L35.4441 39.9793L35.3755 39.6759L35.3988 39.3232L35.4688 39.024L35.5512 38.766L35.7186 38.5642L41.4229 33.5901L41.5383 33.5187L41.692 33.4199L41.9363 33.3004L42.068 33.2428L42.1957 33.181L42.8161 33.0054L43.5037 32.842L45.1206 32.455L46.1761 32.2244L47.3016 32.0213C47.3016 32.0213 47.948 31.8758 48.1663 31.8428C48.3145 31.8209 48.6151 31.7989 48.7661 31.8209C48.8443 31.8318 48.9967 31.8895 49.0625 31.9361C49.1257 31.9815 49.2231 32.1022 49.2629 32.1695C49.2904 32.2175 49.3316 32.3218 49.3384 32.3767C49.3453 32.422 49.3357 32.5579 49.3357 32.5579C49.3357 32.5579 49.3192 32.7144 49.3083 32.7679C49.2918 32.8448 49.2122 33.0713 49.2122 33.0713L49.1023 33.3677L48.961 33.7287L47.1424 37.193L47.001 37.4154L46.7923 37.7461L46.452 38.1647L46.0389 38.534L45.7437 38.8167L44.3368 39.8612L41.0839 42.1644L40.6406 42.4265L40.2645 42.6517C40.2645 42.6517 40.0092 42.7971 39.9296 42.8356C39.8129 42.8918 39.4767 43.014 39.4767 43.014L39.231 43.084L38.8645 43.1444L38.5708 43.1704L38.2318 43.1746C38.2304 43.1718 38.0094 43.1444 37.9339 43.1169Z" fill="url(#paint0_linear_58_830)"/>
<path d="M60.0555 67.3352C60.4525 65.7544 59.5078 64.1549 57.9455 63.7625C56.3831 63.3701 54.7947 64.3334 54.3977 65.9141C54.0007 67.4949 54.9454 69.0944 56.5078 69.4868C58.0701 69.8792 59.6584 68.9159 60.0555 67.3352Z" fill="black"/>
<path d="M68.8707 84.2797C68.8739 84.2797 68.8764 84.2702 68.8764 84.259C68.8764 84.2477 68.8739 84.2383 68.8707 84.2383C68.8682 84.2383 68.8657 84.2477 68.8657 84.259C68.8657 84.2702 68.8682 84.2797 68.8707 84.2797Z" fill="url(#paint1_linear_58_830)"/>
<path d="M48.3105 28.0366C48.3105 28.0366 49.8958 27.3023 50.2651 26.8617C50.6548 26.3978 51.1627 24.5764 51.1627 24.5764C51.1627 24.5764 51.8243 26.2853 52.2868 26.7217C52.7686 27.176 54.2811 27.5782 54.2811 27.5782C54.2811 27.5782 52.6903 28.2603 52.3184 28.6405C51.8545 29.114 51.6445 31.3253 51.6445 31.3253C51.6445 31.3253 50.8608 29.1456 50.4201 28.7819" fill="url(#paint2_linear_58_830)"/>
<path d="M48.3105 28.0366C48.3105 28.0366 49.8958 27.3023 50.2651 26.8617C50.6548 26.3978 51.1627 24.5764 51.1627 24.5764C51.1627 24.5764 51.8243 26.2853 52.2868 26.7217C52.7686 27.176 54.2811 27.5782 54.2811 27.5782C54.2811 27.5782 52.6903 28.2603 52.3184 28.6405C51.8545 29.114 51.6445 31.3253 51.6445 31.3253C51.6445 31.3253 50.8608 29.1456 50.4201 28.7819" fill="#8077B5"/>
<path d="M53.5259 30.5031C53.5259 30.5031 53.9047 30.2945 53.9925 30.1682C54.0859 30.0364 54.2067 29.5176 54.2067 29.5176C54.2067 29.5176 54.3645 30.0048 54.4757 30.1284C54.591 30.2574 55.0357 30.4111 55.0357 30.4111C55.0357 30.4111 54.5882 30.5374 54.5004 30.6458C54.3892 30.7803 54.3233 31.4392 54.3233 31.4392C54.3233 31.4392 54.1366 30.8188 54.031 30.7145" fill="#B072A1"/>
<path d="M45.5312 26.2276C45.5312 26.2276 45.8153 26.0518 45.8812 25.9462C45.9513 25.835 46.0418 25.3999 46.0418 25.3999C46.0418 25.3999 46.1599 25.8089 46.2436 25.9132C46.3301 26.0217 46.6636 26.1507 46.6636 26.1507C46.6636 26.1507 46.3287 26.2564 46.2614 26.347C46.1777 26.4595 46.1283 27.0126 46.1283 27.0126C46.1283 27.0126 45.9883 26.4925 45.9087 26.4046" fill="#B072A1"/>
<path d="M50.5405 35.355C50.5405 35.355 50.9454 35.1203 51.0401 34.979C51.1389 34.8307 51.2693 34.2474 51.2693 34.2474C51.2693 34.2474 51.4382 34.7951 51.5562 34.935C51.6797 35.0805 52.1546 35.2535 52.1546 35.2535C52.1546 35.2535 51.677 35.3949 51.5823 35.517C51.4643 35.6694 51.3929 36.4106 51.3929 36.4106C51.3929 36.4106 51.1925 35.7119 51.0799 35.5953" fill="#B072A1"/>
<path d="M19.057 52.9704C19.1037 52.9895 19.2258 53.0705 19.2258 53.0705L19.4207 53.2188L19.5895 53.3931L19.886 53.9147L20.0082 54.2111L20.1207 54.5282C20.1207 54.5282 20.1784 54.7587 20.1976 54.8384C20.2168 54.9166 20.2539 55.0813 20.2635 55.1623C20.2772 55.2666 20.2964 55.478 20.2991 55.5823C20.3033 55.6948 20.3005 56.0338 20.3005 56.0338L20.2388 56.3139C20.2388 56.3139 20.155 56.5733 20.1194 56.6556C20.096 56.7105 20.037 56.8149 20.0109 56.8684C19.9821 56.9246 19.9245 57.0386 19.8984 57.0962C19.875 57.147 19.8339 57.2527 19.8009 57.298C19.7597 57.3529 19.6747 57.4586 19.6266 57.5094C19.5704 57.5684 19.3864 57.7372 19.3864 57.7372L15.1891 61.3429C15.1891 61.3429 14.949 61.4747 14.8666 61.5158C14.7774 61.5597 14.5921 61.6393 14.4988 61.6723C14.4287 61.697 14.2846 61.7313 14.2119 61.7478C14.1323 61.7657 13.9717 61.7931 13.8907 61.8027C13.8084 61.8123 13.6396 61.8205 13.5558 61.8164C13.4625 61.8109 13.2772 61.7752 13.1921 61.7382C13.1221 61.708 12.9437 61.5639 12.9437 61.5639L12.6623 61.3429L12.3946 61.0547C12.3946 61.0547 11.7056 60.2105 11.5643 59.8811C11.5121 59.7617 11.4805 59.5256 11.4709 59.3788C11.4627 59.2566 11.4517 59.0301 11.464 58.9231C11.4778 58.801 11.5327 58.558 11.5711 58.4399C11.6041 58.3425 11.7001 58.1572 11.7523 58.0707C11.8868 57.8484 12.3768 57.2513 12.3768 57.2513L12.8092 56.7888L13.3609 56.3194L14.2915 55.57L14.9448 55.0744L15.5185 54.6517C15.5185 54.6517 15.9866 54.358 16.139 54.2551C16.3009 54.1466 16.7799 53.8021 16.7799 53.8021L17.3317 53.448L17.8657 53.1131L18.2321 52.9566L18.5752 52.9141L18.8498 52.9237C18.8484 52.9196 19.0089 52.9511 19.057 52.9704Z" fill="url(#paint3_linear_58_830)"/>
<path d="M19.057 52.9704C19.1037 52.9895 19.2258 53.0705 19.2258 53.0705L19.4207 53.2188L19.5895 53.3931L19.886 53.9147L20.0082 54.2111L20.1207 54.5282C20.1207 54.5282 20.1784 54.7587 20.1976 54.8384C20.2168 54.9166 20.2539 55.0813 20.2635 55.1623C20.2772 55.2666 20.2964 55.478 20.2991 55.5823C20.3033 55.6948 20.3005 56.0338 20.3005 56.0338L20.2388 56.3139C20.2388 56.3139 20.155 56.5733 20.1194 56.6556C20.096 56.7105 20.037 56.8149 20.0109 56.8684C19.9821 56.9246 19.9245 57.0386 19.8984 57.0962C19.875 57.147 19.8339 57.2527 19.8009 57.298C19.7597 57.3529 19.6747 57.4586 19.6266 57.5094C19.5704 57.5684 19.3864 57.7372 19.3864 57.7372L15.1891 61.3429C15.1891 61.3429 14.949 61.4747 14.8666 61.5158C14.7774 61.5597 14.5921 61.6393 14.4988 61.6723C14.4287 61.697 14.2846 61.7313 14.2119 61.7478C14.1323 61.7657 13.9717 61.7931 13.8907 61.8027C13.8084 61.8123 13.6396 61.8205 13.5558 61.8164C13.4625 61.8109 13.2772 61.7752 13.1921 61.7382C13.1221 61.708 12.9437 61.5639 12.9437 61.5639L12.6623 61.3429L12.3946 61.0547C12.3946 61.0547 11.7056 60.2105 11.5643 59.8811C11.5121 59.7617 11.4805 59.5256 11.4709 59.3788C11.4627 59.2566 11.4517 59.0301 11.464 58.9231C11.4778 58.801 11.5327 58.558 11.5711 58.4399C11.6041 58.3425 11.7001 58.1572 11.7523 58.0707C11.8868 57.8484 12.3768 57.2513 12.3768 57.2513L12.8092 56.7888L13.3609 56.3194L14.2915 55.57L14.9448 55.0744L15.5185 54.6517C15.5185 54.6517 15.9866 54.358 16.139 54.2551C16.3009 54.1466 16.7799 53.8021 16.7799 53.8021L17.3317 53.448L17.8657 53.1131L18.2321 52.9566L18.5752 52.9141L18.8498 52.9237C18.8484 52.9196 19.0089 52.9511 19.057 52.9704Z" fill="url(#paint4_linear_58_830)"/>
<path d="M44.5674 71.7098C44.5385 71.5424 44.194 71.3626 44.0664 71.25C43.9442 71.1415 43.7493 70.878 43.6587 70.7422C43.5709 70.609 43.3266 70.1972 43.3266 70.1972C43.3266 70.1972 43.2182 69.7676 43.2511 69.629C43.2881 69.4684 43.4858 69.1802 43.6176 69.0827C43.7205 69.0072 43.9607 68.8974 44.0883 68.881C44.3478 68.848 44.8749 68.9194 45.1329 68.9619C45.3566 68.999 45.8041 69.0773 46.0237 69.1322C46.2021 69.1774 46.5549 69.2873 46.7291 69.349C46.8623 69.397 47.1299 69.5041 47.2383 69.5947C47.3111 69.6551 47.4319 69.8116 47.4634 69.9022C47.4978 69.9983 47.5197 70.2055 47.5156 70.3084C47.5129 70.4059 47.4964 70.6035 47.4648 70.6955C47.4291 70.8025 47.3276 71.0057 47.2562 71.0921C47.1629 71.2033 46.9323 71.3845 46.8183 71.4765C46.7333 71.5451 46.5713 71.6947 46.4779 71.7524C46.3887 71.8073 46.1911 71.8772 46.0964 71.9212C46.0113 71.961 45.8493 72.0571 45.7697 72.1092C45.7299 72.1353 45.6544 72.1929 45.6256 72.2286C45.5995 72.2616 45.5694 72.3425 45.568 72.3837C45.5652 72.4935 45.6586 72.7008 45.7038 72.801C45.7505 72.9053 45.8356 73.1194 45.8946 73.2182C45.955 73.3185 46.1801 73.5916 46.1801 73.5916L46.6646 74.0624L46.8774 74.2257L47.1272 74.4083L47.4209 74.61C47.4209 74.61 47.6543 74.7198 47.7366 74.7459C47.8396 74.7788 48.1593 74.8365 48.1593 74.8365L48.5437 74.8584L48.9225 74.8406C48.9225 74.8406 49.2079 74.8255 49.3013 74.8035C49.3781 74.7857 49.5978 74.6965 49.5978 74.6965L49.8339 74.6196L50.0535 74.5373L50.2484 74.4151C50.2484 74.4151 50.2964 74.3629 50.4062 74.2751C50.516 74.1872 50.597 74.0966 50.6492 74.0267C50.6821 73.9841 50.7411 73.8949 50.7699 73.8496C50.8234 73.7672 50.9264 73.5984 50.9799 73.5161C51.0156 73.4626 51.0925 73.3583 51.1254 73.3033C51.1515 73.2594 51.1913 73.1661 51.216 73.1222C51.2448 73.0713 51.3121 72.9739 51.3326 72.919C51.3505 72.8751 51.3752 72.7337 51.3752 72.7337L51.4136 72.5416L51.4562 72.3384C51.4562 72.3384 51.5125 72.1971 51.5495 72.1586C51.5824 72.1243 51.6744 72.0927 51.6744 72.0927C51.6744 72.0927 51.7266 72.0667 51.8583 72.0612C51.9901 72.0557 52.1081 72.1065 52.1658 72.1628C52.2015 72.1971 52.2578 72.2808 52.2729 72.3288C52.2934 72.3961 52.3031 72.5361 52.3058 72.6061C52.3072 72.6885 52.3031 72.9341 52.3031 72.9341L52.3085 73.1318L52.2235 73.5532C52.2235 73.5532 52.1727 73.8002 52.1411 73.8743C52.0615 74.0651 51.8021 74.3753 51.6813 74.5359C51.6443 74.5853 51.5784 74.691 51.5386 74.739C51.496 74.7885 51.3985 74.8763 51.3478 74.9175C51.3053 74.9531 51.1749 75.0547 51.1749 75.0547L50.9182 75.2276L50.6793 75.3594L50.5064 75.4253L50.2442 75.52L49.934 75.6394L49.7131 75.6806L49.4866 75.7163C49.4866 75.7163 49.2409 75.7519 49.1599 75.7588C49.0693 75.7671 48.799 75.7794 48.799 75.7794C48.799 75.7794 48.4407 75.7876 48.3364 75.778C48.2088 75.7671 47.8752 75.7012 47.8752 75.7012L47.6062 75.6353L47.2878 75.5515L46.9323 75.4335L46.5466 75.2483L46.1883 74.9888L45.826 74.7212L45.5089 74.4631L45.266 74.2119L45.0107 73.9004L44.8529 73.722L44.5331 74.0116L44.2792 74.201L44.0513 74.3616L43.8345 74.5331L43.5846 74.6704C43.5846 74.6704 43.3788 74.8118 43.2978 74.8461C43.2196 74.879 42.9478 74.9394 42.9478 74.9394C42.9478 74.9394 42.7323 74.986 42.6609 74.9929C42.5552 75.0039 42.2409 75.0163 42.2409 75.0163L41.8964 74.9957L41.5917 74.9284L40.8326 74.7829L40.5047 74.6759C40.5047 74.6759 40.1546 74.4824 40.0476 74.4069C39.9323 74.3259 39.6262 74.0486 39.6262 74.0486L39.1746 73.6355L39.0031 73.479L38.7711 73.1551L38.6476 72.9712L38.5117 72.7817L38.3209 72.4496C38.3209 72.4496 38.1987 72.1998 38.1617 72.1147C38.126 72.031 38.0642 71.8608 38.0437 71.7715C38.0203 71.6686 37.9997 71.4586 37.9929 71.3543C37.9874 71.261 37.9805 71.0743 37.9791 70.981C37.9764 70.9014 37.9736 70.6653 37.9736 70.6653L37.9874 70.2563C37.9874 70.2563 37.9997 70.1012 38.0176 70.0531C38.045 69.9763 38.1054 69.8157 38.185 69.7704C38.2207 69.7498 38.3003 69.7237 38.3415 69.721C38.4485 69.7141 38.6737 69.6771 38.7698 69.7649C38.8233 69.8143 38.9426 69.8884 38.9551 69.9872C38.9605 70.0353 38.9591 70.1808 38.9591 70.1808L38.9798 70.4951C38.9798 70.4951 38.9893 70.5829 38.9949 70.6955C38.9989 70.7682 39.0374 71.0194 39.0374 71.0194L39.0772 71.2459L39.1499 71.5698L39.2213 71.8113L39.3366 72.1614L39.4574 72.3837L39.6838 72.6829L40.0366 73.0522L40.4868 73.3651L40.7352 73.4804L41.2197 73.6835L41.6548 73.7686L41.9801 73.7906L42.3246 73.7508L42.6925 73.6506L42.9835 73.5285L43.3101 73.2896L43.6299 72.9877L43.8633 72.753L44.1103 72.4386L44.3779 72.0708C44.3793 72.0667 44.5839 71.8087 44.5674 71.7098Z" fill="black"/>
<path d="M39.3241 64.0894C39.3159 64.1471 39.2239 64.2377 39.1759 64.2706C39.1278 64.3036 39.0112 64.3461 38.9522 64.3461C38.8822 64.3461 38.7436 64.3118 38.6804 64.283C38.5843 64.2404 38.3194 64.0702 38.3194 64.0702L37.92 63.804C37.92 63.804 37.4671 63.4636 37.2887 63.3716C37.1239 63.2865 36.8164 63.1424 36.6504 63.06C36.4884 62.9804 36.0712 62.8336 35.8996 62.7759C35.7555 62.7265 35.3039 62.6551 35.3039 62.6551L34.7906 62.5563L33.9094 62.43L33.3769 62.3641L32.9102 62.3202L32.5286 62.2228C32.5286 62.2228 32.2953 62.161 32.2157 62.1336C32.11 62.0979 31.9261 62.0059 31.8287 61.951C31.7586 61.9112 31.5459 61.7794 31.5459 61.7794C31.5459 61.7794 31.3812 61.6175 31.3441 61.5502C31.3208 61.509 31.3043 61.413 31.3002 61.3663C31.2947 61.3087 31.3153 61.1837 31.3455 61.1343C31.4073 61.0328 31.6076 60.9147 31.7119 60.8749C31.7971 60.842 31.9782 60.7734 32.0674 60.7514C32.1745 60.7253 32.3859 60.6992 32.4957 60.6827C32.6275 60.6636 32.8951 60.6416 33.0282 60.6526C33.1628 60.6636 33.5567 60.7514 33.5567 60.7514L34.5133 61.0108L35.1762 61.2675L35.9422 61.6312L36.8988 62.1953L37.5755 62.6043L38.2522 63.0765L38.7778 63.4979L39.1484 63.8136C39.1484 63.8136 39.2514 63.8986 39.2775 63.9344C39.3022 63.9673 39.331 64.0496 39.3241 64.0894Z" fill="black"/>
<path d="M87.3955 20.9129H90.9032L95.0974 28.4977H95.2649L99.4591 20.9129H102.967L96.7299 31.6622V38.0581H93.6324V31.6622L87.3955 20.9129ZM107.776 38.3093C106.52 38.3093 105.432 38.033 104.511 37.4805C103.59 36.9279 102.876 36.1549 102.368 35.1615C101.865 34.1681 101.614 33.0072 101.614 31.6789C101.614 30.3506 101.865 29.1869 102.368 28.1879C102.876 27.1889 103.59 26.4131 104.511 25.8606C105.432 25.3081 106.52 25.0318 107.776 25.0318C109.032 25.0318 110.12 25.3081 111.041 25.8606C111.962 26.4131 112.673 27.1889 113.175 28.1879C113.683 29.1869 113.937 30.3506 113.937 31.6789C113.937 33.0072 113.683 34.1681 113.175 35.1615C112.673 36.1549 111.962 36.9279 111.041 37.4805C110.12 38.033 109.032 38.3093 107.776 38.3093ZM107.792 35.8815C108.473 35.8815 109.043 35.6945 109.5 35.3206C109.958 34.9411 110.298 34.4332 110.522 33.7969C110.75 33.1607 110.865 32.4519 110.865 31.6705C110.865 30.8836 110.75 30.172 110.522 29.5357C110.298 28.8939 109.958 28.3832 109.5 28.0037C109.043 27.6242 108.473 27.4345 107.792 27.4345C107.095 27.4345 106.514 27.6242 106.051 28.0037C105.594 28.3832 105.25 28.8939 105.021 29.5357C104.798 30.172 104.687 30.8836 104.687 31.6705C104.687 32.4519 104.798 33.1607 105.021 33.7969C105.25 34.4332 105.594 34.9411 106.051 35.3206C106.514 35.6945 107.095 35.8815 107.792 35.8815ZM124.234 32.65V25.1992H127.264V38.0581H124.326V35.7726H124.192C123.902 36.4926 123.425 37.0814 122.76 37.5391C122.102 37.9967 121.29 38.2255 120.324 38.2255C119.482 38.2255 118.736 38.0386 118.089 37.6646C117.447 37.2851 116.945 36.7354 116.582 36.0154C116.219 35.2899 116.038 34.4136 116.038 33.3867V25.1992H119.069V32.9179C119.069 33.7327 119.292 34.3802 119.738 34.8601C120.185 35.3401 120.771 35.5801 121.496 35.5801C121.943 35.5801 122.375 35.4713 122.794 35.2536C123.213 35.0359 123.556 34.7122 123.824 34.2825C124.097 33.8472 124.234 33.303 124.234 32.65ZM129.909 38.0581V25.1992H132.848V27.3424H132.982C133.216 26.6001 133.618 26.028 134.187 25.6262C134.762 25.2188 135.418 25.015 136.155 25.015C136.322 25.015 136.509 25.0234 136.715 25.0402C136.928 25.0513 137.103 25.0709 137.243 25.0988V27.8865C137.114 27.8419 136.911 27.8028 136.632 27.7693C136.358 27.7303 136.093 27.7107 135.836 27.7107C135.284 27.7107 134.787 27.8307 134.346 28.0707C133.911 28.3051 133.568 28.6316 133.317 29.0502C133.065 29.4688 132.94 29.9515 132.94 30.4985V38.0581H129.909ZM147.191 20.9129V38.0581H144.161V20.9129H147.191ZM155.445 38.3093C154.19 38.3093 153.101 38.033 152.18 37.4805C151.259 36.9279 150.545 36.1549 150.037 35.1615C149.535 34.1681 149.284 33.0072 149.284 31.6789C149.284 30.3506 149.535 29.1869 150.037 28.1879C150.545 27.1889 151.259 26.4131 152.18 25.8606C153.101 25.3081 154.19 25.0318 155.445 25.0318C156.701 25.0318 157.789 25.3081 158.71 25.8606C159.631 26.4131 160.343 27.1889 160.845 28.1879C161.353 29.1869 161.607 30.3506 161.607 31.6789C161.607 33.0072 161.353 34.1681 160.845 35.1615C160.343 36.1549 159.631 36.9279 158.71 37.4805C157.789 38.033 156.701 38.3093 155.445 38.3093ZM155.462 35.8815C156.143 35.8815 156.712 35.6945 157.17 35.3206C157.628 34.9411 157.968 34.4332 158.191 33.7969C158.42 33.1607 158.534 32.4519 158.534 31.6705C158.534 30.8836 158.42 30.172 158.191 29.5357C157.968 28.8939 157.628 28.3832 157.17 28.0037C156.712 27.6242 156.143 27.4345 155.462 27.4345C154.764 27.4345 154.184 27.6242 153.721 28.0037C153.263 28.3832 152.92 28.8939 152.691 29.5357C152.468 30.172 152.356 30.8836 152.356 31.6705C152.356 32.4519 152.468 33.1607 152.691 33.7969C152.92 34.4332 153.263 34.9411 153.721 35.3206C154.184 35.6945 154.764 35.8815 155.462 35.8815ZM174.756 25.1992L170.177 38.0581H166.828L162.249 25.1992H165.48L168.435 34.7513H168.569L171.533 25.1992H174.756ZM181.637 38.3093C180.348 38.3093 179.234 38.0414 178.297 37.5056C177.365 36.9642 176.647 36.1996 176.145 35.2117C175.643 34.2183 175.392 33.0491 175.392 31.704C175.392 30.3813 175.643 29.2204 176.145 28.2214C176.653 27.2168 177.362 26.4354 178.272 25.8773C179.181 25.3136 180.25 25.0318 181.478 25.0318C182.27 25.0318 183.018 25.1602 183.722 25.4169C184.43 25.668 185.055 26.0587 185.597 26.5889C186.144 27.1191 186.573 27.7944 186.886 28.6149C187.199 29.4297 187.355 30.4008 187.355 31.5282V32.4575H176.815V30.4148H184.45C184.444 29.8343 184.319 29.3181 184.073 28.866C183.828 28.4084 183.484 28.0484 183.043 27.7861C182.608 27.5238 182.1 27.3926 181.52 27.3926C180.9 27.3926 180.356 27.5433 179.887 27.8447C179.418 28.1405 179.053 28.5311 178.791 29.0167C178.534 29.4967 178.403 30.0241 178.397 30.5989V32.3821C178.397 33.13 178.534 33.7718 178.807 34.3076C179.081 34.8378 179.463 35.2452 179.954 35.5299C180.445 35.8089 181.02 35.9484 181.679 35.9484C182.12 35.9484 182.519 35.8871 182.876 35.7643C183.233 35.6359 183.543 35.4489 183.805 35.2034C184.068 34.9578 184.266 34.6536 184.4 34.2909L187.229 34.609C187.051 35.3568 186.71 36.0098 186.208 36.5679C185.711 37.1205 185.075 37.5502 184.299 37.8572C183.523 38.1586 182.636 38.3093 181.637 38.3093ZM192.478 20.9129V38.0581H189.447V20.9129H192.478ZM197.006 42.8802C196.593 42.8802 196.211 42.8467 195.859 42.7797C195.513 42.7183 195.237 42.6458 195.03 42.5621L195.734 40.2013C196.175 40.3296 196.568 40.391 196.914 40.3854C197.26 40.3798 197.564 40.271 197.827 40.0589C198.095 39.8524 198.321 39.5064 198.505 39.0208L198.764 38.326L194.101 25.1992H197.316L200.28 34.9104H200.413L203.385 25.1992H206.608L201.46 39.6152C201.22 40.2961 200.902 40.8794 200.506 41.3649C200.109 41.8561 199.624 42.23 199.049 42.4867C198.48 42.749 197.799 42.8802 197.006 42.8802ZM216.641 30.5236V38.0581H213.61V25.1992H216.507V27.3842H216.658C216.953 26.6643 217.425 26.0922 218.072 25.668C218.725 25.2439 219.532 25.0318 220.492 25.0318C221.379 25.0318 222.152 25.2215 222.811 25.6011C223.475 25.9806 223.988 26.5303 224.351 27.2503C224.719 27.9702 224.901 28.8437 224.895 29.8706V38.0581H221.865V30.3394C221.865 29.4799 221.641 28.8074 221.195 28.3219C220.754 27.8363 220.143 27.5935 219.362 27.5935C218.831 27.5935 218.36 27.7107 217.947 27.9451C217.539 28.174 217.218 28.506 216.984 28.9414C216.755 29.3767 216.641 29.9041 216.641 30.5236ZM233.114 38.3093C231.858 38.3093 230.769 38.033 229.849 37.4805C228.928 36.9279 228.213 36.1549 227.705 35.1615C227.203 34.1681 226.952 33.0072 226.952 31.6789C226.952 30.3506 227.203 29.1869 227.705 28.1879C228.213 27.1889 228.928 26.4131 229.849 25.8606C230.769 25.3081 231.858 25.0318 233.114 25.0318C234.369 25.0318 235.458 25.3081 236.378 25.8606C237.299 26.4131 238.011 27.1889 238.513 28.1879C239.021 29.1869 239.275 30.3506 239.275 31.6789C239.275 33.0072 239.021 34.1681 238.513 35.1615C238.011 36.1549 237.299 36.9279 236.378 37.4805C235.458 38.033 234.369 38.3093 233.114 38.3093ZM233.13 35.8815C233.811 35.8815 234.38 35.6945 234.838 35.3206C235.296 34.9411 235.636 34.4332 235.859 33.7969C236.088 33.1607 236.203 32.4519 236.203 31.6705C236.203 30.8836 236.088 30.172 235.859 29.5357C235.636 28.8939 235.296 28.3832 234.838 28.0037C234.38 27.6242 233.811 27.4345 233.13 27.4345C232.433 27.4345 231.852 27.6242 231.389 28.0037C230.931 28.3832 230.588 28.8939 230.359 29.5357C230.136 30.172 230.024 30.8836 230.024 31.6705C230.024 32.4519 230.136 33.1607 230.359 33.7969C230.588 34.4332 230.931 34.9411 231.389 35.3206C231.852 35.6945 232.433 35.8815 233.13 35.8815ZM247.797 25.1992V27.5433H240.405V25.1992H247.797ZM242.23 22.1184H245.26V34.1904C245.26 34.5978 245.322 34.9104 245.444 35.128C245.573 35.3401 245.74 35.4852 245.947 35.5633C246.153 35.6415 246.382 35.6806 246.633 35.6806C246.823 35.6806 246.996 35.6666 247.152 35.6387C247.314 35.6108 247.437 35.5857 247.521 35.5633L248.031 37.9325C247.869 37.9883 247.638 38.0497 247.336 38.1167C247.041 38.1837 246.678 38.2227 246.248 38.2339C245.489 38.2562 244.805 38.1418 244.197 37.8907C243.589 37.6339 243.106 37.2377 242.749 36.7019C242.397 36.1661 242.224 35.4964 242.23 34.6927V22.1184ZM255.414 38.3093C254.125 38.3093 253.012 38.0414 252.074 37.5056C251.142 36.9642 250.425 36.1996 249.923 35.2117C249.42 34.2183 249.169 33.0491 249.169 31.704C249.169 30.3813 249.42 29.2204 249.923 28.2214C250.431 27.2168 251.139 26.4354 252.049 25.8773C252.959 25.3136 254.028 25.0318 255.255 25.0318C256.048 25.0318 256.796 25.1602 257.499 25.4169C258.208 25.668 258.833 26.0587 259.374 26.5889C259.921 27.1191 260.351 27.7944 260.664 28.6149C260.976 29.4297 261.132 30.4008 261.132 31.5282V32.4575H250.592V30.4148H258.227C258.222 29.8343 258.096 29.3181 257.851 28.866C257.605 28.4084 257.262 28.0484 256.821 27.7861C256.386 27.5238 255.878 27.3926 255.297 27.3926C254.678 27.3926 254.134 27.5433 253.665 27.8447C253.196 28.1405 252.83 28.5311 252.568 29.0167C252.311 29.4967 252.18 30.0241 252.175 30.5989V32.3821C252.175 33.13 252.311 33.7718 252.585 34.3076C252.858 34.8378 253.241 35.2452 253.732 35.5299C254.223 35.8089 254.798 35.9484 255.456 35.9484C255.897 35.9484 256.296 35.8871 256.654 35.7643C257.011 35.6359 257.32 35.4489 257.583 35.2034C257.845 34.9578 258.043 34.6536 258.177 34.2909L261.007 34.609C260.828 35.3568 260.488 36.0098 259.985 36.5679C259.489 37.1205 258.852 37.5502 258.077 37.8572C257.301 38.1586 256.414 38.3093 255.414 38.3093Z" fill="#222222"/>
<path opacity="0.5" d="M507.474 39.0552H509.472V33.1891C509.472 31.5776 510.384 30.5738 511.848 30.5738C513.312 30.5738 514.003 31.3934 514.003 33.051V39.0552H515.992V32.5814C515.992 30.1963 514.758 28.861 512.52 28.861C511.065 28.861 510.108 29.5056 509.62 30.5738H509.472V29.0544H507.474V39.0552ZM522.641 39.2486C525.57 39.2486 527.365 37.2871 527.365 34.064V34.0456C527.365 30.8225 525.561 28.861 522.641 28.861C519.713 28.861 517.908 30.8317 517.908 34.0456V34.064C517.908 37.2871 519.704 39.2486 522.641 39.2486ZM522.641 37.5818C520.919 37.5818 519.952 36.2833 519.952 34.064V34.0456C519.952 31.8262 520.919 30.5278 522.641 30.5278C524.354 30.5278 525.33 31.8262 525.33 34.0456V34.064C525.33 36.2741 524.354 37.5818 522.641 37.5818ZM530.911 39.0552H532.946L535.009 31.596H535.166L537.238 39.0552H539.291L542.045 29.0544H540.065L538.278 36.7714H538.122L536.059 29.0544H534.162L532.099 36.7714H531.952L530.156 29.0544H528.149L530.911 39.0552Z" fill="#3F3F3F"/>
<path d="M102.749 55.8425H100.673C100.55 55.2453 100.335 54.7206 100.028 54.2686C99.727 53.8165 99.3586 53.437 98.9233 53.13C98.4936 52.8175 98.0164 52.5831 97.4917 52.4268C96.9671 52.2705 96.4202 52.1924 95.8509 52.1924C94.8128 52.1924 93.8724 52.4547 93.0296 52.9793C92.1925 53.504 91.5255 54.2769 91.0288 55.2983C90.5377 56.3196 90.2921 57.5726 90.2921 59.0572C90.2921 60.5417 90.5377 61.7947 91.0288 62.8161C91.5255 63.8374 92.1925 64.6104 93.0296 65.135C93.8724 65.6596 94.8128 65.9219 95.8509 65.9219C96.4202 65.9219 96.9671 65.8438 97.4917 65.6875C98.0164 65.5313 98.4936 65.2996 98.9233 64.9927C99.3586 64.6801 99.727 64.2978 100.028 63.8458C100.335 63.3881 100.55 62.8635 100.673 62.2719H102.749C102.593 63.1481 102.308 63.9323 101.895 64.6243C101.482 65.3164 100.969 65.9052 100.355 66.3908C99.7409 66.8707 99.0517 67.2363 98.2871 67.4874C97.528 67.7386 96.716 67.8642 95.8509 67.8642C94.3886 67.8642 93.0882 67.507 91.9497 66.7926C90.8111 66.0782 89.9154 65.0624 89.2624 63.7453C88.6094 62.4282 88.2829 60.8655 88.2829 59.0572C88.2829 57.2489 88.6094 55.6862 89.2624 54.369C89.9154 53.0519 90.8111 52.0361 91.9497 51.3217C93.0882 50.6074 94.3886 50.2502 95.8509 50.2502C96.716 50.2502 97.528 50.3757 98.2871 50.6269C99.0517 50.878 99.7409 51.2464 100.355 51.732C100.969 52.2119 101.482 52.798 101.895 53.49C102.308 54.1765 102.593 54.9606 102.749 55.8425ZM109.881 67.8977C108.721 67.8977 107.702 67.6214 106.826 67.0689C105.955 66.5163 105.274 65.7433 104.783 64.7499C104.297 63.7565 104.055 62.5956 104.055 61.2673C104.055 59.9278 104.297 58.7586 104.783 57.7596C105.274 56.7605 105.955 55.9848 106.826 55.4322C107.702 54.8797 108.721 54.6034 109.881 54.6034C111.042 54.6034 112.058 54.8797 112.929 55.4322C113.805 55.9848 114.486 56.7605 114.971 57.7596C115.463 58.7586 115.708 59.9278 115.708 61.2673C115.708 62.5956 115.463 63.7565 114.971 64.7499C114.486 65.7433 113.805 66.5163 112.929 67.0689C112.058 67.6214 111.042 67.8977 109.881 67.8977ZM109.881 66.1229C110.763 66.1229 111.489 65.8968 112.058 65.4448C112.627 64.9927 113.049 64.3983 113.322 63.6616C113.596 62.9249 113.732 62.1268 113.732 61.2673C113.732 60.4078 113.596 59.6069 113.322 58.8646C113.049 58.1223 112.627 57.5224 112.058 57.0647C111.489 56.6071 110.763 56.3782 109.881 56.3782C109 56.3782 108.274 56.6071 107.705 57.0647C107.135 57.5224 106.714 58.1223 106.441 58.8646C106.167 59.6069 106.03 60.4078 106.03 61.2673C106.03 62.1268 106.167 62.9249 106.441 63.6616C106.714 64.3983 107.135 64.9927 107.705 65.4448C108.274 65.8968 109 66.1229 109.881 66.1229ZM125.649 62.3724V54.7709H127.625V67.6298H125.649V65.4531H125.515C125.214 66.1061 124.745 66.6614 124.109 67.1191C123.472 67.5712 122.669 67.7972 121.698 67.7972C120.894 67.7972 120.18 67.6214 119.554 67.2698C118.929 66.9126 118.438 66.3768 118.081 65.6624C117.724 64.9425 117.545 64.0355 117.545 62.9416V54.7709H119.521V62.8077C119.521 63.7453 119.783 64.4932 120.308 65.0513C120.838 65.6094 121.513 65.8885 122.334 65.8885C122.825 65.8885 123.324 65.7629 123.832 65.5117C124.346 65.2606 124.776 64.8755 125.122 64.3564C125.473 63.8374 125.649 63.176 125.649 62.3724ZM132.04 50.4846V67.6298H130.065V50.4846H132.04ZM139.336 67.8977C138.264 67.8977 137.318 67.627 136.498 67.0856C135.677 66.5387 135.036 65.7685 134.572 64.775C134.109 63.776 133.878 62.5956 133.878 61.2338C133.878 59.8832 134.109 58.7111 134.572 57.7177C135.036 56.7243 135.68 55.9569 136.506 55.4155C137.332 54.8741 138.287 54.6034 139.369 54.6034C140.207 54.6034 140.868 54.743 141.353 55.022C141.845 55.2955 142.219 55.608 142.475 55.9597C142.738 56.3057 142.941 56.5903 143.086 56.8136H143.254V50.4846H145.23V67.6298H143.321V65.654H143.086C142.941 65.8885 142.735 66.1843 142.467 66.5414C142.199 66.8931 141.817 67.2084 141.32 67.4874C140.823 67.7609 140.162 67.8977 139.336 67.8977ZM139.604 66.1229C140.396 66.1229 141.066 65.9164 141.613 65.5034C142.16 65.0848 142.576 64.5071 142.86 63.7704C143.145 63.0281 143.287 62.1714 143.287 61.2003C143.287 60.2404 143.148 59.4004 142.869 58.6804C142.59 57.9549 142.177 57.3912 141.63 56.9894C141.083 56.5819 140.407 56.3782 139.604 56.3782C138.767 56.3782 138.069 56.5931 137.511 57.0229C136.958 57.447 136.543 58.0247 136.263 58.7558C135.99 59.4813 135.853 60.2962 135.853 61.2003C135.853 62.1156 135.993 62.9472 136.272 63.6951C136.556 64.4374 136.975 65.029 137.528 65.4699C138.086 65.9052 138.778 66.1229 139.604 66.1229ZM149.919 59.8943V67.6298H147.944V54.7709H149.852V56.7801H150.02C150.321 56.1271 150.779 55.6025 151.393 55.2062C152.007 54.8044 152.799 54.6034 153.77 54.6034C154.641 54.6034 155.403 54.782 156.056 55.1392C156.709 55.4908 157.217 56.0266 157.579 56.7466C157.942 57.461 158.124 58.3651 158.124 59.459V67.6298H156.148V59.593C156.148 58.5828 155.886 57.7958 155.361 57.2321C154.836 56.6629 154.116 56.3782 153.201 56.3782C152.57 56.3782 152.007 56.515 151.51 56.7884C151.019 57.0619 150.631 57.461 150.346 57.9856C150.062 58.5102 149.919 59.1465 149.919 59.8943ZM162.296 50.4846V51.9915C162.296 52.4491 162.213 52.9375 162.045 53.4565C161.883 53.97 161.643 54.4695 161.325 54.9551C161.013 55.435 160.633 55.8536 160.187 56.2108L159.115 55.3402C159.467 54.8378 159.771 54.316 160.028 53.7746C160.29 53.2277 160.421 52.6445 160.421 52.025V50.4846H162.296ZM169.665 54.7709V56.4452H163.001V54.7709H169.665ZM164.944 51.6901H166.919V63.9462C166.919 64.5043 167 64.9229 167.162 65.202C167.329 65.4755 167.542 65.6596 167.798 65.7545C168.061 65.8438 168.337 65.8885 168.627 65.8885C168.845 65.8885 169.023 65.8773 169.163 65.855C169.302 65.8271 169.414 65.8047 169.498 65.788L169.9 67.5628C169.766 67.613 169.579 67.6632 169.339 67.7135C169.099 67.7693 168.795 67.7972 168.426 67.7972C167.868 67.7972 167.321 67.6772 166.785 67.4372C166.255 67.1972 165.814 66.8317 165.463 66.3405C165.117 65.8494 164.944 65.2299 164.944 64.482V51.6901ZM178.886 59.8943V67.6298H176.91V50.4846H178.886V56.7801H179.053C179.355 56.1159 179.807 55.5885 180.409 55.1978C181.018 54.8016 181.827 54.6034 182.837 54.6034C183.713 54.6034 184.481 54.7792 185.139 55.1309C185.798 55.4769 186.309 56.0099 186.671 56.7298C187.04 57.4442 187.224 58.354 187.224 59.459V67.6298H185.248V59.593C185.248 58.5716 184.983 57.7819 184.453 57.2238C183.928 56.6601 183.2 56.3782 182.268 56.3782C181.62 56.3782 181.04 56.515 180.527 56.7884C180.019 57.0619 179.617 57.461 179.321 57.9856C179.031 58.5102 178.886 59.1465 178.886 59.8943ZM195.051 67.8977C193.812 67.8977 192.743 67.6242 191.845 67.0772C190.952 66.5247 190.262 65.7545 189.777 64.7666C189.297 63.7732 189.057 62.6179 189.057 61.3008C189.057 59.9836 189.297 58.8228 189.777 57.8182C190.262 56.808 190.938 56.021 191.803 55.4574C192.673 54.8881 193.689 54.6034 194.85 54.6034C195.52 54.6034 196.181 54.7151 196.834 54.9383C197.487 55.1616 198.082 55.5243 198.617 56.0266C199.153 56.5233 199.58 57.1819 199.898 58.0023C200.216 58.8228 200.375 59.8329 200.375 61.0329V61.8701H190.463V60.1622H198.366C198.366 59.4367 198.221 58.7893 197.931 58.22C197.646 57.6507 197.239 57.2015 196.709 56.8722C196.184 56.5429 195.564 56.3782 194.85 56.3782C194.063 56.3782 193.382 56.5736 192.807 56.9643C192.238 57.3494 191.8 57.8517 191.493 58.4712C191.186 59.0907 191.033 59.7548 191.033 60.4636V61.6022C191.033 62.5733 191.2 63.3965 191.535 64.0718C191.875 64.7415 192.347 65.2522 192.95 65.6038C193.552 65.9498 194.253 66.1229 195.051 66.1229C195.57 66.1229 196.039 66.0503 196.457 65.9052C196.882 65.7545 197.247 65.5313 197.554 65.2355C197.861 64.9341 198.098 64.5601 198.266 64.1137L200.174 64.6494C199.974 65.2969 199.636 65.8661 199.161 66.3573C198.687 66.8428 198.101 67.2223 197.403 67.4958C196.706 67.7637 195.922 67.8977 195.051 67.8977ZM204.178 50.4846V67.6298H202.202V50.4846H204.178ZM206.618 72.4518V54.7709H208.526V56.8136H208.761C208.906 56.5903 209.107 56.3057 209.364 55.9597C209.626 55.608 210 55.2955 210.485 55.022C210.977 54.743 211.641 54.6034 212.478 54.6034C213.561 54.6034 214.515 54.8741 215.341 55.4155C216.167 55.9569 216.812 56.7243 217.275 57.7177C217.738 58.7111 217.97 59.8832 217.97 61.2338C217.97 62.5956 217.738 63.776 217.275 64.775C216.812 65.7685 216.17 66.5387 215.349 67.0856C214.529 67.627 213.583 67.8977 212.511 67.8977C211.685 67.8977 211.024 67.7609 210.527 67.4874C210.031 67.2084 209.648 66.8931 209.38 66.5414C209.112 66.1843 208.906 65.8885 208.761 65.654H208.593V72.4518H206.618ZM208.56 61.2003C208.56 62.1714 208.702 63.0281 208.987 63.7704C209.272 64.5071 209.687 65.0848 210.234 65.5034C210.781 65.9164 211.451 66.1229 212.243 66.1229C213.069 66.1229 213.759 65.9052 214.311 65.4699C214.869 65.029 215.288 64.4374 215.567 63.6951C215.852 62.9472 215.994 62.1156 215.994 61.2003C215.994 60.2962 215.854 59.4813 215.575 58.7558C215.302 58.0247 214.886 57.447 214.328 57.0229C213.775 56.5931 213.081 56.3782 212.243 56.3782C211.44 56.3782 210.764 56.5819 210.218 56.9894C209.671 57.3912 209.258 57.9549 208.979 58.6804C208.699 59.4004 208.56 60.2404 208.56 61.2003ZM225.524 67.6298V50.4846H227.5V56.8136H227.667C227.813 56.5903 228.013 56.3057 228.27 55.9597C228.533 55.608 228.906 55.2955 229.392 55.022C229.883 54.743 230.547 54.6034 231.384 54.6034C232.467 54.6034 233.422 54.8741 234.248 55.4155C235.074 55.9569 235.718 56.7243 236.181 57.7177C236.645 58.7111 236.876 59.8832 236.876 61.2338C236.876 62.5956 236.645 63.776 236.181 64.775C235.718 65.7685 235.076 66.5387 234.256 67.0856C233.436 67.627 232.49 67.8977 231.418 67.8977C230.592 67.8977 229.931 67.7609 229.434 67.4874C228.937 67.2084 228.555 66.8931 228.287 66.5414C228.019 66.1843 227.813 65.8885 227.667 65.654H227.433V67.6298H225.524ZM227.467 61.2003C227.467 62.1714 227.609 63.0281 227.893 63.7704C228.178 64.5071 228.594 65.0848 229.141 65.5034C229.688 65.9164 230.358 66.1229 231.15 66.1229C231.976 66.1229 232.665 65.9052 233.218 65.4699C233.776 65.029 234.195 64.4374 234.474 63.6951C234.758 62.9472 234.901 62.1156 234.901 61.2003C234.901 60.2962 234.761 59.4813 234.482 58.7558C234.209 58.0247 233.793 57.447 233.235 57.0229C232.682 56.5931 231.987 56.3782 231.15 56.3782C230.346 56.3782 229.671 56.5819 229.124 56.9894C228.577 57.3912 228.164 57.9549 227.885 58.6804C227.606 59.4004 227.467 60.2404 227.467 61.2003ZM246.823 62.3724V54.7709H248.799V67.6298H246.823V65.4531H246.69C246.388 66.1061 245.919 66.6614 245.283 67.1191C244.647 67.5712 243.843 67.7972 242.872 67.7972C242.068 67.7972 241.354 67.6214 240.729 67.2698C240.104 66.9126 239.613 66.3768 239.256 65.6624C238.898 64.9425 238.72 64.0355 238.72 62.9416V54.7709H240.695V62.8077C240.695 63.7453 240.958 64.4932 241.482 65.0513C242.013 65.6094 242.688 65.8885 243.508 65.8885C243.999 65.8885 244.499 65.7629 245.007 65.5117C245.52 65.2606 245.95 64.8755 246.296 64.3564C246.648 63.8374 246.823 63.176 246.823 62.3724ZM256.831 54.7709V56.4452H250.168V54.7709H256.831ZM252.11 51.6901H254.085V63.9462C254.085 64.5043 254.166 64.9229 254.328 65.202C254.496 65.4755 254.708 65.6596 254.965 65.7545C255.227 65.8438 255.503 65.8885 255.793 65.8885C256.011 65.8885 256.19 65.8773 256.329 65.855C256.469 65.8271 256.58 65.8047 256.664 65.788L257.066 67.5628C256.932 67.613 256.745 67.6632 256.505 67.7135C256.265 67.7693 255.961 67.7972 255.592 67.7972C255.034 67.7972 254.487 67.6772 253.952 67.4372C253.421 67.1972 252.98 66.8317 252.629 66.3405C252.283 65.8494 252.11 65.2299 252.11 64.482V51.6901ZM269.802 54.7709V56.4452H262.871V54.7709H269.802ZM264.947 67.6298V52.9961C264.947 52.2594 265.12 51.6455 265.466 51.1543C265.812 50.6632 266.261 50.2948 266.814 50.0493C267.366 49.8037 267.95 49.6809 268.563 49.6809C269.049 49.6809 269.445 49.72 269.752 49.7981C270.059 49.8762 270.288 49.9488 270.439 50.0158L269.869 51.7236C269.769 51.6901 269.629 51.6482 269.451 51.598C269.278 51.5478 269.049 51.5227 268.764 51.5227C268.111 51.5227 267.64 51.6873 267.35 52.0166C267.065 52.3459 266.923 52.8286 266.923 53.4649V67.6298H264.947ZM276.087 67.8977C274.926 67.8977 273.908 67.6214 273.031 67.0689C272.161 66.5163 271.48 65.7433 270.989 64.7499C270.503 63.7565 270.26 62.5956 270.26 61.2673C270.26 59.9278 270.503 58.7586 270.989 57.7596C271.48 56.7605 272.161 55.9848 273.031 55.4322C273.908 54.8797 274.926 54.6034 276.087 54.6034C277.248 54.6034 278.264 54.8797 279.134 55.4322C280.011 55.9848 280.691 56.7605 281.177 57.7596C281.668 58.7586 281.914 59.9278 281.914 61.2673C281.914 62.5956 281.668 63.7565 281.177 64.7499C280.691 65.7433 280.011 66.5163 279.134 67.0689C278.264 67.6214 277.248 67.8977 276.087 67.8977ZM276.087 66.1229C276.969 66.1229 277.694 65.8968 278.264 65.4448C278.833 64.9927 279.254 64.3983 279.528 63.6616C279.801 62.9249 279.938 62.1268 279.938 61.2673C279.938 60.4078 279.801 59.6069 279.528 58.8646C279.254 58.1223 278.833 57.5224 278.264 57.0647C277.694 56.6071 276.969 56.3782 276.087 56.3782C275.205 56.3782 274.48 56.6071 273.91 57.0647C273.341 57.5224 272.92 58.1223 272.646 58.8646C272.373 59.6069 272.236 60.4078 272.236 61.2673C272.236 62.1268 272.373 62.9249 272.646 63.6616C272.92 64.3983 273.341 64.9927 273.91 65.4448C274.48 65.8968 275.205 66.1229 276.087 66.1229ZM283.751 67.6298V54.7709H285.66V56.7131H285.794C286.028 56.0769 286.452 55.5606 287.066 55.1643C287.68 54.7681 288.372 54.57 289.142 54.57C289.287 54.57 289.469 54.5727 289.686 54.5783C289.904 54.5839 290.069 54.5923 290.18 54.6034V56.6126C290.113 56.5959 289.96 56.5708 289.72 56.5373C289.486 56.4982 289.237 56.4787 288.975 56.4787C288.35 56.4787 287.792 56.6099 287.301 56.8722C286.815 57.1289 286.43 57.4861 286.145 57.9437C285.866 58.3958 285.727 58.9121 285.727 59.4925V67.6298H283.751ZM296.143 72.7197C295.188 72.7197 294.368 72.597 293.681 72.3514C292.995 72.1114 292.423 71.7933 291.965 71.397C291.513 71.0063 291.153 70.5878 290.885 70.1413L292.459 69.0362C292.638 69.2706 292.864 69.5385 293.137 69.8399C293.411 70.1468 293.785 70.4119 294.259 70.6352C294.739 70.864 295.367 70.9784 296.143 70.9784C297.181 70.9784 298.037 70.7273 298.713 70.225C299.388 69.7227 299.726 68.9357 299.726 67.8642V65.2522H299.558C299.413 65.4866 299.207 65.7768 298.939 66.1229C298.676 66.4633 298.297 66.7675 297.8 67.0354C297.309 67.2977 296.645 67.4288 295.808 67.4288C294.77 67.4288 293.838 67.1833 293.012 66.6921C292.191 66.201 291.541 65.4866 291.061 64.549C290.587 63.6114 290.349 62.4728 290.349 61.1333C290.349 59.8162 290.581 58.6693 291.044 57.6926C291.508 56.7103 292.152 55.9513 292.978 55.4155C293.804 54.8741 294.759 54.6034 295.841 54.6034C296.678 54.6034 297.343 54.743 297.834 55.022C298.33 55.2955 298.71 55.608 298.972 55.9597C299.24 56.3057 299.447 56.5903 299.592 56.8136H299.793V54.7709H301.701V67.9981C301.701 69.1032 301.45 70.0017 300.948 70.6938C300.451 71.3914 299.782 71.9021 298.939 72.2258C298.102 72.5551 297.17 72.7197 296.143 72.7197ZM296.076 65.654C296.868 65.654 297.538 65.4727 298.085 65.1099C298.632 64.7471 299.048 64.2253 299.332 63.5444C299.617 62.8635 299.759 62.0486 299.759 61.0999C299.759 60.1734 299.62 59.3558 299.341 58.647C299.062 57.9382 298.649 57.3828 298.102 56.981C297.555 56.5792 296.879 56.3782 296.076 56.3782C295.239 56.3782 294.541 56.5903 293.983 57.0145C293.43 57.4386 293.014 58.0079 292.735 58.7223C292.462 59.4367 292.325 60.2292 292.325 61.0999C292.325 61.9928 292.465 62.7826 292.744 63.469C293.028 64.1499 293.447 64.6857 294 65.0764C294.558 65.4615 295.25 65.654 296.076 65.654ZM309.531 67.8977C308.292 67.8977 307.223 67.6242 306.324 67.0772C305.431 66.5247 304.742 65.7545 304.256 64.7666C303.777 63.7732 303.537 62.6179 303.537 61.3008C303.537 59.9836 303.777 58.8228 304.256 57.8182C304.742 56.808 305.417 56.021 306.282 55.4574C307.153 54.8881 308.169 54.6034 309.33 54.6034C309.999 54.6034 310.661 54.7151 311.314 54.9383C311.967 55.1616 312.561 55.5243 313.097 56.0266C313.633 56.5233 314.06 57.1819 314.378 58.0023C314.696 58.8228 314.855 59.8329 314.855 61.0329V61.8701H304.943V60.1622H312.846C312.846 59.4367 312.701 58.7893 312.41 58.22C312.126 57.6507 311.718 57.2015 311.188 56.8722C310.664 56.5429 310.044 56.3782 309.33 56.3782C308.543 56.3782 307.862 56.5736 307.287 56.9643C306.718 57.3494 306.28 57.8517 305.973 58.4712C305.666 59.0907 305.512 59.7548 305.512 60.4636V61.6022C305.512 62.5733 305.68 63.3965 306.015 64.0718C306.355 64.7415 306.827 65.2522 307.429 65.6038C308.032 65.9498 308.733 66.1229 309.531 66.1229C310.05 66.1229 310.519 66.0503 310.937 65.9052C311.361 65.7545 311.727 65.5313 312.034 65.2355C312.341 64.9341 312.578 64.5601 312.745 64.1137L314.654 64.6494C314.453 65.2969 314.116 65.8661 313.641 66.3573C313.167 66.8428 312.581 67.2223 311.883 67.4958C311.185 67.7637 310.401 67.8977 309.531 67.8977ZM322.274 54.7709V56.4452H315.61V54.7709H322.274ZM317.552 51.6901H319.528V63.9462C319.528 64.5043 319.609 64.9229 319.771 65.202C319.938 65.4755 320.15 65.6596 320.407 65.7545C320.669 65.8438 320.946 65.8885 321.236 65.8885C321.454 65.8885 321.632 65.8773 321.772 65.855C321.911 65.8271 322.023 65.8047 322.107 65.788L322.508 67.5628C322.374 67.613 322.187 67.6632 321.948 67.7135C321.708 67.7693 321.403 67.7972 321.035 67.7972C320.477 67.7972 319.93 67.6772 319.394 67.4372C318.864 67.1972 318.423 66.8317 318.071 66.3405C317.725 65.8494 317.552 65.2299 317.552 64.482V51.6901ZM329.659 54.7709V56.4452H322.996V54.7709H329.659ZM324.938 51.6901H326.914V63.9462C326.914 64.5043 326.995 64.9229 327.156 65.202C327.324 65.4755 327.536 65.6596 327.793 65.7545C328.055 65.8438 328.331 65.8885 328.621 65.8885C328.839 65.8885 329.018 65.8773 329.157 65.855C329.297 65.8271 329.408 65.8047 329.492 65.788L329.894 67.5628C329.76 67.613 329.573 67.6632 329.333 67.7135C329.093 67.7693 328.789 67.7972 328.42 67.7972C327.862 67.7972 327.315 67.6772 326.78 67.4372C326.249 67.1972 325.809 66.8317 325.457 66.3405C325.111 65.8494 324.938 65.2299 324.938 64.482V51.6901ZM331.453 67.6298V54.7709H333.428V67.6298H331.453ZM332.457 52.6277C332.072 52.6277 331.74 52.4966 331.461 52.2343C331.188 51.9719 331.051 51.6566 331.051 51.2883C331.051 50.9199 331.188 50.6046 331.461 50.3423C331.74 50.08 332.072 49.9488 332.457 49.9488C332.842 49.9488 333.172 50.08 333.445 50.3423C333.724 50.6046 333.864 50.9199 333.864 51.2883C333.864 51.6566 333.724 51.9719 333.445 52.2343C333.172 52.4966 332.842 52.6277 332.457 52.6277ZM337.844 59.8943V67.6298H335.868V54.7709H337.777V56.7801H337.944C338.246 56.1271 338.704 55.6025 339.317 55.2062C339.931 54.8044 340.724 54.6034 341.695 54.6034C342.566 54.6034 343.327 54.782 343.98 55.1392C344.633 55.4908 345.141 56.0266 345.504 56.7466C345.867 57.461 346.048 58.3651 346.048 59.459V67.6298H344.073V59.593C344.073 58.5828 343.81 57.7958 343.286 57.2321C342.761 56.6629 342.041 56.3782 341.126 56.3782C340.495 56.3782 339.931 56.515 339.435 56.7884C338.944 57.0619 338.556 57.461 338.271 57.9856C337.986 58.5102 337.844 59.1465 337.844 59.8943ZM353.67 72.7197C352.716 72.7197 351.895 72.597 351.209 72.3514C350.523 72.1114 349.95 71.7933 349.493 71.397C349.041 71.0063 348.681 70.5878 348.413 70.1413L349.987 69.0362C350.165 69.2706 350.391 69.5385 350.665 69.8399C350.938 70.1468 351.312 70.4119 351.787 70.6352C352.267 70.864 352.894 70.9784 353.67 70.9784C354.708 70.9784 355.565 70.7273 356.24 70.225C356.916 69.7227 357.253 68.9357 357.253 67.8642V65.2522H357.086C356.941 65.4866 356.734 65.7768 356.466 66.1229C356.204 66.4633 355.825 66.7675 355.328 67.0354C354.837 67.2977 354.173 67.4288 353.335 67.4288C352.297 67.4288 351.365 67.1833 350.539 66.6921C349.719 66.201 349.069 65.4866 348.589 64.549C348.114 63.6114 347.877 62.4728 347.877 61.1333C347.877 59.8162 348.109 58.6693 348.572 57.6926C349.035 56.7103 349.68 55.9513 350.506 55.4155C351.332 54.8741 352.286 54.6034 353.369 54.6034C354.206 54.6034 354.87 54.743 355.361 55.022C355.858 55.2955 356.238 55.608 356.5 55.9597C356.768 56.3057 356.974 56.5903 357.119 56.8136H357.32V54.7709H359.229V67.9981C359.229 69.1032 358.978 70.0017 358.476 70.6938C357.979 71.3914 357.309 71.9021 356.466 72.2258C355.629 72.5551 354.697 72.7197 353.67 72.7197ZM353.603 65.654C354.396 65.654 355.066 65.4727 355.612 65.1099C356.159 64.7471 356.575 64.2253 356.86 63.5444C357.144 62.8635 357.287 62.0486 357.287 61.0999C357.287 60.1734 357.147 59.3558 356.868 58.647C356.589 57.9382 356.176 57.3828 355.629 56.981C355.082 56.5792 354.407 56.3782 353.603 56.3782C352.766 56.3782 352.068 56.5903 351.51 57.0145C350.958 57.4386 350.542 58.0079 350.263 58.7223C349.99 59.4367 349.853 60.2292 349.853 61.0999C349.853 61.9928 349.992 62.7826 350.271 63.469C350.556 64.1499 350.975 64.6857 351.527 65.0764C352.085 65.4615 352.777 65.654 353.603 65.654ZM370.903 67.9311C370.088 67.9311 369.348 67.7777 368.684 67.4707C368.02 67.1582 367.492 66.7089 367.102 66.1229C366.711 65.5313 366.516 64.8169 366.516 63.9797C366.516 63.243 366.661 62.6458 366.951 62.1882C367.241 61.7249 367.629 61.3622 368.115 61.0999C368.6 60.8375 369.136 60.6422 369.722 60.5138C370.314 60.3799 370.908 60.2739 371.505 60.1957C372.287 60.0953 372.92 60.0199 373.406 59.9697C373.897 59.9139 374.254 59.8218 374.477 59.6934C374.706 59.5651 374.82 59.3418 374.82 59.0237V58.9567C374.82 58.1307 374.594 57.4889 374.142 57.0312C373.696 56.5736 373.018 56.3448 372.108 56.3448C371.165 56.3448 370.425 56.5513 369.89 56.9643C369.354 57.3773 368.977 57.8182 368.759 58.287L366.884 57.6172C367.219 56.8359 367.665 56.2275 368.224 55.7922C368.787 55.3513 369.401 55.0444 370.065 54.8713C370.735 54.6927 371.394 54.6034 372.041 54.6034C372.454 54.6034 372.928 54.6537 373.464 54.7541C374.006 54.849 374.527 55.0471 375.03 55.3485C375.538 55.6499 375.959 56.1048 376.294 56.7131C376.629 57.3214 376.796 58.1363 376.796 59.1576V67.6298H374.82V65.8885H374.72C374.586 66.1675 374.363 66.4661 374.05 66.7842C373.738 67.1023 373.322 67.373 372.803 67.5963C372.284 67.8195 371.65 67.9311 370.903 67.9311ZM371.204 66.1563C371.985 66.1563 372.644 66.0029 373.18 65.6959C373.721 65.3889 374.128 64.9927 374.402 64.5071C374.681 64.0216 374.82 63.5109 374.82 62.9751V61.1668C374.737 61.2673 374.553 61.3594 374.268 61.4431C373.989 61.5212 373.665 61.591 373.297 61.6524C372.934 61.7082 372.58 61.7584 372.234 61.8031C371.893 61.8421 371.617 61.8756 371.405 61.9035C370.891 61.9705 370.411 62.0793 369.965 62.23C369.524 62.3751 369.167 62.5956 368.893 62.8914C368.625 63.1816 368.491 63.5779 368.491 64.0802C368.491 64.7666 368.745 65.2857 369.253 65.6373C369.767 65.9833 370.417 66.1563 371.204 66.1563ZM381.199 59.8943V67.6298H379.224V54.7709H381.132V56.7801H381.3C381.601 56.1271 382.059 55.6025 382.673 55.2062C383.287 54.8044 384.079 54.6034 385.05 54.6034C385.921 54.6034 386.683 54.782 387.336 55.1392C387.989 55.4908 388.497 56.0266 388.859 56.7466C389.222 57.461 389.403 58.3651 389.403 59.459V67.6298H387.428V59.593C387.428 58.5828 387.165 57.7958 386.641 57.2321C386.116 56.6629 385.396 56.3782 384.481 56.3782C383.85 56.3782 383.287 56.515 382.79 56.7884C382.299 57.0619 381.911 57.461 381.626 57.9856C381.342 58.5102 381.199 59.1465 381.199 59.8943ZM400.943 57.6507L399.169 58.153C399.057 57.8572 398.892 57.5698 398.675 57.2907C398.463 57.0061 398.172 56.7717 397.804 56.5875C397.436 56.4034 396.964 56.3113 396.389 56.3113C395.602 56.3113 394.947 56.4926 394.422 56.8554C393.903 57.2126 393.643 57.6675 393.643 58.22C393.643 58.7111 393.822 59.099 394.179 59.3837C394.536 59.6683 395.094 59.9055 395.853 60.0953L397.762 60.5641C398.912 60.8431 399.769 61.2701 400.332 61.8449C400.896 62.4142 401.178 63.1481 401.178 64.0467C401.178 64.7834 400.966 65.442 400.542 66.0224C400.123 66.6028 399.537 67.0605 398.784 67.3954C398.03 67.7302 397.154 67.8977 396.155 67.8977C394.843 67.8977 393.758 67.613 392.898 67.0437C392.039 66.4745 391.495 65.6429 391.266 64.549L393.141 64.0802C393.32 64.7722 393.657 65.2913 394.154 65.6373C394.656 65.9833 395.312 66.1563 396.121 66.1563C397.042 66.1563 397.773 65.961 398.315 65.5703C398.862 65.1741 399.135 64.6997 399.135 64.1471C399.135 63.7007 398.979 63.3267 398.666 63.0253C398.354 62.7184 397.874 62.4896 397.226 62.3389L395.083 61.8366C393.906 61.5575 393.041 61.125 392.488 60.539C391.941 59.9474 391.668 59.2079 391.668 58.3205C391.668 57.5949 391.871 56.9531 392.279 56.395C392.692 55.8369 393.253 55.3988 393.961 55.0806C394.676 54.7625 395.485 54.6034 396.389 54.6034C397.662 54.6034 398.661 54.8825 399.386 55.4406C400.117 55.9987 400.636 56.7354 400.943 57.6507ZM405.886 67.6298L401.969 54.7709H404.045L406.824 64.616H406.958L409.704 54.7709H411.814L414.526 64.5825H414.66L417.439 54.7709H419.516L415.598 67.6298H413.655L410.842 57.7512H410.642L407.829 67.6298H405.886ZM425.903 67.8977C424.664 67.8977 423.595 67.6242 422.696 67.0772C421.803 66.5247 421.114 65.7545 420.629 64.7666C420.149 63.7732 419.909 62.6179 419.909 61.3008C419.909 59.9836 420.149 58.8228 420.629 57.8182C421.114 56.808 421.789 56.021 422.654 55.4574C423.525 54.8881 424.541 54.6034 425.702 54.6034C426.372 54.6034 427.033 54.7151 427.686 54.9383C428.339 55.1616 428.933 55.5243 429.469 56.0266C430.005 56.5233 430.432 57.1819 430.75 58.0023C431.068 58.8228 431.227 59.8329 431.227 61.0329V61.8701H421.315V60.1622H429.218C429.218 59.4367 429.073 58.7893 428.783 58.22C428.498 57.6507 428.09 57.2015 427.56 56.8722C427.036 56.5429 426.416 56.3782 425.702 56.3782C424.915 56.3782 424.234 56.5736 423.659 56.9643C423.09 57.3494 422.652 57.8517 422.345 58.4712C422.038 59.0907 421.884 59.7548 421.884 60.4636V61.6022C421.884 62.5733 422.052 63.3965 422.387 64.0718C422.727 64.7415 423.199 65.2522 423.801 65.6038C424.404 65.9498 425.105 66.1229 425.903 66.1229C426.422 66.1229 426.891 66.0503 427.309 65.9052C427.733 65.7545 428.099 65.5313 428.406 65.2355C428.713 64.9341 428.95 64.5601 429.117 64.1137L431.026 64.6494C430.825 65.2969 430.488 65.8661 430.013 66.3573C429.539 66.8428 428.953 67.2223 428.255 67.4958C427.557 67.7637 426.773 67.8977 425.903 67.8977ZM433.054 67.6298V54.7709H434.963V56.7131H435.096C435.331 56.0769 435.755 55.5606 436.369 55.1643C436.983 54.7681 437.675 54.57 438.445 54.57C438.59 54.57 438.772 54.5727 438.989 54.5783C439.207 54.5839 439.372 54.5923 439.483 54.6034V56.6126C439.416 56.5959 439.263 56.5708 439.023 56.5373C438.788 56.4982 438.54 56.4787 438.278 56.4787C437.653 56.4787 437.095 56.6099 436.603 56.8722C436.118 57.1289 435.733 57.4861 435.448 57.9437C435.169 58.3958 435.03 58.9121 435.03 59.4925V67.6298H433.054ZM449.755 57.6507L447.98 58.153C447.868 57.8572 447.704 57.5698 447.486 57.2907C447.274 57.0061 446.984 56.7717 446.615 56.5875C446.247 56.4034 445.776 56.3113 445.201 56.3113C444.414 56.3113 443.758 56.4926 443.233 56.8554C442.714 57.2126 442.455 57.6675 442.455 58.22C442.455 58.7111 442.633 59.099 442.991 59.3837C443.348 59.6683 443.906 59.9055 444.665 60.0953L446.574 60.5641C447.723 60.8431 448.58 61.2701 449.144 61.8449C449.707 62.4142 449.989 63.1481 449.989 64.0467C449.989 64.7834 449.777 65.442 449.353 66.0224C448.934 66.6028 448.348 67.0605 447.595 67.3954C446.842 67.7302 445.965 67.8977 444.966 67.8977C443.655 67.8977 442.569 67.613 441.71 67.0437C440.85 66.4745 440.306 65.6429 440.077 64.549L441.952 64.0802C442.131 64.7722 442.469 65.2913 442.965 65.6373C443.468 65.9833 444.124 66.1563 444.933 66.1563C445.854 66.1563 446.585 65.961 447.126 65.5703C447.673 65.1741 447.947 64.6997 447.947 64.1471C447.947 63.7007 447.79 63.3267 447.478 63.0253C447.165 62.7184 446.685 62.4896 446.038 62.3389L443.895 61.8366C442.717 61.5575 441.852 61.125 441.299 60.539C440.753 59.9474 440.479 59.2079 440.479 58.3205C440.479 57.5949 440.683 56.9531 441.09 56.395C441.503 55.8369 442.064 55.3988 442.773 55.0806C443.487 54.7625 444.297 54.6034 445.201 54.6034C446.473 54.6034 447.472 54.8825 448.198 55.4406C448.929 55.9987 449.448 56.7354 449.755 57.6507ZM454.363 62.8077V62.7072C454.374 61.6412 454.486 60.7929 454.698 60.1622C454.91 59.5316 455.211 59.0209 455.602 58.6302C455.993 58.2395 456.462 57.8796 457.008 57.5503C457.338 57.3494 457.634 57.1122 457.896 56.8387C458.158 56.5596 458.365 56.2387 458.515 55.8759C458.672 55.5132 458.75 55.1113 458.75 54.6704C458.75 54.1235 458.621 53.6491 458.365 53.2472C458.108 52.8454 457.765 52.5356 457.335 52.318C456.905 52.1003 456.428 51.9915 455.903 51.9915C455.446 51.9915 455.005 52.0864 454.581 52.2761C454.157 52.4659 453.802 52.7645 453.518 53.1719C453.233 53.5793 453.068 54.1123 453.024 54.7709H450.914C450.959 53.8221 451.204 53.01 451.651 52.3347C452.103 51.6594 452.697 51.1432 453.434 50.786C454.176 50.4288 454.999 50.2502 455.903 50.2502C456.886 50.2502 457.74 50.4455 458.465 50.8362C459.196 51.2269 459.76 51.7627 460.156 52.4436C460.558 53.1244 460.759 53.9002 460.759 54.7709C460.759 55.3848 460.664 55.9401 460.474 56.4368C460.29 56.9336 460.022 57.3773 459.671 57.7679C459.325 58.1586 458.906 58.5046 458.415 58.806C457.924 59.113 457.53 59.4367 457.235 59.7771C456.939 60.112 456.724 60.5111 456.59 60.9743C456.456 61.4375 456.383 62.0152 456.372 62.7072V62.8077H454.363ZM455.435 67.7637C455.022 67.7637 454.667 67.6158 454.371 67.32C454.076 67.0242 453.928 66.6698 453.928 66.2568C453.928 65.8438 454.076 65.4894 454.371 65.1936C454.667 64.8978 455.022 64.7499 455.435 64.7499C455.848 64.7499 456.202 64.8978 456.498 65.1936C456.794 65.4894 456.942 65.8438 456.942 66.2568C456.942 66.5303 456.872 66.7814 456.732 67.0103C456.598 67.2391 456.417 67.4233 456.188 67.5628C455.965 67.6967 455.714 67.7637 455.435 67.7637ZM481.869 50.4846V67.6298H479.86L470.517 54.1681H470.35V67.6298H468.274V50.4846H470.283L479.659 63.9797H479.827V50.4846H481.869ZM489.801 67.8977C488.64 67.8977 487.622 67.6214 486.745 67.0689C485.875 66.5163 485.194 65.7433 484.703 64.7499C484.217 63.7565 483.974 62.5956 483.974 61.2673C483.974 59.9278 484.217 58.7586 484.703 57.7596C485.194 56.7605 485.875 55.9848 486.745 55.4322C487.622 54.8797 488.64 54.6034 489.801 54.6034C490.962 54.6034 491.978 54.8797 492.848 55.4322C493.725 55.9848 494.406 56.7605 494.891 57.7596C495.382 58.7586 495.628 59.9278 495.628 61.2673C495.628 62.5956 495.382 63.7565 494.891 64.7499C494.406 65.7433 493.725 66.5163 492.848 67.0689C491.978 67.6214 490.962 67.8977 489.801 67.8977ZM489.801 66.1229C490.683 66.1229 491.409 65.8968 491.978 65.4448C492.547 64.9927 492.968 64.3983 493.242 63.6616C493.515 62.9249 493.652 62.1268 493.652 61.2673C493.652 60.4078 493.515 59.6069 493.242 58.8646C492.968 58.1223 492.547 57.5224 491.978 57.0647C491.409 56.6071 490.683 56.3782 489.801 56.3782C488.919 56.3782 488.194 56.6071 487.625 57.0647C487.055 57.5224 486.634 58.1223 486.36 58.8646C486.087 59.6069 485.95 60.4078 485.95 61.2673C485.95 62.1268 486.087 62.9249 486.36 63.6616C486.634 64.3983 487.055 64.9927 487.625 65.4448C488.194 65.8968 488.919 66.1229 489.801 66.1229ZM97.7931 86.6507L96.0183 87.153C95.9067 86.8572 95.7421 86.5698 95.5244 86.2907C95.3123 86.0061 95.0221 85.7717 94.6537 85.5875C94.2854 85.4034 93.8138 85.3113 93.2389 85.3113C92.452 85.3113 91.7962 85.4926 91.2716 85.8554C90.7525 86.2126 90.493 86.6675 90.493 87.22C90.493 87.7111 90.6716 88.099 91.0288 88.3837C91.386 88.6683 91.9441 88.9055 92.7031 89.0953L94.6119 89.5641C95.7616 89.8431 96.6183 90.2701 97.182 90.8449C97.7457 91.4142 98.0275 92.1481 98.0275 93.0467C98.0275 93.7834 97.8154 94.442 97.3913 95.0224C96.9727 95.6028 96.3867 96.0605 95.6332 96.3954C94.8798 96.7302 94.0035 96.8977 93.0045 96.8977C91.693 96.8977 90.6074 96.613 89.7479 96.0437C88.8885 95.4745 88.3443 94.6429 88.1155 93.549L89.9907 93.0802C90.1693 93.7722 90.507 94.2913 91.0037 94.6373C91.506 94.9833 92.1618 95.1563 92.971 95.1563C93.8919 95.1563 94.623 94.961 95.1644 94.5703C95.7114 94.1741 95.9848 93.6997 95.9848 93.1471C95.9848 92.7007 95.8286 92.3267 95.516 92.0253C95.2035 91.7184 94.7235 91.4896 94.0761 91.3389L91.933 90.8366C90.7553 90.5575 89.8903 90.125 89.3377 89.539C88.7908 88.9474 88.5173 88.2079 88.5173 87.3205C88.5173 86.5949 88.721 85.9531 89.1284 85.395C89.5414 84.8369 90.1023 84.3988 90.8111 84.0806C91.5255 83.7625 92.3348 83.6034 93.2389 83.6034C94.5114 83.6034 95.5104 83.8825 96.236 84.4406C96.9671 84.9987 97.4862 85.7354 97.7931 86.6507ZM102.736 96.6298L98.8182 83.7709H100.894L103.674 93.616H103.808L106.554 83.7709H108.663L111.376 93.5825H111.51L114.289 83.7709H116.365L112.447 96.6298H110.505L107.692 86.7512H107.491L104.678 96.6298H102.736ZM122.752 96.8977C121.513 96.8977 120.445 96.6242 119.546 96.0772C118.653 95.5247 117.964 94.7545 117.478 93.7666C116.998 92.7732 116.758 91.6179 116.758 90.3008C116.758 88.9836 116.998 87.8228 117.478 86.8182C117.964 85.808 118.639 85.021 119.504 84.4574C120.375 83.8881 121.391 83.6034 122.551 83.6034C123.221 83.6034 123.883 83.7151 124.536 83.9383C125.189 84.1616 125.783 84.5243 126.319 85.0266C126.855 85.5233 127.281 86.1819 127.6 87.0023C127.918 87.8228 128.077 88.8329 128.077 90.0329V90.8701H118.165V89.1622H126.068C126.068 88.4367 125.922 87.7893 125.632 87.22C125.348 86.6507 124.94 86.2015 124.41 85.8722C123.885 85.5429 123.266 85.3782 122.551 85.3782C121.765 85.3782 121.084 85.5736 120.509 85.9643C119.94 86.3494 119.501 86.8517 119.194 87.4712C118.887 88.0907 118.734 88.7548 118.734 89.4636V90.6022C118.734 91.5733 118.901 92.3965 119.236 93.0718C119.577 93.7415 120.048 94.2522 120.651 94.6038C121.254 94.9498 121.954 95.1229 122.752 95.1229C123.271 95.1229 123.74 95.0503 124.159 94.9052C124.583 94.7545 124.949 94.5313 125.256 94.2355C125.563 93.9341 125.8 93.5601 125.967 93.1137L127.876 93.6494C127.675 94.2969 127.337 94.8661 126.863 95.3573C126.389 95.8428 125.802 96.2223 125.105 96.4958C124.407 96.7637 123.623 96.8977 122.752 96.8977ZM133.687 96.9311C132.873 96.9311 132.133 96.7777 131.469 96.4707C130.805 96.1582 130.277 95.7089 129.887 95.1229C129.496 94.5313 129.301 93.8169 129.301 92.9797C129.301 92.243 129.446 91.6458 129.736 91.1882C130.026 90.7249 130.414 90.3622 130.9 90.0999C131.385 89.8375 131.921 89.6422 132.507 89.5138C133.099 89.3799 133.693 89.2739 134.29 89.1957C135.072 89.0953 135.705 89.0199 136.191 88.9697C136.682 88.9139 137.039 88.8218 137.262 88.6934C137.491 88.5651 137.605 88.3418 137.605 88.0237V87.9567C137.605 87.1307 137.379 86.4889 136.927 86.0312C136.481 85.5736 135.803 85.3448 134.893 85.3448C133.95 85.3448 133.21 85.5513 132.675 85.9643C132.139 86.3773 131.762 86.8182 131.544 87.287L129.669 86.6172C130.004 85.8359 130.45 85.2275 131.009 84.7922C131.572 84.3513 132.186 84.0444 132.85 83.8713C133.52 83.6927 134.179 83.6034 134.826 83.6034C135.239 83.6034 135.713 83.6537 136.249 83.7541C136.791 83.849 137.312 84.0471 137.815 84.3485C138.323 84.6499 138.744 85.1048 139.079 85.7131C139.414 86.3214 139.581 87.1363 139.581 88.1576V96.6298H137.605V94.8885H137.505C137.371 95.1675 137.148 95.4661 136.835 95.7842C136.523 96.1023 136.107 96.373 135.588 96.5963C135.069 96.8195 134.435 96.9311 133.687 96.9311ZM133.989 95.1563C134.77 95.1563 135.429 95.0029 135.965 94.6959C136.506 94.3889 136.913 93.9927 137.187 93.5071C137.466 93.0216 137.605 92.5109 137.605 91.9751V90.1668C137.522 90.2673 137.338 90.3594 137.053 90.4431C136.774 90.5212 136.45 90.591 136.082 90.6524C135.719 90.7082 135.365 90.7584 135.019 90.8031C134.678 90.8421 134.402 90.8756 134.19 90.9035C133.676 90.9705 133.196 91.0793 132.75 91.23C132.309 91.3751 131.952 91.5956 131.678 91.8914C131.41 92.1816 131.276 92.5779 131.276 93.0802C131.276 93.7666 131.53 94.2857 132.038 94.6373C132.552 94.9833 133.202 95.1563 133.989 95.1563ZM147.601 83.7709V85.4452H140.937V83.7709H147.601ZM142.879 80.6901H144.855V92.9462C144.855 93.5043 144.936 93.9229 145.098 94.202C145.265 94.4755 145.477 94.6596 145.734 94.7545C145.996 94.8438 146.272 94.8885 146.563 94.8885C146.78 94.8885 146.959 94.8773 147.098 94.855C147.238 94.8271 147.35 94.8047 147.433 94.788L147.835 96.5628C147.701 96.613 147.514 96.6632 147.274 96.7135C147.034 96.7693 146.73 96.7972 146.362 96.7972C145.804 96.7972 145.257 96.6772 144.721 96.4372C144.191 96.1972 143.75 95.8317 143.398 95.3405C143.052 94.8494 142.879 94.2299 142.879 93.482V80.6901ZM152.341 94.2857L152.207 95.1898C152.112 95.8261 151.967 96.507 151.772 97.2325C151.582 97.9581 151.384 98.6418 151.177 99.2836C150.971 99.9254 150.8 100.436 150.666 100.816H149.16C149.232 100.458 149.327 99.9868 149.444 99.4008C149.561 98.8148 149.679 98.159 149.796 97.4334C149.919 96.7135 150.019 95.9768 150.097 95.2233L150.198 94.2857H152.341ZM163.188 96.6298L159.27 83.7709H161.346L164.125 93.616H164.259L167.005 83.7709H169.115L171.827 93.5825H171.961L174.74 83.7709H176.817L172.899 96.6298H170.956L168.144 86.7512H167.943L165.13 96.6298H163.188ZM183.204 96.8977C181.965 96.8977 180.896 96.6242 179.997 96.0772C179.104 95.5247 178.415 94.7545 177.93 93.7666C177.45 92.7732 177.21 91.6179 177.21 90.3008C177.21 88.9836 177.45 87.8228 177.93 86.8182C178.415 85.808 179.091 85.021 179.956 84.4574C180.826 83.8881 181.842 83.6034 183.003 83.6034C183.673 83.6034 184.334 83.7151 184.987 83.9383C185.64 84.1616 186.234 84.5243 186.77 85.0266C187.306 85.5233 187.733 86.1819 188.051 87.0023C188.369 87.8228 188.528 88.8329 188.528 90.0329V90.8701H178.616V89.1622H186.519C186.519 88.4367 186.374 87.7893 186.084 87.22C185.799 86.6507 185.392 86.2015 184.861 85.8722C184.337 85.5429 183.717 85.3782 183.003 85.3782C182.216 85.3782 181.535 85.5736 180.96 85.9643C180.391 86.3494 179.953 86.8517 179.646 87.4712C179.339 88.0907 179.185 88.7548 179.185 89.4636V90.6022C179.185 91.5733 179.353 92.3965 179.688 93.0718C180.028 93.7415 180.5 94.2522 181.103 94.6038C181.705 94.9498 182.406 95.1229 183.204 95.1229C183.723 95.1229 184.192 95.0503 184.61 94.9052C185.034 94.7545 185.4 94.5313 185.707 94.2355C186.014 93.9341 186.251 93.5601 186.419 93.1137L188.327 93.6494C188.126 94.2969 187.789 94.8661 187.314 95.3573C186.84 95.8428 186.254 96.2223 185.556 96.4958C184.859 96.7637 184.074 96.8977 183.204 96.8977ZM200.997 101.72C200.043 101.72 199.222 101.597 198.536 101.351C197.849 101.111 197.277 100.793 196.82 100.397C196.367 100.006 196.007 99.5878 195.74 99.1413L197.313 98.0362C197.492 98.2706 197.718 98.5385 197.992 98.8399C198.265 99.1468 198.639 99.4119 199.113 99.6352C199.593 99.864 200.221 99.9784 200.997 99.9784C202.035 99.9784 202.892 99.7273 203.567 99.225C204.242 98.7227 204.58 97.9357 204.58 96.8642V94.2522H204.413C204.268 94.4866 204.061 94.7768 203.793 95.1229C203.531 95.4633 203.151 95.7675 202.655 96.0354C202.163 96.2977 201.499 96.4288 200.662 96.4288C199.624 96.4288 198.692 96.1833 197.866 95.6921C197.046 95.201 196.395 94.4866 195.915 93.549C195.441 92.6114 195.204 91.4728 195.204 90.1333C195.204 88.8162 195.435 87.6693 195.899 86.6926C196.362 85.7103 197.006 84.9513 197.832 84.4155C198.658 83.8741 199.613 83.6034 200.696 83.6034C201.533 83.6034 202.197 83.743 202.688 84.022C203.185 84.2955 203.564 84.608 203.827 84.9597C204.094 85.3057 204.301 85.5903 204.446 85.8136H204.647V83.7709H206.556V96.9981C206.556 98.1032 206.305 99.0017 205.802 99.6938C205.306 100.391 204.636 100.902 203.793 101.226C202.956 101.555 202.024 101.72 200.997 101.72ZM200.93 94.654C201.723 94.654 202.392 94.4727 202.939 94.1099C203.486 93.7471 203.902 93.2253 204.187 92.5444C204.471 91.8635 204.614 91.0486 204.614 90.0999C204.614 89.1734 204.474 88.3558 204.195 87.647C203.916 86.9382 203.503 86.3828 202.956 85.981C202.409 85.5792 201.734 85.3782 200.93 85.3782C200.093 85.3782 199.395 85.5903 198.837 86.0145C198.285 86.4386 197.869 87.0079 197.59 87.7223C197.316 88.4367 197.179 89.2292 197.179 90.0999C197.179 90.9928 197.319 91.7826 197.598 92.469C197.883 93.1499 198.301 93.6857 198.854 94.0764C199.412 94.4615 200.104 94.654 200.93 94.654ZM214.218 96.8977C213.057 96.8977 212.038 96.6214 211.162 96.0689C210.291 95.5163 209.61 94.7433 209.119 93.7499C208.634 92.7565 208.391 91.5956 208.391 90.2673C208.391 88.9278 208.634 87.7586 209.119 86.7596C209.61 85.7605 210.291 84.9848 211.162 84.4322C212.038 83.8797 213.057 83.6034 214.218 83.6034C215.378 83.6034 216.394 83.8797 217.265 84.4322C218.141 84.9848 218.822 85.7605 219.307 86.7596C219.799 87.7586 220.044 88.9278 220.044 90.2673C220.044 91.5956 219.799 92.7565 219.307 93.7499C218.822 94.7433 218.141 95.5163 217.265 96.0689C216.394 96.6214 215.378 96.8977 214.218 96.8977ZM214.218 95.1229C215.099 95.1229 215.825 94.8968 216.394 94.4448C216.963 93.9927 217.385 93.3983 217.658 92.6616C217.932 91.9249 218.068 91.1268 218.068 90.2673C218.068 89.4078 217.932 88.6069 217.658 87.8646C217.385 87.1223 216.963 86.5224 216.394 86.0647C215.825 85.6071 215.099 85.3782 214.218 85.3782C213.336 85.3782 212.61 85.6071 212.041 86.0647C211.472 86.5224 211.05 87.1223 210.777 87.8646C210.503 88.6069 210.367 89.4078 210.367 90.2673C210.367 91.1268 210.503 91.9249 210.777 92.6616C211.05 93.3983 211.472 93.9927 212.041 94.4448C212.61 94.8968 213.336 95.1229 214.218 95.1229ZM227.474 83.7709V85.4452H220.81V83.7709H227.474ZM222.752 80.6901H224.728V92.9462C224.728 93.5043 224.809 93.9229 224.971 94.202C225.138 94.4755 225.35 94.6596 225.607 94.7545C225.869 94.8438 226.145 94.8885 226.436 94.8885C226.653 94.8885 226.832 94.8773 226.971 94.855C227.111 94.8271 227.222 94.8047 227.306 94.788L227.708 96.5628C227.574 96.613 227.387 96.6632 227.147 96.7135C226.907 96.7693 226.603 96.7972 226.235 96.7972C225.677 96.7972 225.13 96.6772 224.594 96.4372C224.064 96.1972 223.623 95.8317 223.271 95.3405C222.925 94.8494 222.752 94.2299 222.752 93.482V80.6901ZM235.991 101.452C235.656 101.452 235.358 101.424 235.095 101.368C234.833 101.318 234.651 101.268 234.551 101.217L235.053 99.4761C235.533 99.5989 235.957 99.6436 236.326 99.6101C236.694 99.5766 237.021 99.4119 237.305 99.1161C237.596 98.8259 237.861 98.3543 238.101 97.7013L238.469 96.6967L233.714 83.7709H235.857L239.407 94.0178H239.541L243.09 83.7709H245.233L239.775 98.505C239.529 99.1692 239.225 99.7189 238.862 100.154C238.5 100.595 238.078 100.922 237.598 101.134C237.124 101.346 236.588 101.452 235.991 101.452ZM251.426 96.8977C250.265 96.8977 249.246 96.6214 248.37 96.0689C247.5 95.5163 246.819 94.7433 246.327 93.7499C245.842 92.7565 245.599 91.5956 245.599 90.2673C245.599 88.9278 245.842 87.7586 246.327 86.7596C246.819 85.7605 247.5 84.9848 248.37 84.4322C249.246 83.8797 250.265 83.6034 251.426 83.6034C252.587 83.6034 253.602 83.8797 254.473 84.4322C255.349 84.9848 256.03 85.7605 256.516 86.7596C257.007 87.7586 257.253 88.9278 257.253 90.2673C257.253 91.5956 257.007 92.7565 256.516 93.7499C256.03 94.7433 255.349 95.5163 254.473 96.0689C253.602 96.6214 252.587 96.8977 251.426 96.8977ZM251.426 95.1229C252.308 95.1229 253.033 94.8968 253.602 94.4448C254.172 93.9927 254.593 93.3983 254.867 92.6616C255.14 91.9249 255.277 91.1268 255.277 90.2673C255.277 89.4078 255.14 88.6069 254.867 87.8646C254.593 87.1223 254.172 86.5224 253.602 86.0647C253.033 85.6071 252.308 85.3782 251.426 85.3782C250.544 85.3782 249.818 85.6071 249.249 86.0647C248.68 86.5224 248.259 87.1223 247.985 87.8646C247.712 88.6069 247.575 89.4078 247.575 90.2673C247.575 91.1268 247.712 91.9249 247.985 92.6616C248.259 93.3983 248.68 93.9927 249.249 94.4448C249.818 94.8968 250.544 95.1229 251.426 95.1229ZM267.193 91.3724V83.7709H269.169V96.6298H267.193V94.4531H267.059C266.758 95.1061 266.289 95.6614 265.653 96.1191C265.017 96.5712 264.213 96.7972 263.242 96.7972C262.438 96.7972 261.724 96.6214 261.099 96.2698C260.474 95.9126 259.983 95.3768 259.625 94.6624C259.268 93.9425 259.09 93.0355 259.09 91.9416V83.7709H261.065V91.8077C261.065 92.7453 261.328 93.4932 261.852 94.0513C262.383 94.6094 263.058 94.8885 263.878 94.8885C264.369 94.8885 264.869 94.7629 265.377 94.5117C265.89 94.2606 266.32 93.8755 266.666 93.3564C267.018 92.8374 267.193 92.176 267.193 91.3724ZM282.285 96.8977C281.079 96.8977 280.041 96.613 279.17 96.0437C278.3 95.4745 277.63 94.6903 277.161 93.6913C276.692 92.6923 276.458 91.5509 276.458 90.2673C276.458 88.9613 276.698 87.8088 277.178 86.8098C277.663 85.8052 278.339 85.021 279.204 84.4574C280.075 83.8881 281.09 83.6034 282.251 83.6034C283.155 83.6034 283.97 83.7709 284.696 84.1057C285.421 84.4406 286.016 84.9094 286.479 85.5122C286.942 86.1149 287.229 86.8182 287.341 87.6218H285.365C285.215 87.0358 284.88 86.5168 284.361 86.0647C283.847 85.6071 283.155 85.3782 282.285 85.3782C281.514 85.3782 280.839 85.5792 280.259 85.981C279.684 86.3773 279.235 86.9382 278.911 87.6637C278.593 88.3837 278.434 89.2292 278.434 90.2003C278.434 91.1938 278.59 92.0588 278.902 92.7955C279.221 93.5322 279.667 94.1043 280.242 94.5117C280.822 94.9191 281.503 95.1229 282.285 95.1229C282.798 95.1229 283.264 95.0336 283.683 94.855C284.101 94.6764 284.456 94.4196 284.746 94.0848C285.036 93.7499 285.243 93.3481 285.365 92.8793H287.341C287.229 93.6383 286.953 94.322 286.512 94.9303C286.077 95.5331 285.499 96.013 284.779 96.3702C284.065 96.7218 283.233 96.8977 282.285 96.8977ZM294.275 96.8977C293.114 96.8977 292.095 96.6214 291.219 96.0689C290.348 95.5163 289.667 94.7433 289.176 93.7499C288.691 92.7565 288.448 91.5956 288.448 90.2673C288.448 88.9278 288.691 87.7586 289.176 86.7596C289.667 85.7605 290.348 84.9848 291.219 84.4322C292.095 83.8797 293.114 83.6034 294.275 83.6034C295.435 83.6034 296.451 83.8797 297.322 84.4322C298.198 84.9848 298.879 85.7605 299.365 86.7596C299.856 87.7586 300.101 88.9278 300.101 90.2673C300.101 91.5956 299.856 92.7565 299.365 93.7499C298.879 94.7433 298.198 95.5163 297.322 96.0689C296.451 96.6214 295.435 96.8977 294.275 96.8977ZM294.275 95.1229C295.156 95.1229 295.882 94.8968 296.451 94.4448C297.02 93.9927 297.442 93.3983 297.715 92.6616C297.989 91.9249 298.125 91.1268 298.125 90.2673C298.125 89.4078 297.989 88.6069 297.715 87.8646C297.442 87.1223 297.02 86.5224 296.451 86.0647C295.882 85.6071 295.156 85.3782 294.275 85.3782C293.393 85.3782 292.667 85.6071 292.098 86.0647C291.529 86.5224 291.107 87.1223 290.834 87.8646C290.56 88.6069 290.424 89.4078 290.424 90.2673C290.424 91.1268 290.56 91.9249 290.834 92.6616C291.107 93.3983 291.529 93.9927 292.098 94.4448C292.667 94.8968 293.393 95.1229 294.275 95.1229ZM311.993 83.7709L307.238 96.6298H305.228L300.473 83.7709H302.616L306.166 94.0178H306.3L309.85 83.7709H311.993ZM318.353 96.8977C317.114 96.8977 316.045 96.6242 315.146 96.0772C314.253 95.5247 313.564 94.7545 313.079 93.7666C312.599 92.7732 312.359 91.6179 312.359 90.3008C312.359 88.9836 312.599 87.8228 313.079 86.8182C313.564 85.808 314.239 85.021 315.105 84.4574C315.975 83.8881 316.991 83.6034 318.152 83.6034C318.822 83.6034 319.483 83.7151 320.136 83.9383C320.789 84.1616 321.383 84.5243 321.919 85.0266C322.455 85.5233 322.882 86.1819 323.2 87.0023C323.518 87.8228 323.677 88.8329 323.677 90.0329V90.8701H313.765V89.1622H321.668C321.668 88.4367 321.523 87.7893 321.233 87.22C320.948 86.6507 320.541 86.2015 320.01 85.8722C319.486 85.5429 318.866 85.3782 318.152 85.3782C317.365 85.3782 316.684 85.5736 316.109 85.9643C315.54 86.3494 315.102 86.8517 314.795 87.4712C314.488 88.0907 314.334 88.7548 314.334 89.4636V90.6022C314.334 91.5733 314.502 92.3965 314.837 93.0718C315.177 93.7415 315.649 94.2522 316.251 94.6038C316.854 94.9498 317.555 95.1229 318.353 95.1229C318.872 95.1229 319.341 95.0503 319.759 94.9052C320.183 94.7545 320.549 94.5313 320.856 94.2355C321.163 93.9341 321.4 93.5601 321.567 93.1137L323.476 93.6494C323.275 94.2969 322.938 94.8661 322.463 95.3573C321.989 95.8428 321.403 96.2223 320.705 96.4958C320.008 96.7637 319.223 96.8977 318.353 96.8977ZM325.504 96.6298V83.7709H327.413V85.7131H327.546C327.781 85.0769 328.205 84.5606 328.819 84.1643C329.433 83.7681 330.125 83.57 330.895 83.57C331.04 83.57 331.222 83.5727 331.439 83.5783C331.657 83.5839 331.822 83.5923 331.933 83.6034V85.6126C331.866 85.5959 331.713 85.5708 331.473 85.5373C331.238 85.4982 330.99 85.4787 330.728 85.4787C330.103 85.4787 329.545 85.6099 329.053 85.8722C328.568 86.1289 328.183 86.4861 327.898 86.9437C327.619 87.3958 327.48 87.9121 327.48 88.4925V96.6298H325.504ZM338.096 96.8977C336.857 96.8977 335.789 96.6242 334.89 96.0772C333.997 95.5247 333.308 94.7545 332.822 93.7666C332.342 92.7732 332.102 91.6179 332.102 90.3008C332.102 88.9836 332.342 87.8228 332.822 86.8182C333.308 85.808 333.983 85.021 334.848 84.4574C335.719 83.8881 336.735 83.6034 337.896 83.6034C338.565 83.6034 339.227 83.7151 339.88 83.9383C340.533 84.1616 341.127 84.5243 341.663 85.0266C342.199 85.5233 342.626 86.1819 342.944 87.0023C343.262 87.8228 343.421 88.8329 343.421 90.0329V90.8701H333.509V89.1622H341.412C341.412 88.4367 341.267 87.7893 340.976 87.22C340.692 86.6507 340.284 86.2015 339.754 85.8722C339.229 85.5429 338.61 85.3782 337.896 85.3782C337.109 85.3782 336.428 85.5736 335.853 85.9643C335.284 86.3494 334.845 86.8517 334.538 87.4712C334.232 88.0907 334.078 88.7548 334.078 89.4636V90.6022C334.078 91.5733 334.245 92.3965 334.58 93.0718C334.921 93.7415 335.392 94.2522 335.995 94.6038C336.598 94.9498 337.298 95.1229 338.096 95.1229C338.615 95.1229 339.084 95.0503 339.503 94.9052C339.927 94.7545 340.293 94.5313 340.6 94.2355C340.907 93.9341 341.144 93.5601 341.311 93.1137L343.22 93.6494C343.019 94.2969 342.681 94.8661 342.207 95.3573C341.733 95.8428 341.147 96.2223 340.449 96.4958C339.751 96.7637 338.967 96.8977 338.096 96.8977ZM350.103 96.8977C349.032 96.8977 348.086 96.627 347.265 96.0856C346.445 95.5387 345.803 94.7685 345.34 93.775C344.876 92.776 344.645 91.5956 344.645 90.2338C344.645 88.8832 344.876 87.7111 345.34 86.7177C345.803 85.7243 346.447 84.9569 347.273 84.4155C348.099 83.8741 349.054 83.6034 350.137 83.6034C350.974 83.6034 351.635 83.743 352.121 84.022C352.612 84.2955 352.986 84.608 353.242 84.9597C353.505 85.3057 353.708 85.5903 353.854 85.8136H354.021V79.4846H355.997V96.6298H354.088V94.654H353.854C353.708 94.8885 353.502 95.1843 353.234 95.5414C352.966 95.8931 352.584 96.2084 352.087 96.4874C351.59 96.7609 350.929 96.8977 350.103 96.8977ZM350.371 95.1229C351.164 95.1229 351.833 94.9164 352.38 94.5034C352.927 94.0848 353.343 93.5071 353.628 92.7704C353.912 92.0281 354.055 91.1714 354.055 90.2003C354.055 89.2404 353.915 88.4004 353.636 87.6804C353.357 86.9549 352.944 86.3912 352.397 85.9894C351.85 85.5819 351.175 85.3782 350.371 85.3782C349.534 85.3782 348.836 85.5931 348.278 86.0229C347.726 86.447 347.31 87.0247 347.031 87.7558C346.757 88.4813 346.62 89.2962 346.62 90.2003C346.62 91.1156 346.76 91.9472 347.039 92.6951C347.324 93.4374 347.742 94.029 348.295 94.4699C348.853 94.9052 349.545 95.1229 350.371 95.1229ZM366.774 79.4846L366.607 91.8077H364.665L364.497 79.4846H366.774ZM365.636 96.7637C365.223 96.7637 364.869 96.6158 364.573 96.32C364.277 96.0242 364.129 95.6698 364.129 95.2568C364.129 94.8438 364.277 94.4894 364.573 94.1936C364.869 93.8978 365.223 93.7499 365.636 93.7499C366.049 93.7499 366.403 93.8978 366.699 94.1936C366.995 94.4894 367.143 94.8438 367.143 95.2568C367.143 95.5303 367.073 95.7814 366.934 96.0103C366.8 96.2391 366.618 96.4233 366.389 96.5628C366.166 96.6967 365.915 96.7637 365.636 96.7637Z" fill="#3F3F3F"/>
<defs>
<linearGradient id="paint0_linear_58_830" x1="38.3593" y1="40.1112" x2="46.9924" y2="33.6495" gradientUnits="userSpaceOnUse">
<stop stop-color="#7B79B6"/>
<stop offset="1" stop-color="#B071A1"/>
</linearGradient>
<linearGradient id="paint1_linear_58_830" x1="68.8657" y1="84.2596" x2="68.8758" y2="84.2596" gradientUnits="userSpaceOnUse">
<stop/>
<stop offset="1" stop-color="white"/>
</linearGradient>
<linearGradient id="paint2_linear_58_830" x1="48.3103" y1="27.9507" x2="54.2809" y2="27.9507" gradientUnits="userSpaceOnUse">
<stop/>
<stop offset="1" stop-color="white"/>
</linearGradient>
<linearGradient id="paint3_linear_58_830" x1="12.3263" y1="60.4044" x2="19.669" y2="54.4603" gradientUnits="userSpaceOnUse">
<stop/>
<stop offset="1" stop-color="white"/>
</linearGradient>
<linearGradient id="paint4_linear_58_830" x1="12.3737" y1="60.3324" x2="19.3667" y2="54.7768" gradientUnits="userSpaceOnUse">
<stop stop-color="#418CBD"/>
<stop offset="1" stop-color="#7684BD"/>
</linearGradient>
</defs>
</svg>
