<svg width="24" height="24" viewBox="0 0 24 24" fill="currentColor" xmlns="http://www.w3.org/2000/svg">
<path d="M8.75 12C8.75 11.138 9.09241 10.3114 9.7019 9.7019C10.3114 9.09241 11.138 8.75 12 8.75C12.862 8.75 13.6886 9.09241 14.2981 9.7019C14.9076 10.3114 15.25 11.138 15.25 12C15.25 12.862 14.9076 13.6886 14.2981 14.2981C13.6886 14.9076 12.862 15.25 12 15.25C11.138 15.25 10.3114 14.9076 9.7019 14.2981C9.09241 13.6886 8.75 12.862 8.75 12Z" fill="currentColor"/>
<path fill-rule="evenodd" clip-rule="evenodd" d="M11.4598 1.83792C11.5298 1.76533 11.6137 1.70759 11.7065 1.66816C11.7992 1.62872 11.899 1.6084 11.9998 1.6084C12.1007 1.6084 12.2004 1.62872 12.2932 1.66816C12.386 1.70759 12.4699 1.76533 12.5398 1.83792L15.1108 4.49992H18.7488C18.9477 4.49992 19.1385 4.57894 19.2792 4.71959C19.4198 4.86024 19.4988 5.05101 19.4988 5.24992V8.88792L22.1608 11.4609C22.2331 11.5309 22.2906 11.6146 22.3298 11.7072C22.3691 11.7998 22.3893 11.8993 22.3893 11.9999C22.3893 12.1005 22.3691 12.2 22.3298 12.2926C22.2906 12.3852 22.2331 12.469 22.1608 12.5389L19.4998 15.1119V18.7499C19.4998 18.9488 19.4208 19.1396 19.2802 19.2802C19.1395 19.4209 18.9487 19.4999 18.7498 19.4999H15.1118L12.5388 22.1609C12.4689 22.2332 12.3851 22.2907 12.2925 22.3299C12.2 22.3692 12.1004 22.3894 11.9998 22.3894C11.8993 22.3894 11.7997 22.3692 11.7071 22.3299C11.6145 22.2907 11.5308 22.2332 11.4608 22.1609L8.88784 19.4999H5.24984C5.05092 19.4999 4.86016 19.4209 4.71951 19.2802C4.57885 19.1396 4.49984 18.9488 4.49984 18.7499V15.1099L1.83884 12.5399C1.76656 12.47 1.70908 12.3862 1.66983 12.2936C1.63058 12.201 1.61035 12.1015 1.61035 12.0009C1.61035 11.9003 1.63058 11.8008 1.66983 11.7082C1.70908 11.6156 1.76656 11.5319 1.83884 11.4619L4.49984 8.88792V5.24992C4.49984 5.05101 4.57885 4.86024 4.71951 4.71959C4.86016 4.57894 5.05092 4.49992 5.24984 4.49992H8.88784L11.4598 1.83792ZM11.9998 7.24992C10.7401 7.24992 9.53188 7.75036 8.64108 8.64116C7.75028 9.53196 7.24984 10.7401 7.24984 11.9999C7.24984 13.2597 7.75028 14.4679 8.64108 15.3587C9.53188 16.2495 10.7401 16.7499 11.9998 16.7499C13.2596 16.7499 14.4678 16.2495 15.3586 15.3587C16.2494 14.4679 16.7498 13.2597 16.7498 11.9999C16.7498 10.7401 16.2494 9.53196 15.3586 8.64116C14.4678 7.75036 13.2596 7.24992 11.9998 7.24992Z" fill="currentColor"/>
</svg>
