<svg width="307" height="74" viewBox="0 0 307 74" fill="none" xmlns="http://www.w3.org/2000/svg">
<rect x="9.5" y="1" width="297" height="70" rx="9.5" fill="#111316" stroke="#1A1A1A"/>
<rect x="24.6689" y="12.698" width="38.6755" height="47.2168" rx="7" fill="#19191A"/>
<path d="M44.0067 39.8758C45.2433 39.8758 46.4292 39.3846 47.3036 38.5102C48.178 37.6358 48.6693 36.4498 48.6693 35.2132C48.6693 33.9766 48.178 32.7907 47.3036 31.9163C46.4292 31.0419 45.2433 30.5506 44.0067 30.5506C42.7701 30.5506 41.5841 31.0419 40.7097 31.9163C39.8353 32.7907 39.3441 33.9766 39.3441 35.2132C39.3441 36.4498 39.8353 37.6358 40.7097 38.5102C41.5841 39.3846 42.7701 39.8758 44.0067 39.8758ZM44.0067 27.0537C41.8426 27.0537 39.7672 27.9134 38.237 29.4436C36.7068 30.9738 35.8472 33.0492 35.8472 35.2132C35.8472 37.3773 36.7068 39.4527 38.237 40.9829C39.7672 42.5131 41.8426 43.3727 44.0067 43.3727C46.1707 43.3727 48.2461 42.5131 49.7763 40.9829C51.3065 39.4527 52.1662 37.3773 52.1662 35.2132C52.1662 33.0492 51.3065 30.9738 49.7763 29.4436C48.2461 27.9134 46.1707 27.0537 44.0067 27.0537ZM37.0128 35.2132C37.0128 34.2948 37.1937 33.3853 37.5452 32.5368C37.8967 31.6883 38.4118 30.9173 39.0613 30.2678C39.7107 29.6184 40.4817 29.1032 41.3302 28.7517C42.1788 28.4003 43.0882 28.2194 44.0067 28.2194C44.9251 28.2194 45.8346 28.4003 46.6831 28.7517C47.5317 29.1032 48.3027 29.6184 48.9521 30.2678C49.6015 30.9173 50.1167 31.6883 50.4682 32.5368C50.8197 33.3853 51.0006 34.2948 51.0006 35.2132C51.0006 37.0681 50.2637 38.847 48.9521 40.1586C47.6405 41.4702 45.8616 42.2071 44.0067 42.2071C42.1518 42.2071 40.3729 41.4702 39.0613 40.1586C37.7497 38.847 37.0128 37.0681 37.0128 35.2132Z" fill="#FF7272"/>
<path d="M87.9731 26.9656V17.511H89.972V21.412H94.0299V17.511H96.0242V26.9656H94.0299V23.06H89.972V26.9656H87.9731ZM97.6354 26.9656V19.8747H99.602V26.9656H97.6354ZM98.6233 18.9606C98.3309 18.9606 98.0801 18.8637 97.8708 18.6698C97.6646 18.4728 97.5615 18.2374 97.5615 17.9634C97.5615 17.6926 97.6646 17.4602 97.8708 17.2664C98.0801 17.0694 98.3309 16.9709 98.6233 16.9709C98.9157 16.9709 99.1649 17.0694 99.3712 17.2664C99.5804 17.4602 99.6851 17.6926 99.6851 17.9634C99.6851 18.2374 99.5804 18.4728 99.3712 18.6698C99.1649 18.8637 98.9157 18.9606 98.6233 18.9606ZM107.077 21.8967L105.277 22.0075C105.246 21.8536 105.18 21.7151 105.078 21.592C104.977 21.4658 104.843 21.3658 104.677 21.2919C104.514 21.215 104.318 21.1765 104.09 21.1765C103.786 21.1765 103.529 21.2411 103.319 21.3704C103.11 21.4966 103.005 21.6659 103.005 21.8782C103.005 22.0475 103.073 22.1906 103.209 22.3076C103.344 22.4245 103.576 22.5184 103.906 22.5892L105.189 22.8477C105.878 22.9893 106.392 23.217 106.731 23.5309C107.07 23.8448 107.239 24.2572 107.239 24.7681C107.239 25.2329 107.102 25.6406 106.828 25.9915C106.557 26.3424 106.185 26.6163 105.711 26.8132C105.24 27.0071 104.697 27.1041 104.081 27.1041C103.142 27.1041 102.395 26.9086 101.838 26.5178C101.284 26.1238 100.959 25.5883 100.863 24.9112L102.798 24.8097C102.856 25.0959 102.998 25.3144 103.222 25.4652C103.447 25.6129 103.735 25.6868 104.086 25.6868C104.43 25.6868 104.707 25.6206 104.917 25.4883C105.129 25.3529 105.237 25.179 105.24 24.9666C105.237 24.7881 105.161 24.6419 105.014 24.5281C104.866 24.4111 104.638 24.3219 104.33 24.2603L103.102 24.0156C102.41 23.8772 101.894 23.6371 101.556 23.2955C101.22 22.9539 101.053 22.5184 101.053 21.989C101.053 21.5335 101.176 21.1411 101.422 20.8118C101.671 20.4825 102.021 20.2286 102.47 20.0501C102.922 19.8716 103.452 19.7823 104.058 19.7823C104.954 19.7823 105.658 19.9716 106.172 20.3502C106.689 20.7287 106.991 21.2442 107.077 21.8967ZM112.249 19.8747V21.3519H107.979V19.8747H112.249ZM108.948 18.1758H110.915V24.7866C110.915 24.9682 110.942 25.1098 110.998 25.2113C111.053 25.3098 111.13 25.379 111.229 25.4191C111.33 25.4591 111.447 25.4791 111.579 25.4791C111.672 25.4791 111.764 25.4714 111.856 25.456C111.949 25.4375 112.02 25.4237 112.069 25.4144L112.378 26.8779C112.28 26.9086 112.141 26.944 111.963 26.984C111.784 27.0271 111.567 27.0533 111.312 27.0625C110.838 27.081 110.422 27.0179 110.065 26.8732C109.711 26.7286 109.436 26.5039 109.239 26.1992C109.042 25.8946 108.945 25.5098 108.948 25.0451V18.1758ZM116.658 27.1041C115.94 27.1041 115.32 26.9517 114.797 26.647C114.277 26.3393 113.875 25.9115 113.592 25.3637C113.309 24.8128 113.167 24.1741 113.167 23.4478C113.167 22.7153 113.309 22.0752 113.592 21.5274C113.875 20.9765 114.277 20.5487 114.797 20.244C115.32 19.9362 115.94 19.7823 116.658 19.7823C117.375 19.7823 117.993 19.9362 118.513 20.244C119.037 20.5487 119.44 20.9765 119.723 21.5274C120.006 22.0752 120.148 22.7153 120.148 23.4478C120.148 24.1741 120.006 24.8128 119.723 25.3637C119.44 25.9115 119.037 26.3393 118.513 26.647C117.993 26.9517 117.375 27.1041 116.658 27.1041ZM116.667 25.5806C116.993 25.5806 117.265 25.4883 117.484 25.3036C117.702 25.1159 117.867 24.8605 117.978 24.5373C118.092 24.2142 118.149 23.8464 118.149 23.434C118.149 23.0216 118.092 22.6538 117.978 22.3306C117.867 22.0075 117.702 21.752 117.484 21.5643C117.265 21.3766 116.993 21.2827 116.667 21.2827C116.337 21.2827 116.06 21.3766 115.836 21.5643C115.614 21.752 115.446 22.0075 115.333 22.3306C115.222 22.6538 115.166 23.0216 115.166 23.434C115.166 23.8464 115.222 24.2142 115.333 24.5373C115.446 24.8605 115.614 25.1159 115.836 25.3036C116.06 25.4883 116.337 25.5806 116.667 25.5806ZM121.426 26.9656V19.8747H123.333V21.1119H123.407C123.536 20.6718 123.753 20.3394 124.058 20.1147C124.362 19.887 124.713 19.7731 125.11 19.7731C125.209 19.7731 125.315 19.7793 125.429 19.7916C125.543 19.8039 125.643 19.8208 125.729 19.8424V21.5874C125.637 21.5597 125.509 21.5351 125.346 21.5135C125.183 21.492 125.033 21.4812 124.898 21.4812C124.609 21.4812 124.35 21.5443 124.122 21.6705C123.898 21.7936 123.719 21.9659 123.587 22.1875C123.458 22.4091 123.393 22.6646 123.393 22.9539V26.9656H121.426ZM128.176 29.6247C127.926 29.6247 127.692 29.6047 127.474 29.5647C127.259 29.5277 127.08 29.48 126.938 29.4215L127.382 27.9535C127.612 28.0243 127.82 28.0628 128.005 28.0689C128.193 28.0751 128.354 28.032 128.49 27.9397C128.628 27.8473 128.74 27.6904 128.827 27.4688L128.942 27.1687L126.398 19.8747H128.467L129.935 25.0821H130.008L131.49 19.8747H133.572L130.816 27.7319C130.684 28.1135 130.504 28.4459 130.276 28.7291C130.051 29.0153 129.767 29.2353 129.422 29.3892C129.077 29.5462 128.662 29.6247 128.176 29.6247ZM140.791 27.1041C140.074 27.1041 139.454 26.9517 138.931 26.647C138.411 26.3393 138.009 25.9115 137.726 25.3637C137.443 24.8128 137.301 24.1741 137.301 23.4478C137.301 22.7153 137.443 22.0752 137.726 21.5274C138.009 20.9765 138.411 20.5487 138.931 20.244C139.454 19.9362 140.074 19.7823 140.791 19.7823C141.508 19.7823 142.127 19.9362 142.647 20.244C143.17 20.5487 143.574 20.9765 143.857 21.5274C144.14 22.0752 144.281 22.7153 144.281 23.4478C144.281 24.1741 144.14 24.8128 143.857 25.3637C143.574 25.9115 143.17 26.3393 142.647 26.647C142.127 26.9517 141.508 27.1041 140.791 27.1041ZM140.801 25.5806C141.127 25.5806 141.399 25.4883 141.618 25.3036C141.836 25.1159 142.001 24.8605 142.112 24.5373C142.226 24.2142 142.282 23.8464 142.282 23.434C142.282 23.0216 142.226 22.6538 142.112 22.3306C142.001 22.0075 141.836 21.752 141.618 21.5643C141.399 21.3766 141.127 21.2827 140.801 21.2827C140.471 21.2827 140.194 21.3766 139.97 21.5643C139.748 21.752 139.58 22.0075 139.466 22.3306C139.356 22.6538 139.3 23.0216 139.3 23.434C139.3 23.8464 139.356 24.2142 139.466 24.5373C139.58 24.8605 139.748 25.1159 139.97 25.3036C140.194 25.4883 140.471 25.5806 140.801 25.5806ZM149.373 19.8747V21.3519H144.997V19.8747H149.373ZM145.999 26.9656V19.3622C145.999 18.8483 146.099 18.422 146.299 18.0835C146.502 17.7449 146.779 17.491 147.13 17.3218C147.481 17.1525 147.879 17.0678 148.325 17.0678C148.627 17.0678 148.902 17.0909 149.152 17.1371C149.404 17.1833 149.592 17.2248 149.715 17.2617L149.364 18.739C149.287 18.7144 149.192 18.6913 149.078 18.6698C148.967 18.6482 148.853 18.6375 148.736 18.6375C148.447 18.6375 148.245 18.7052 148.132 18.8406C148.018 18.9729 147.961 19.1591 147.961 19.3992V26.9656H145.999ZM159.89 20.5671C159.825 20.3425 159.734 20.144 159.617 19.9716C159.5 19.7962 159.357 19.6485 159.188 19.5284C159.022 19.4053 158.831 19.3115 158.616 19.2468C158.403 19.1822 158.168 19.1499 157.909 19.1499C157.426 19.1499 157.001 19.2699 156.635 19.51C156.272 19.75 155.989 20.0993 155.786 20.5579C155.583 21.0134 155.481 21.5705 155.481 22.2291C155.481 22.8877 155.581 23.4478 155.781 23.9095C155.981 24.3711 156.264 24.7235 156.63 24.9666C156.997 25.2067 157.429 25.3267 157.928 25.3267C158.38 25.3267 158.766 25.2467 159.086 25.0867C159.41 24.9236 159.656 24.6943 159.825 24.3988C159.997 24.1034 160.084 23.754 160.084 23.3509L160.49 23.4109H158.052V21.9059H162.009V23.097C162.009 23.9279 161.833 24.6419 161.482 25.239C161.132 25.833 160.648 26.2916 160.033 26.6147C159.417 26.9348 158.713 27.0948 157.918 27.0948C157.032 27.0948 156.253 26.8994 155.583 26.5085C154.912 26.1146 154.388 25.556 154.013 24.8328C153.641 24.1064 153.454 23.2447 153.454 22.2475C153.454 21.4812 153.565 20.798 153.787 20.1978C154.011 19.5946 154.325 19.0837 154.728 18.6652C155.132 18.2466 155.601 17.9281 156.137 17.7095C156.672 17.491 157.252 17.3818 157.877 17.3818C158.412 17.3818 158.911 17.4602 159.373 17.6172C159.834 17.7711 160.244 17.9896 160.601 18.2727C160.961 18.5559 161.255 18.8929 161.482 19.2838C161.71 19.6715 161.856 20.0993 161.921 20.5671H159.89ZM163.473 26.9656V19.8747H165.38V21.1119H165.454C165.583 20.6718 165.8 20.3394 166.105 20.1147C166.409 19.887 166.76 19.7731 167.157 19.7731C167.256 19.7731 167.362 19.7793 167.476 19.7916C167.59 19.8039 167.69 19.8208 167.776 19.8424V21.5874C167.683 21.5597 167.556 21.5351 167.393 21.5135C167.23 21.492 167.08 21.4812 166.945 21.4812C166.656 21.4812 166.397 21.5443 166.169 21.6705C165.945 21.7936 165.766 21.9659 165.634 22.1875C165.504 22.4091 165.44 22.6646 165.44 22.9539V26.9656H163.473ZM171.694 27.1041C170.965 27.1041 170.337 26.9563 169.811 26.6609C169.287 26.3624 168.884 25.9407 168.601 25.396C168.318 24.8482 168.176 24.2003 168.176 23.4524C168.176 22.723 168.318 22.0829 168.601 21.532C168.884 20.9811 169.283 20.5518 169.797 20.244C170.314 19.9362 170.92 19.7823 171.616 19.7823C172.083 19.7823 172.519 19.8577 172.922 20.0085C173.328 20.1563 173.682 20.3794 173.984 20.6779C174.288 20.9765 174.525 21.3519 174.695 21.8044C174.864 22.2537 174.949 22.78 174.949 23.3832V23.9233H168.961V22.7046H173.097C173.097 22.4214 173.036 22.1706 172.913 21.9521C172.79 21.7336 172.619 21.5628 172.4 21.4397C172.185 21.3135 171.934 21.2504 171.648 21.2504C171.349 21.2504 171.085 21.3196 170.854 21.4581C170.626 21.5935 170.448 21.7767 170.318 22.0075C170.189 22.2352 170.123 22.4891 170.12 22.7692V23.9279C170.12 24.2788 170.184 24.5819 170.314 24.8374C170.446 25.0928 170.632 25.2898 170.872 25.4283C171.112 25.5668 171.397 25.636 171.726 25.636C171.945 25.636 172.145 25.6053 172.326 25.5437C172.508 25.4821 172.663 25.3898 172.793 25.2667C172.922 25.1436 173.021 24.9928 173.088 24.8143L174.907 24.9343C174.815 25.3714 174.626 25.753 174.339 26.0792C174.056 26.4024 173.69 26.6547 173.241 26.8363C172.794 27.0148 172.279 27.1041 171.694 27.1041ZM178.254 27.0995C177.802 27.0995 177.398 27.021 177.045 26.864C176.691 26.704 176.411 26.4685 176.204 26.1577C176.001 25.8438 175.9 25.4529 175.9 24.9851C175.9 24.5912 175.972 24.2603 176.117 23.9926C176.261 23.7248 176.458 23.5094 176.708 23.3463C176.957 23.1831 177.24 23.06 177.557 22.9769C177.877 22.8938 178.213 22.8354 178.563 22.8015C178.976 22.7584 179.308 22.7184 179.561 22.6815C179.813 22.6415 179.996 22.583 180.11 22.5061C180.224 22.4291 180.281 22.3152 180.281 22.1644V22.1367C180.281 21.8444 180.188 21.6182 180.004 21.4581C179.822 21.2981 179.564 21.2181 179.228 21.2181C178.874 21.2181 178.593 21.2965 178.383 21.4535C178.174 21.6074 178.036 21.8013 177.968 22.0352L176.149 21.8875C176.241 21.4566 176.423 21.0842 176.694 20.7703C176.965 20.4533 177.314 20.2101 177.742 20.0409C178.172 19.8685 178.671 19.7823 179.237 19.7823C179.631 19.7823 180.008 19.8285 180.368 19.9208C180.732 20.0132 181.053 20.1563 181.333 20.3502C181.616 20.5441 181.84 20.7933 182.003 21.098C182.166 21.3996 182.247 21.7613 182.247 22.1829V26.9656H180.382V25.9823H180.327C180.213 26.2039 180.061 26.3993 179.87 26.5686C179.679 26.7348 179.45 26.8656 179.182 26.961C178.914 27.0533 178.605 27.0995 178.254 27.0995ZM178.817 25.7422C179.107 25.7422 179.362 25.6853 179.584 25.5714C179.805 25.4544 179.979 25.2975 180.105 25.1005C180.231 24.9035 180.295 24.6804 180.295 24.4311V23.6786C180.233 23.7187 180.148 23.7556 180.041 23.7894C179.936 23.8202 179.818 23.8495 179.685 23.8772C179.553 23.9018 179.42 23.9249 179.288 23.9464C179.156 23.9649 179.036 23.9818 178.928 23.9972C178.697 24.031 178.496 24.0849 178.323 24.1588C178.151 24.2326 178.017 24.3326 177.922 24.4588C177.826 24.5819 177.779 24.7358 177.779 24.9205C177.779 25.1882 177.876 25.3929 178.069 25.5345C178.266 25.673 178.516 25.7422 178.817 25.7422ZM187.545 19.8747V21.3519H183.274V19.8747H187.545ZM184.244 18.1758H186.211V24.7866C186.211 24.9682 186.238 25.1098 186.294 25.2113C186.349 25.3098 186.426 25.379 186.524 25.4191C186.626 25.4591 186.743 25.4791 186.875 25.4791C186.968 25.4791 187.06 25.4714 187.152 25.456C187.245 25.4375 187.315 25.4237 187.365 25.4144L187.674 26.8779C187.575 26.9086 187.437 26.944 187.258 26.984C187.08 27.0271 186.863 27.0533 186.608 27.0625C186.134 27.081 185.718 27.0179 185.361 26.8732C185.007 26.7286 184.732 26.5039 184.535 26.1992C184.338 25.8946 184.241 25.5098 184.244 25.0451V18.1758ZM194.448 27.081C193.909 27.081 193.421 26.9425 192.984 26.6655C192.55 26.3854 192.205 25.9746 191.95 25.4329C191.698 24.8882 191.571 24.2203 191.571 23.4294C191.571 22.6169 191.702 21.9413 191.964 21.4027C192.225 20.8611 192.573 20.4563 193.007 20.1886C193.444 19.9178 193.923 19.7823 194.443 19.7823C194.84 19.7823 195.171 19.85 195.435 19.9855C195.703 20.1178 195.919 20.284 196.082 20.484C196.248 20.681 196.374 20.8749 196.46 21.0657H196.52V17.511H198.482V26.9656H196.543V25.8299H196.46C196.368 26.0269 196.237 26.2223 196.068 26.4162C195.902 26.607 195.685 26.7655 195.417 26.8917C195.152 27.0179 194.829 27.081 194.448 27.081ZM195.071 25.516C195.388 25.516 195.655 25.4298 195.874 25.2575C196.096 25.0821 196.265 24.8374 196.382 24.5235C196.502 24.2095 196.562 23.8418 196.562 23.4201C196.562 22.9985 196.503 22.6322 196.386 22.3214C196.269 22.0106 196.1 21.7705 195.879 21.6012C195.657 21.432 195.388 21.3473 195.071 21.3473C194.748 21.3473 194.475 21.435 194.254 21.6105C194.032 21.7859 193.864 22.029 193.75 22.3399C193.637 22.6507 193.58 23.0108 193.58 23.4201C193.58 23.8325 193.637 24.1972 193.75 24.5142C193.867 24.8281 194.035 25.0744 194.254 25.2529C194.475 25.4283 194.748 25.516 195.071 25.516ZM203.331 27.1041C202.601 27.1041 201.974 26.9563 201.447 26.6609C200.924 26.3624 200.521 25.9407 200.238 25.396C199.955 24.8482 199.813 24.2003 199.813 23.4524C199.813 22.723 199.955 22.0829 200.238 21.532C200.521 20.9811 200.919 20.5518 201.433 20.244C201.95 19.9362 202.557 19.7823 203.252 19.7823C203.72 19.7823 204.156 19.8577 204.559 20.0085C204.965 20.1563 205.319 20.3794 205.621 20.6779C205.925 20.9765 206.162 21.3519 206.331 21.8044C206.501 22.2537 206.585 22.78 206.585 23.3832V23.9233H200.598V22.7046H204.734C204.734 22.4214 204.673 22.1706 204.55 21.9521C204.426 21.7336 204.256 21.5628 204.037 21.4397C203.822 21.3135 203.571 21.2504 203.285 21.2504C202.986 21.2504 202.721 21.3196 202.491 21.4581C202.263 21.5935 202.084 21.7767 201.955 22.0075C201.826 22.2352 201.76 22.4891 201.757 22.7692V23.9279C201.757 24.2788 201.821 24.5819 201.95 24.8374C202.083 25.0928 202.269 25.2898 202.509 25.4283C202.749 25.5668 203.034 25.636 203.363 25.636C203.582 25.636 203.782 25.6053 203.963 25.5437C204.145 25.4821 204.3 25.3898 204.429 25.2667C204.559 25.1436 204.657 24.9928 204.725 24.8143L206.544 24.9343C206.451 25.3714 206.262 25.753 205.976 26.0792C205.693 26.4024 205.327 26.6547 204.877 26.8363C204.431 27.0148 203.916 27.1041 203.331 27.1041ZM207.869 29.6247V19.8747H209.808V21.0657H209.895C209.982 20.8749 210.106 20.681 210.269 20.484C210.436 20.284 210.651 20.1178 210.916 19.9855C211.183 19.85 211.516 19.7823 211.913 19.7823C212.43 19.7823 212.907 19.9178 213.344 20.1886C213.781 20.4563 214.13 20.8611 214.392 21.4027C214.653 21.9413 214.784 22.6169 214.784 23.4294C214.784 24.2203 214.657 24.8882 214.401 25.4329C214.149 25.9746 213.804 26.3854 213.367 26.6655C212.933 26.9425 212.447 27.081 211.908 27.081C211.527 27.081 211.202 27.0179 210.934 26.8917C210.669 26.7655 210.452 26.607 210.283 26.4162C210.114 26.2223 209.985 26.0269 209.895 25.8299H209.835V29.6247H207.869ZM209.794 23.4201C209.794 23.8418 209.852 24.2095 209.969 24.5235C210.086 24.8374 210.255 25.0821 210.477 25.2575C210.699 25.4298 210.968 25.516 211.285 25.516C211.605 25.516 211.876 25.4283 212.097 25.2529C212.319 25.0744 212.487 24.8281 212.601 24.5142C212.718 24.1972 212.776 23.8325 212.776 23.4201C212.776 23.0108 212.719 22.6507 212.605 22.3399C212.491 22.029 212.324 21.7859 212.102 21.6105C211.88 21.435 211.608 21.3473 211.285 21.3473C210.965 21.3473 210.694 21.432 210.472 21.6012C210.254 21.7705 210.086 22.0106 209.969 22.3214C209.852 22.6322 209.794 22.9985 209.794 23.4201ZM216.095 26.9656V19.8747H218.002V21.1119H218.076C218.205 20.6718 218.422 20.3394 218.727 20.1147C219.031 19.887 219.382 19.7731 219.779 19.7731C219.878 19.7731 219.984 19.7793 220.098 19.7916C220.212 19.8039 220.312 19.8208 220.398 19.8424V21.5874C220.306 21.5597 220.178 21.5351 220.015 21.5135C219.852 21.492 219.702 21.4812 219.567 21.4812C219.278 21.4812 219.019 21.5443 218.791 21.6705C218.567 21.7936 218.388 21.9659 218.256 22.1875C218.127 22.4091 218.062 22.6646 218.062 22.9539V26.9656H216.095ZM224.316 27.1041C223.587 27.1041 222.959 26.9563 222.433 26.6609C221.909 26.3624 221.506 25.9407 221.223 25.396C220.94 24.8482 220.798 24.2003 220.798 23.4524C220.798 22.723 220.94 22.0829 221.223 21.532C221.506 20.9811 221.905 20.5518 222.419 20.244C222.936 19.9362 223.542 19.7823 224.238 19.7823C224.705 19.7823 225.141 19.8577 225.544 20.0085C225.95 20.1563 226.304 20.3794 226.606 20.6779C226.911 20.9765 227.148 21.3519 227.317 21.8044C227.486 22.2537 227.571 22.78 227.571 23.3832V23.9233H221.583V22.7046H225.72C225.72 22.4214 225.658 22.1706 225.535 21.9521C225.412 21.7336 225.241 21.5628 225.022 21.4397C224.807 21.3135 224.556 21.2504 224.27 21.2504C223.971 21.2504 223.707 21.3196 223.476 21.4581C223.248 21.5935 223.07 21.7767 222.94 22.0075C222.811 22.2352 222.745 22.4891 222.742 22.7692V23.9279C222.742 24.2788 222.807 24.5819 222.936 24.8374C223.068 25.0928 223.254 25.2898 223.494 25.4283C223.734 25.5668 224.019 25.636 224.348 25.636C224.567 25.636 224.767 25.6053 224.949 25.5437C225.13 25.4821 225.286 25.3898 225.415 25.2667C225.544 25.1436 225.643 24.9928 225.71 24.8143L227.529 24.9343C227.437 25.3714 227.248 25.753 226.961 26.0792C226.678 26.4024 226.312 26.6547 225.863 26.8363C225.416 27.0148 224.901 27.1041 224.316 27.1041ZM234.754 21.8967L232.954 22.0075C232.923 21.8536 232.857 21.7151 232.755 21.592C232.653 21.4658 232.52 21.3658 232.353 21.2919C232.19 21.215 231.995 21.1765 231.767 21.1765C231.462 21.1765 231.205 21.2411 230.996 21.3704C230.787 21.4966 230.682 21.6659 230.682 21.8782C230.682 22.0475 230.75 22.1906 230.885 22.3076C231.021 22.4245 231.253 22.5184 231.582 22.5892L232.866 22.8477C233.555 22.9893 234.069 23.217 234.408 23.5309C234.746 23.8448 234.916 24.2572 234.916 24.7681C234.916 25.2329 234.779 25.6406 234.505 25.9915C234.234 26.3424 233.861 26.6163 233.387 26.8132C232.917 27.0071 232.373 27.1041 231.758 27.1041C230.819 27.1041 230.071 26.9086 229.514 26.5178C228.96 26.1238 228.636 25.5883 228.54 24.9112L230.474 24.8097C230.533 25.0959 230.675 25.3144 230.899 25.4652C231.124 25.6129 231.412 25.6868 231.762 25.6868C232.107 25.6868 232.384 25.6206 232.593 25.4883C232.806 25.3529 232.914 25.179 232.917 24.9666C232.914 24.7881 232.838 24.6419 232.69 24.5281C232.543 24.4111 232.315 24.3219 232.007 24.2603L230.779 24.0156C230.087 23.8772 229.571 23.6371 229.233 23.2955C228.897 22.9539 228.729 22.5184 228.729 21.989C228.729 21.5335 228.853 21.1411 229.099 20.8118C229.348 20.4825 229.697 20.2286 230.147 20.0501C230.599 19.8716 231.128 19.7823 231.735 19.7823C232.63 19.7823 233.335 19.9716 233.849 20.3502C234.366 20.7287 234.668 21.2442 234.754 21.8967ZM242.054 21.8967L240.253 22.0075C240.223 21.8536 240.156 21.7151 240.055 21.592C239.953 21.4658 239.819 21.3658 239.653 21.2919C239.49 21.215 239.295 21.1765 239.067 21.1765C238.762 21.1765 238.505 21.2411 238.296 21.3704C238.087 21.4966 237.982 21.6659 237.982 21.8782C237.982 22.0475 238.05 22.1906 238.185 22.3076C238.321 22.4245 238.553 22.5184 238.882 22.5892L240.166 22.8477C240.855 22.9893 241.369 23.217 241.708 23.5309C242.046 23.8448 242.215 24.2572 242.215 24.7681C242.215 25.2329 242.078 25.6406 241.804 25.9915C241.534 26.3424 241.161 26.6163 240.687 26.8132C240.216 27.0071 239.673 27.1041 239.058 27.1041C238.119 27.1041 237.371 26.9086 236.814 26.5178C236.26 26.1238 235.935 25.5883 235.84 24.9112L237.774 24.8097C237.833 25.0959 237.974 25.3144 238.199 25.4652C238.424 25.6129 238.711 25.6868 239.062 25.6868C239.407 25.6868 239.684 25.6206 239.893 25.4883C240.106 25.3529 240.213 25.179 240.216 24.9666C240.213 24.7881 240.138 24.6419 239.99 24.5281C239.842 24.4111 239.615 24.3219 239.307 24.2603L238.079 24.0156C237.387 23.8772 236.871 23.6371 236.532 23.2955C236.197 22.9539 236.029 22.5184 236.029 21.989C236.029 21.5335 236.152 21.1411 236.399 20.8118C236.648 20.4825 236.997 20.2286 237.447 20.0501C237.899 19.8716 238.428 19.7823 239.035 19.7823C239.93 19.7823 240.635 19.9716 241.149 20.3502C241.666 20.7287 241.968 21.2442 242.054 21.8967ZM243.454 26.9656V19.8747H245.42V26.9656H243.454ZM244.442 18.9606C244.149 18.9606 243.898 18.8637 243.689 18.6698C243.483 18.4728 243.38 18.2374 243.38 17.9634C243.38 17.6926 243.483 17.4602 243.689 17.2664C243.898 17.0694 244.149 16.9709 244.442 16.9709C244.734 16.9709 244.983 17.0694 245.19 17.2664C245.399 17.4602 245.503 17.6926 245.503 17.9634C245.503 18.2374 245.399 18.4728 245.19 18.6698C244.983 18.8637 244.734 18.9606 244.442 18.9606ZM250.2 27.1041C249.482 27.1041 248.862 26.9517 248.339 26.647C247.819 26.3393 247.417 25.9115 247.134 25.3637C246.851 24.8128 246.709 24.1741 246.709 23.4478C246.709 22.7153 246.851 22.0752 247.134 21.5274C247.417 20.9765 247.819 20.5487 248.339 20.244C248.862 19.9362 249.482 19.7823 250.2 19.7823C250.917 19.7823 251.535 19.9362 252.055 20.244C252.579 20.5487 252.982 20.9765 253.265 21.5274C253.548 22.0752 253.69 22.7153 253.69 23.4478C253.69 24.1741 253.548 24.8128 253.265 25.3637C252.982 25.9115 252.579 26.3393 252.055 26.647C251.535 26.9517 250.917 27.1041 250.2 27.1041ZM250.209 25.5806C250.535 25.5806 250.807 25.4883 251.026 25.3036C251.244 25.1159 251.409 24.8605 251.52 24.5373C251.634 24.2142 251.691 23.8464 251.691 23.434C251.691 23.0216 251.634 22.6538 251.52 22.3306C251.409 22.0075 251.244 21.752 251.026 21.5643C250.807 21.3766 250.535 21.2827 250.209 21.2827C249.879 21.2827 249.602 21.3766 249.378 21.5643C249.156 21.752 248.988 22.0075 248.875 22.3306C248.764 22.6538 248.708 23.0216 248.708 23.434C248.708 23.8464 248.764 24.2142 248.875 24.5373C248.988 24.8605 249.156 25.1159 249.378 25.3036C249.602 25.4883 249.879 25.5806 250.209 25.5806ZM256.935 22.8661V26.9656H254.968V19.8747H256.843V21.1257H256.926C257.083 20.7133 257.346 20.3871 257.715 20.147C258.084 19.9039 258.532 19.7823 259.059 19.7823C259.551 19.7823 259.98 19.8901 260.347 20.1055C260.713 20.3209 260.997 20.6287 261.201 21.0288C261.404 21.4258 261.505 21.8998 261.505 22.4507V26.9656H259.539V22.8015C259.542 22.3676 259.431 22.029 259.206 21.7859C258.982 21.5397 258.672 21.4166 258.278 21.4166C258.014 21.4166 257.78 21.4735 257.577 21.5874C257.377 21.7013 257.22 21.8674 257.106 22.086C256.995 22.3014 256.938 22.5615 256.935 22.8661ZM266.064 26.9656V19.8747H268.031V26.9656H266.064ZM267.052 18.9606C266.76 18.9606 266.509 18.8637 266.3 18.6698C266.093 18.4728 265.99 18.2374 265.99 17.9634C265.99 17.6926 266.093 17.4602 266.3 17.2664C266.509 17.0694 266.76 16.9709 267.052 16.9709C267.344 16.9709 267.594 17.0694 267.8 17.2664C268.009 17.4602 268.114 17.6926 268.114 17.9634C268.114 18.2374 268.009 18.4728 267.8 18.6698C267.594 18.8637 267.344 18.9606 267.052 18.9606ZM271.573 22.8661V26.9656H269.606V19.8747H271.48V21.1257H271.563C271.72 20.7133 271.984 20.3871 272.353 20.147C272.722 19.9039 273.17 19.7823 273.696 19.7823C274.189 19.7823 274.618 19.8901 274.984 20.1055C275.35 20.3209 275.635 20.6287 275.838 21.0288C276.041 21.4258 276.143 21.8998 276.143 22.4507V26.9656H274.176V22.8015C274.179 22.3676 274.069 22.029 273.844 21.7859C273.619 21.5397 273.31 21.4166 272.916 21.4166C272.651 21.4166 272.417 21.4735 272.214 21.5874C272.014 21.7013 271.857 21.8674 271.743 22.086C271.633 22.3014 271.576 22.5615 271.573 22.8661ZM174.508 37.8967L172.708 38.0075C172.677 37.8536 172.611 37.7151 172.509 37.592C172.408 37.4658 172.274 37.3658 172.108 37.2919C171.945 37.215 171.749 37.1765 171.521 37.1765C171.217 37.1765 170.96 37.2411 170.751 37.3704C170.541 37.4966 170.437 37.6659 170.437 37.8782C170.437 38.0475 170.504 38.1906 170.64 38.3076C170.775 38.4245 171.008 38.5184 171.337 38.5892L172.62 38.8477C173.31 38.9893 173.824 39.217 174.162 39.5309C174.501 39.8448 174.67 40.2572 174.67 40.7681C174.67 41.2329 174.533 41.6406 174.259 41.9915C173.988 42.3424 173.616 42.6163 173.142 42.8132C172.671 43.0071 172.128 43.1041 171.512 43.1041C170.574 43.1041 169.826 42.9086 169.269 42.5178C168.715 42.1238 168.39 41.5883 168.295 40.9112L170.229 40.8097C170.287 41.0959 170.429 41.3144 170.654 41.4652C170.878 41.6129 171.166 41.6868 171.517 41.6868C171.862 41.6868 172.139 41.6206 172.348 41.4883C172.56 41.3529 172.668 41.179 172.671 40.9666C172.668 40.7881 172.593 40.6419 172.445 40.5281C172.297 40.4111 172.069 40.3219 171.762 40.2603L170.534 40.0156C169.841 39.8772 169.326 39.6371 168.987 39.2955C168.652 38.9539 168.484 38.5184 168.484 37.989C168.484 37.5335 168.607 37.1411 168.853 36.8118C169.102 36.4825 169.452 36.2286 169.901 36.0501C170.354 35.8716 170.883 35.7823 171.489 35.7823C172.385 35.7823 173.09 35.9716 173.604 36.3502C174.121 36.7287 174.422 37.2442 174.508 37.8967ZM179.112 43.1041C178.395 43.1041 177.775 42.9517 177.252 42.647C176.732 42.3393 176.33 41.9115 176.047 41.3637C175.764 40.8128 175.622 40.1741 175.622 39.4478C175.622 38.7153 175.764 38.0752 176.047 37.5274C176.33 36.9765 176.732 36.5487 177.252 36.244C177.775 35.9362 178.395 35.7823 179.112 35.7823C179.829 35.7823 180.448 35.9362 180.968 36.244C181.491 36.5487 181.894 36.9765 182.177 37.5274C182.461 38.0752 182.602 38.7153 182.602 39.4478C182.602 40.1741 182.461 40.8128 182.177 41.3637C181.894 41.9115 181.491 42.3393 180.968 42.647C180.448 42.9517 179.829 43.1041 179.112 43.1041ZM179.121 41.5806C179.448 41.5806 179.72 41.4883 179.938 41.3036C180.157 41.1159 180.322 40.8605 180.432 40.5373C180.546 40.2142 180.603 39.8464 180.603 39.434C180.603 39.0216 180.546 38.6538 180.432 38.3306C180.322 38.0075 180.157 37.752 179.938 37.5643C179.72 37.3766 179.448 37.2827 179.121 37.2827C178.792 37.2827 178.515 37.3766 178.29 37.5643C178.069 37.752 177.901 38.0075 177.787 38.3306C177.676 38.6538 177.621 39.0216 177.621 39.434C177.621 39.8464 177.676 40.2142 177.787 40.5373C177.901 40.8605 178.069 41.1159 178.29 41.3036C178.515 41.4883 178.792 41.5806 179.121 41.5806ZM188.428 39.9464V35.8747H190.395V42.9656H188.507V41.6776H188.433C188.273 42.0931 188.007 42.427 187.634 42.6794C187.265 42.9317 186.814 43.0579 186.282 43.0579C185.808 43.0579 185.391 42.9502 185.03 42.7348C184.67 42.5193 184.389 42.2131 184.186 41.8161C183.986 41.4191 183.884 40.9436 183.881 40.3896V35.8747H185.848V40.0387C185.851 40.4573 185.963 40.7881 186.185 41.0313C186.406 41.2744 186.703 41.396 187.076 41.396C187.313 41.396 187.534 41.3421 187.74 41.2344C187.947 41.1236 188.113 40.9605 188.239 40.7451C188.368 40.5296 188.431 40.2634 188.428 39.9464ZM195.74 35.8747V37.3519H191.469V35.8747H195.74ZM192.439 34.1758H194.405V40.7866C194.405 40.9682 194.433 41.1098 194.488 41.2113C194.544 41.3098 194.621 41.379 194.719 41.4191C194.821 41.4591 194.938 41.4791 195.07 41.4791C195.162 41.4791 195.255 41.4714 195.347 41.456C195.439 41.4375 195.51 41.4237 195.559 41.4144L195.869 42.8779C195.77 42.9086 195.632 42.944 195.453 42.984C195.275 43.0271 195.058 43.0533 194.802 43.0625C194.328 43.081 193.913 43.0179 193.556 42.8732C193.202 42.7286 192.927 42.5039 192.73 42.1992C192.533 41.8946 192.436 41.5098 192.439 41.0451V34.1758Z" fill="white"/>
<rect x="0.5" y="6" width="301" height="67" rx="9.5" fill="#111316" stroke="#1A1A1A"/>
<rect x="9" y="17.5" width="43" height="43" rx="7" fill="#19191A"/>
<path d="M30.5 42.75C31.7598 42.75 32.968 42.2496 33.8588 41.3588C34.7496 40.468 35.25 39.2598 35.25 38C35.25 36.7402 34.7496 35.532 33.8588 34.6412C32.968 33.7504 31.7598 33.25 30.5 33.25C29.2402 33.25 28.032 33.7504 27.1412 34.6412C26.2504 35.532 25.75 36.7402 25.75 38C25.75 39.2598 26.2504 40.468 27.1412 41.3588C28.032 42.2496 29.2402 42.75 30.5 42.75ZM30.5 29.6875C28.2954 29.6875 26.1811 30.5633 24.6222 32.1222C23.0633 33.6811 22.1875 35.7954 22.1875 38C22.1875 40.2046 23.0633 42.3189 24.6222 43.8778C26.1811 45.4367 28.2954 46.3125 30.5 46.3125C32.7046 46.3125 34.8189 45.4367 36.3778 43.8778C37.9367 42.3189 38.8125 40.2046 38.8125 38C38.8125 35.7954 37.9367 33.6811 36.3778 32.1222C34.8189 30.5633 32.7046 29.6875 30.5 29.6875ZM23.375 38C23.375 37.0643 23.5593 36.1378 23.9174 35.2734C24.2754 34.4089 24.8002 33.6235 25.4619 32.9619C26.1235 32.3002 26.9089 31.7754 27.7734 31.4174C28.6378 31.0593 29.5643 30.875 30.5 30.875C31.4357 30.875 32.3622 31.0593 33.2266 31.4174C34.0911 31.7754 34.8765 32.3002 35.5381 32.9619C36.1998 33.6235 36.7246 34.4089 37.0826 35.2734C37.4407 36.1378 37.625 37.0643 37.625 38C37.625 39.8897 36.8743 41.7019 35.5381 43.0381C34.2019 44.3743 32.3897 45.125 30.5 45.125C28.6103 45.125 26.7981 44.3743 25.4619 43.0381C24.1257 41.7019 23.375 39.8897 23.375 38Z" fill="#FF7272"/>
<path d="M67.42 27.093V25.3182H75.7822V27.093H72.665V35.5H70.5372V27.093H67.42ZM79.2375 31.0852V35.5H77.1196V25.3182H79.1778V29.2109H79.2673C79.4397 28.7602 79.7181 28.4072 80.1025 28.152C80.487 27.8935 80.9693 27.7642 81.5493 27.7642C82.0796 27.7642 82.5419 27.8802 82.9363 28.1122C83.3341 28.3409 83.6423 28.6707 83.8611 29.1016C84.0831 29.5291 84.1925 30.0412 84.1892 30.6378V35.5H82.0713V31.0156C82.0746 30.545 81.9553 30.1787 81.7133 29.9169C81.4747 29.6551 81.1399 29.5241 80.7091 29.5241C80.4207 29.5241 80.1655 29.5855 79.9434 29.7081C79.7247 29.8307 79.5523 30.0097 79.4264 30.245C79.3038 30.477 79.2408 30.7571 79.2375 31.0852ZM89.336 35.6491C88.5505 35.6491 87.8744 35.4901 87.3076 35.1719C86.7442 34.8504 86.31 34.3963 86.0051 33.8097C85.7001 33.2197 85.5477 32.522 85.5477 31.7166C85.5477 30.9311 85.7001 30.2417 86.0051 29.6484C86.31 29.0552 86.7392 28.5928 87.2927 28.2614C87.8495 27.9299 88.5025 27.7642 89.2515 27.7642C89.7553 27.7642 90.2243 27.8454 90.6585 28.0078C91.096 28.1669 91.4771 28.4072 91.8019 28.7287C92.1301 29.0502 92.3853 29.4545 92.5676 29.9418C92.7499 30.4257 92.841 30.9924 92.841 31.642V32.2237H86.3928V30.9112H90.8474C90.8474 30.6063 90.7811 30.3362 90.6485 30.1009C90.516 29.8655 90.332 29.6816 90.0967 29.549C89.8647 29.4131 89.5945 29.3452 89.2863 29.3452C88.9648 29.3452 88.6798 29.4197 88.4312 29.5689C88.1859 29.7147 87.9937 29.9119 87.8545 30.1605C87.7153 30.4058 87.644 30.6792 87.6407 30.9808V32.2287C87.6407 32.6065 87.7103 32.933 87.8495 33.2081C87.992 33.4832 88.1926 33.6953 88.4511 33.8445C88.7096 33.9936 89.0162 34.0682 89.3708 34.0682C89.6061 34.0682 89.8216 34.035 90.0171 33.9688C90.2127 33.9025 90.3801 33.803 90.5193 33.6705C90.6585 33.5379 90.7645 33.3755 90.8374 33.1832L92.7963 33.3125C92.6968 33.7831 92.493 34.1941 92.1847 34.5455C91.8798 34.8935 91.4854 35.1652 91.0015 35.3608C90.5209 35.553 89.9658 35.6491 89.336 35.6491ZM99.6409 35.6442C99.1537 35.6442 98.7195 35.5597 98.3383 35.3906C97.9572 35.2183 97.6556 34.9647 97.4335 34.63C97.2148 34.2919 97.1054 33.871 97.1054 33.3672C97.1054 32.9429 97.1833 32.5866 97.339 32.2983C97.4948 32.0099 97.7069 31.7779 97.9754 31.6023C98.2439 31.4266 98.5488 31.294 98.8902 31.2045C99.2349 31.1151 99.5961 31.0521 99.974 31.0156C100.418 30.9692 100.776 30.9261 101.048 30.8864C101.32 30.8433 101.517 30.7803 101.639 30.6974C101.762 30.6146 101.823 30.492 101.823 30.3295V30.2997C101.823 29.9848 101.724 29.7412 101.525 29.5689C101.33 29.3965 101.051 29.3104 100.69 29.3104C100.309 29.3104 100.005 29.3949 99.7801 29.5639C99.5547 29.7296 99.4056 29.9384 99.3327 30.1903L97.3738 30.0312C97.4733 29.5672 97.6688 29.1662 97.9605 28.8281C98.2522 28.4867 98.6283 28.2249 99.089 28.0426C99.5531 27.857 100.09 27.7642 100.7 27.7642C101.124 27.7642 101.53 27.8139 101.918 27.9134C102.309 28.0128 102.655 28.1669 102.957 28.3757C103.262 28.5845 103.502 28.853 103.678 29.1811C103.853 29.5059 103.941 29.8954 103.941 30.3494V35.5H101.933V34.4411H101.873C101.751 34.6797 101.586 34.8902 101.381 35.0724C101.175 35.2514 100.929 35.3923 100.64 35.495C100.352 35.5945 100.019 35.6442 99.6409 35.6442ZM100.247 34.1825C100.559 34.1825 100.834 34.1212 101.073 33.9986C101.311 33.8726 101.499 33.7036 101.634 33.4915C101.77 33.2794 101.838 33.0391 101.838 32.7706V31.9602C101.772 32.0033 101.681 32.0431 101.565 32.0795C101.452 32.1127 101.325 32.1442 101.182 32.174C101.04 32.2005 100.897 32.2254 100.755 32.2486C100.612 32.2685 100.483 32.2867 100.367 32.3033C100.118 32.3397 99.9011 32.3977 99.7155 32.4773C99.5299 32.5568 99.3857 32.6645 99.2829 32.8004C99.1802 32.933 99.1288 33.0987 99.1288 33.2976C99.1288 33.5859 99.2332 33.8063 99.442 33.9588C99.6541 34.108 99.9226 34.1825 100.247 34.1825ZM109.646 27.8636V29.4545H105.047V27.8636H109.646ZM106.092 26.0341H108.209V33.1534C108.209 33.349 108.239 33.5014 108.299 33.6108C108.359 33.7169 108.441 33.7914 108.547 33.8345C108.657 33.8776 108.783 33.8991 108.925 33.8991C109.025 33.8991 109.124 33.8909 109.224 33.8743C109.323 33.8544 109.399 33.8395 109.452 33.8295L109.785 35.4055C109.679 35.4387 109.53 35.4768 109.338 35.5199C109.146 35.5663 108.912 35.5945 108.637 35.6044C108.127 35.6243 107.679 35.5563 107.295 35.4006C106.914 35.2448 106.617 35.0028 106.405 34.6747C106.193 34.3466 106.088 33.9323 106.092 33.4318V26.0341ZM115.088 27.8636V29.4545H110.489V27.8636H115.088ZM111.533 26.0341H113.651V33.1534C113.651 33.349 113.681 33.5014 113.74 33.6108C113.8 33.7169 113.883 33.7914 113.989 33.8345C114.098 33.8776 114.224 33.8991 114.367 33.8991C114.466 33.8991 114.566 33.8909 114.665 33.8743C114.764 33.8544 114.841 33.8395 114.894 33.8295L115.227 35.4055C115.121 35.4387 114.972 35.4768 114.779 35.5199C114.587 35.5663 114.353 35.5945 114.078 35.6044C113.568 35.6243 113.121 35.5563 112.736 35.4006C112.355 35.2448 112.058 35.0028 111.846 34.6747C111.634 34.3466 111.53 33.9323 111.533 33.4318V26.0341ZM118.645 35.6442C118.158 35.6442 117.723 35.5597 117.342 35.3906C116.961 35.2183 116.659 34.9647 116.437 34.63C116.219 34.2919 116.109 33.871 116.109 33.3672C116.109 32.9429 116.187 32.5866 116.343 32.2983C116.499 32.0099 116.711 31.7779 116.979 31.6023C117.248 31.4266 117.553 31.294 117.894 31.2045C118.239 31.1151 118.6 31.0521 118.978 31.0156C119.422 30.9692 119.78 30.9261 120.052 30.8864C120.324 30.8433 120.521 30.7803 120.643 30.6974C120.766 30.6146 120.827 30.492 120.827 30.3295V30.2997C120.827 29.9848 120.728 29.7412 120.529 29.5689C120.333 29.3965 120.055 29.3104 119.694 29.3104C119.313 29.3104 119.009 29.3949 118.784 29.5639C118.559 29.7296 118.409 29.9384 118.337 30.1903L116.378 30.0312C116.477 29.5672 116.673 29.1662 116.964 28.8281C117.256 28.4867 117.632 28.2249 118.093 28.0426C118.557 27.857 119.094 27.7642 119.704 27.7642C120.128 27.7642 120.534 27.8139 120.922 27.9134C121.313 28.0128 121.659 28.1669 121.961 28.3757C122.266 28.5845 122.506 28.853 122.682 29.1811C122.857 29.5059 122.945 29.8954 122.945 30.3494V35.5H120.937V34.4411H120.877C120.754 34.6797 120.59 34.8902 120.385 35.0724C120.179 35.2514 119.932 35.3923 119.644 35.495C119.356 35.5945 119.023 35.6442 118.645 35.6442ZM119.251 34.1825C119.563 34.1825 119.838 34.1212 120.077 33.9986C120.315 33.8726 120.503 33.7036 120.638 33.4915C120.774 33.2794 120.842 33.0391 120.842 32.7706V31.9602C120.776 32.0033 120.685 32.0431 120.569 32.0795C120.456 32.1127 120.329 32.1442 120.186 32.174C120.043 32.2005 119.901 32.2254 119.758 32.2486C119.616 32.2685 119.487 32.2867 119.371 32.3033C119.122 32.3397 118.905 32.3977 118.719 32.4773C118.534 32.5568 118.39 32.6645 118.287 32.8004C118.184 32.933 118.133 33.0987 118.133 33.2976C118.133 33.5859 118.237 33.8063 118.446 33.9588C118.658 34.108 118.927 34.1825 119.251 34.1825ZM128.039 35.6491C127.256 35.6491 126.584 35.4834 126.02 35.152C125.46 34.8172 125.029 34.3532 124.728 33.7599C124.429 33.1667 124.28 32.4839 124.28 31.7116C124.28 30.9295 124.431 30.2434 124.733 29.6534C125.037 29.0601 125.47 28.5978 126.03 28.2663C126.59 27.9316 127.256 27.7642 128.029 27.7642C128.695 27.7642 129.278 27.8852 129.779 28.1271C130.279 28.3691 130.675 28.7088 130.967 29.1463C131.259 29.5838 131.419 30.0975 131.449 30.6875H129.451C129.394 30.3063 129.245 29.9998 129.003 29.7678C128.764 29.5324 128.451 29.4148 128.063 29.4148C127.735 29.4148 127.449 29.5043 127.203 29.6832C126.961 29.8589 126.773 30.1158 126.637 30.4538C126.501 30.7919 126.433 31.2012 126.433 31.6818C126.433 32.169 126.499 32.5833 126.632 32.9247C126.768 33.2661 126.958 33.5263 127.203 33.7053C127.449 33.8842 127.735 33.9737 128.063 33.9737C128.305 33.9737 128.523 33.924 128.715 33.8246C128.91 33.7251 129.071 33.581 129.197 33.392C129.326 33.1998 129.411 32.9695 129.451 32.701H131.449C131.416 33.2843 131.257 33.7981 130.972 34.2422C130.69 34.683 130.301 35.0277 129.804 35.2763C129.306 35.5249 128.718 35.6491 128.039 35.6491ZM134.724 33.3026L134.729 30.7621H135.037L137.483 27.8636H139.915L136.628 31.7017H136.126L134.724 33.3026ZM132.805 35.5V25.3182H134.923V35.5H132.805ZM137.578 35.5L135.331 32.174L136.743 30.6776L140.059 35.5H137.578ZM147.644 35.6491C146.872 35.6491 146.204 35.4851 145.641 35.157C145.08 34.8255 144.648 34.3648 144.343 33.7749C144.038 33.1816 143.886 32.4938 143.886 31.7116C143.886 30.9228 144.038 30.2334 144.343 29.6435C144.648 29.0502 145.08 28.5895 145.641 28.2614C146.204 27.9299 146.872 27.7642 147.644 27.7642C148.416 27.7642 149.083 27.9299 149.643 28.2614C150.206 28.5895 150.64 29.0502 150.945 29.6435C151.25 30.2334 151.403 30.9228 151.403 31.7116C151.403 32.4938 151.25 33.1816 150.945 33.7749C150.64 34.3648 150.206 34.8255 149.643 35.157C149.083 35.4851 148.416 35.6491 147.644 35.6491ZM147.654 34.0085C148.005 34.0085 148.299 33.9091 148.534 33.7102C148.769 33.508 148.947 33.233 149.066 32.8849C149.189 32.5369 149.25 32.1409 149.25 31.6967C149.25 31.2526 149.189 30.8565 149.066 30.5085C148.947 30.1605 148.769 29.8854 148.534 29.6832C148.299 29.4811 148.005 29.38 147.654 29.38C147.299 29.38 147.001 29.4811 146.759 29.6832C146.521 29.8854 146.34 30.1605 146.217 30.5085C146.098 30.8565 146.038 31.2526 146.038 31.6967C146.038 32.1409 146.098 32.5369 146.217 32.8849C146.34 33.233 146.521 33.508 146.759 33.7102C147.001 33.9091 147.299 34.0085 147.654 34.0085ZM154.898 31.0852V35.5H152.78V27.8636H154.798V29.2109H154.888C155.057 28.7668 155.34 28.4155 155.738 28.157C156.136 27.8951 156.618 27.7642 157.185 27.7642C157.715 27.7642 158.177 27.8802 158.572 28.1122C158.966 28.3442 159.273 28.6757 159.491 29.1065C159.71 29.5341 159.82 30.0445 159.82 30.6378V35.5H157.702V31.0156C157.705 30.5483 157.586 30.1837 157.344 29.9219C157.102 29.6567 156.769 29.5241 156.344 29.5241C156.059 29.5241 155.807 29.5855 155.589 29.7081C155.373 29.8307 155.204 30.0097 155.082 30.245C154.962 30.477 154.901 30.7571 154.898 31.0852ZM164.769 35.5V25.3182H168.786C169.558 25.3182 170.216 25.4657 170.759 25.7607C171.303 26.0523 171.717 26.4583 172.002 26.9787C172.291 27.4957 172.435 28.0923 172.435 28.7685C172.435 29.4446 172.289 30.0412 171.997 30.5582C171.706 31.0753 171.283 31.478 170.73 31.7663C170.179 32.0547 169.513 32.1989 168.731 32.1989H166.171V30.4737H168.383C168.797 30.4737 169.139 30.4025 169.407 30.2599C169.679 30.1141 169.881 29.9136 170.014 29.6584C170.15 29.3999 170.218 29.1032 170.218 28.7685C170.218 28.4304 170.15 28.1354 170.014 27.8835C169.881 27.6283 169.679 27.4311 169.407 27.2919C169.135 27.1494 168.791 27.0781 168.373 27.0781H166.921V35.5H164.769ZM177.15 35.6491C176.365 35.6491 175.689 35.4901 175.122 35.1719C174.559 34.8504 174.124 34.3963 173.82 33.8097C173.515 33.2197 173.362 32.522 173.362 31.7166C173.362 30.9311 173.515 30.2417 173.82 29.6484C174.124 29.0552 174.554 28.5928 175.107 28.2614C175.664 27.9299 176.317 27.7642 177.066 27.7642C177.57 27.7642 178.039 27.8454 178.473 28.0078C178.91 28.1669 179.292 28.4072 179.616 28.7287C179.945 29.0502 180.2 29.4545 180.382 29.9418C180.564 30.4257 180.655 30.9924 180.655 31.642V32.2237H174.207V30.9112H178.662C178.662 30.6063 178.596 30.3362 178.463 30.1009C178.33 29.8655 178.146 29.6816 177.911 29.549C177.679 29.4131 177.409 29.3452 177.101 29.3452C176.779 29.3452 176.494 29.4197 176.246 29.5689C176 29.7147 175.808 29.9119 175.669 30.1605C175.53 30.4058 175.458 30.6792 175.455 30.9808V32.2287C175.455 32.6065 175.525 32.933 175.664 33.2081C175.806 33.4832 176.007 33.6953 176.266 33.8445C176.524 33.9936 176.831 34.0682 177.185 34.0682C177.421 34.0682 177.636 34.035 177.832 33.9688C178.027 33.9025 178.195 33.803 178.334 33.6705C178.473 33.5379 178.579 33.3755 178.652 33.1832L180.611 33.3125C180.511 33.7831 180.307 34.1941 179.999 34.5455C179.694 34.8935 179.3 35.1652 178.816 35.3608C178.335 35.553 177.78 35.6491 177.15 35.6491ZM184.215 35.6442C183.728 35.6442 183.294 35.5597 182.913 35.3906C182.531 35.2183 182.23 34.9647 182.008 34.63C181.789 34.2919 181.68 33.871 181.68 33.3672C181.68 32.9429 181.757 32.5866 181.913 32.2983C182.069 32.0099 182.281 31.7779 182.55 31.6023C182.818 31.4266 183.123 31.294 183.464 31.2045C183.809 31.1151 184.17 31.0521 184.548 31.0156C184.992 30.9692 185.35 30.9261 185.622 30.8864C185.894 30.8433 186.091 30.7803 186.214 30.6974C186.336 30.6146 186.398 30.492 186.398 30.3295V30.2997C186.398 29.9848 186.298 29.7412 186.099 29.5689C185.904 29.3965 185.625 29.3104 185.264 29.3104C184.883 29.3104 184.58 29.3949 184.354 29.5639C184.129 29.7296 183.98 29.9384 183.907 30.1903L181.948 30.0312C182.047 29.5672 182.243 29.1662 182.535 28.8281C182.826 28.4867 183.203 28.2249 183.663 28.0426C184.127 27.857 184.664 27.7642 185.274 27.7642C185.698 27.7642 186.104 27.8139 186.492 27.9134C186.883 28.0128 187.23 28.1669 187.531 28.3757C187.836 28.5845 188.076 28.853 188.252 29.1811C188.428 29.5059 188.516 29.8954 188.516 30.3494V35.5H186.507V34.4411H186.447C186.325 34.6797 186.161 34.8902 185.955 35.0724C185.75 35.2514 185.503 35.3923 185.214 35.495C184.926 35.5945 184.593 35.6442 184.215 35.6442ZM184.822 34.1825C185.133 34.1825 185.408 34.1212 185.647 33.9986C185.886 33.8726 186.073 33.7036 186.209 33.4915C186.345 33.2794 186.413 33.0391 186.413 32.7706V31.9602C186.346 32.0033 186.255 32.0431 186.139 32.0795C186.026 32.1127 185.899 32.1442 185.756 32.174C185.614 32.2005 185.471 32.2254 185.329 32.2486C185.186 32.2685 185.057 32.2867 184.941 32.3033C184.692 32.3397 184.475 32.3977 184.29 32.4773C184.104 32.5568 183.96 32.6645 183.857 32.8004C183.754 32.933 183.703 33.0987 183.703 33.2976C183.703 33.5859 183.807 33.8063 184.016 33.9588C184.228 34.108 184.497 34.1825 184.822 34.1825ZM190.159 35.5V27.8636H192.212V29.196H192.291C192.431 28.7221 192.664 28.3641 192.992 28.1222C193.321 27.8769 193.698 27.7543 194.126 27.7543C194.232 27.7543 194.346 27.7609 194.469 27.7741C194.592 27.7874 194.699 27.8056 194.792 27.8288V29.7081C194.693 29.6783 194.555 29.6518 194.38 29.6286C194.204 29.6054 194.043 29.5938 193.897 29.5938C193.586 29.5938 193.307 29.6617 193.062 29.7976C192.82 29.9302 192.628 30.1158 192.485 30.3544C192.346 30.593 192.277 30.8681 192.277 31.1797V35.5H190.159ZM198.005 25.3182V35.5H195.887V25.3182H198.005ZM202.982 35.5V25.3182H205.134V29.5192H209.504V25.3182H211.652V35.5H209.504V31.294H205.134V35.5H202.982ZM215.565 35.6442C215.078 35.6442 214.643 35.5597 214.262 35.3906C213.881 35.2183 213.579 34.9647 213.357 34.63C213.139 34.2919 213.029 33.871 213.029 33.3672C213.029 32.9429 213.107 32.5866 213.263 32.2983C213.419 32.0099 213.631 31.7779 213.899 31.6023C214.168 31.4266 214.473 31.294 214.814 31.2045C215.159 31.1151 215.52 31.0521 215.898 31.0156C216.342 30.9692 216.7 30.9261 216.972 30.8864C217.243 30.8433 217.441 30.7803 217.563 30.6974C217.686 30.6146 217.747 30.492 217.747 30.3295V30.2997C217.747 29.9848 217.648 29.7412 217.449 29.5689C217.253 29.3965 216.975 29.3104 216.614 29.3104C216.233 29.3104 215.929 29.3949 215.704 29.5639C215.479 29.7296 215.329 29.9384 215.256 30.1903L213.298 30.0312C213.397 29.5672 213.593 29.1662 213.884 28.8281C214.176 28.4867 214.552 28.2249 215.013 28.0426C215.477 27.857 216.014 27.7642 216.624 27.7642C217.048 27.7642 217.454 27.8139 217.842 27.9134C218.233 28.0128 218.579 28.1669 218.881 28.3757C219.186 28.5845 219.426 28.853 219.602 29.1811C219.777 29.5059 219.865 29.8954 219.865 30.3494V35.5H217.857V34.4411H217.797C217.674 34.6797 217.51 34.8902 217.305 35.0724C217.099 35.2514 216.852 35.3923 216.564 35.495C216.276 35.5945 215.943 35.6442 215.565 35.6442ZM216.171 34.1825C216.483 34.1825 216.758 34.1212 216.997 33.9986C217.235 33.8726 217.422 33.7036 217.558 33.4915C217.694 33.2794 217.762 33.0391 217.762 32.7706V31.9602C217.696 32.0033 217.605 32.0431 217.489 32.0795C217.376 32.1127 217.248 32.1442 217.106 32.174C216.963 32.2005 216.821 32.2254 216.678 32.2486C216.536 32.2685 216.407 32.2867 216.291 32.3033C216.042 32.3397 215.825 32.3977 215.639 32.4773C215.454 32.5568 215.31 32.6645 215.207 32.8004C215.104 32.933 215.053 33.0987 215.053 33.2976C215.053 33.5859 215.157 33.8063 215.366 33.9588C215.578 34.108 215.846 34.1825 216.171 34.1825ZM221.508 35.5V27.8636H223.562V29.196H223.641C223.78 28.7221 224.014 28.3641 224.342 28.1222C224.67 27.8769 225.048 27.7543 225.476 27.7543C225.582 27.7543 225.696 27.7609 225.819 27.7741C225.941 27.7874 226.049 27.8056 226.142 27.8288V29.7081C226.042 29.6783 225.905 29.6518 225.729 29.6286C225.553 29.6054 225.393 29.5938 225.247 29.5938C224.935 29.5938 224.657 29.6617 224.412 29.7976C224.17 29.9302 223.977 30.1158 223.835 30.3544C223.696 30.593 223.626 30.8681 223.626 31.1797V35.5H221.508ZM227.277 35.5V25.3182H229.394V29.1463H229.459C229.552 28.9408 229.686 28.732 229.862 28.5199C230.041 28.3045 230.273 28.1255 230.558 27.983C230.846 27.8371 231.204 27.7642 231.632 27.7642C232.188 27.7642 232.702 27.91 233.173 28.2017C233.643 28.4901 234.02 28.9259 234.301 29.5092C234.583 30.0893 234.724 30.8168 234.724 31.6918C234.724 32.5436 234.586 33.2628 234.311 33.8494C234.04 34.4328 233.668 34.8752 233.198 35.1768C232.73 35.4751 232.207 35.6243 231.627 35.6243C231.216 35.6243 230.866 35.5563 230.578 35.4205C230.293 35.2846 230.059 35.1139 229.877 34.9084C229.694 34.6996 229.555 34.4891 229.459 34.277H229.365V35.5H227.277ZM229.35 31.6818C229.35 32.1359 229.413 32.532 229.539 32.87C229.665 33.2081 229.847 33.4716 230.085 33.6605C230.324 33.8461 230.614 33.9389 230.956 33.9389C231.3 33.9389 231.592 33.8445 231.831 33.6555C232.069 33.4633 232.25 33.1982 232.372 32.8601C232.498 32.5187 232.561 32.1259 232.561 31.6818C232.561 31.241 232.5 30.8532 232.377 30.5185C232.255 30.1837 232.074 29.9219 231.835 29.733C231.597 29.544 231.304 29.4496 230.956 29.4496C230.611 29.4496 230.319 29.5407 230.081 29.723C229.845 29.9053 229.665 30.1638 229.539 30.4986C229.413 30.8333 229.35 31.2277 229.35 31.6818ZM239.587 35.6491C238.815 35.6491 238.147 35.4851 237.584 35.157C237.024 34.8255 236.591 34.3648 236.286 33.7749C235.981 33.1816 235.829 32.4938 235.829 31.7116C235.829 30.9228 235.981 30.2334 236.286 29.6435C236.591 29.0502 237.024 28.5895 237.584 28.2614C238.147 27.9299 238.815 27.7642 239.587 27.7642C240.36 27.7642 241.026 27.9299 241.586 28.2614C242.149 28.5895 242.584 29.0502 242.889 29.6435C243.194 30.2334 243.346 30.9228 243.346 31.7116C243.346 32.4938 243.194 33.1816 242.889 33.7749C242.584 34.3648 242.149 34.8255 241.586 35.157C241.026 35.4851 240.36 35.6491 239.587 35.6491ZM239.597 34.0085C239.949 34.0085 240.242 33.9091 240.477 33.7102C240.713 33.508 240.89 33.233 241.009 32.8849C241.132 32.5369 241.193 32.1409 241.193 31.6967C241.193 31.2526 241.132 30.8565 241.009 30.5085C240.89 30.1605 240.713 29.8854 240.477 29.6832C240.242 29.4811 239.949 29.38 239.597 29.38C239.243 29.38 238.944 29.4811 238.703 29.6832C238.464 29.8854 238.283 30.1605 238.161 30.5085C238.041 30.8565 237.982 31.2526 237.982 31.6967C237.982 32.1409 238.041 32.5369 238.161 32.8849C238.283 33.233 238.464 33.508 238.703 33.7102C238.944 33.9091 239.243 34.0085 239.597 34.0085ZM244.723 35.5V27.8636H246.776V29.196H246.856C246.995 28.7221 247.229 28.3641 247.557 28.1222C247.885 27.8769 248.263 27.7543 248.69 27.7543C248.796 27.7543 248.911 27.7609 249.033 27.7741C249.156 27.7874 249.264 27.8056 249.357 27.8288V29.7081C249.257 29.6783 249.12 29.6518 248.944 29.6286C248.768 29.6054 248.608 29.5938 248.462 29.5938C248.15 29.5938 247.872 29.6617 247.627 29.7976C247.385 29.9302 247.192 30.1158 247.05 30.3544C246.911 30.593 246.841 30.8681 246.841 31.1797V35.5H244.723ZM255.869 35.6442C255.382 35.6442 254.948 35.5597 254.567 35.3906C254.186 35.2183 253.884 34.9647 253.662 34.63C253.443 34.2919 253.334 33.871 253.334 33.3672C253.334 32.9429 253.412 32.5866 253.568 32.2983C253.723 32.0099 253.935 31.7779 254.204 31.6023C254.472 31.4266 254.777 31.294 255.119 31.2045C255.463 31.1151 255.825 31.0521 256.203 31.0156C256.647 30.9692 257.005 30.9261 257.276 30.8864C257.548 30.8433 257.745 30.7803 257.868 30.6974C257.991 30.6146 258.052 30.492 258.052 30.3295V30.2997C258.052 29.9848 257.953 29.7412 257.754 29.5689C257.558 29.3965 257.28 29.3104 256.918 29.3104C256.537 29.3104 256.234 29.3949 256.009 29.5639C255.783 29.7296 255.634 29.9384 255.561 30.1903L253.602 30.0312C253.702 29.5672 253.897 29.1662 254.189 28.8281C254.481 28.4867 254.857 28.2249 255.318 28.0426C255.782 27.857 256.319 27.7642 256.928 27.7642C257.353 27.7642 257.759 27.8139 258.146 27.9134C258.537 28.0128 258.884 28.1669 259.185 28.3757C259.49 28.5845 259.731 28.853 259.906 29.1811C260.082 29.5059 260.17 29.8954 260.17 30.3494V35.5H258.161V34.4411H258.102C257.979 34.6797 257.815 34.8902 257.609 35.0724C257.404 35.2514 257.157 35.3923 256.869 35.495C256.58 35.5945 256.247 35.6442 255.869 35.6442ZM256.476 34.1825C256.787 34.1825 257.063 34.1212 257.301 33.9986C257.54 33.8726 257.727 33.7036 257.863 33.4915C257.999 33.2794 258.067 33.0391 258.067 32.7706V31.9602C258.001 32.0033 257.909 32.0431 257.793 32.0795C257.681 32.1127 257.553 32.1442 257.411 32.174C257.268 32.2005 257.126 32.2254 256.983 32.2486C256.841 32.2685 256.711 32.2867 256.595 32.3033C256.347 32.3397 256.13 32.3977 255.944 32.4773C255.758 32.5568 255.614 32.6645 255.511 32.8004C255.409 32.933 255.357 33.0987 255.357 33.2976C255.357 33.5859 255.462 33.8063 255.671 33.9588C255.883 34.108 256.151 34.1825 256.476 34.1825ZM263.931 31.0852V35.5H261.813V27.8636H263.831V29.2109H263.921C264.09 28.7668 264.373 28.4155 264.771 28.157C265.169 27.8951 265.651 27.7642 266.218 27.7642C266.748 27.7642 267.21 27.8802 267.605 28.1122C267.999 28.3442 268.306 28.6757 268.525 29.1065C268.743 29.5341 268.853 30.0445 268.853 30.6378V35.5H266.735V31.0156C266.738 30.5483 266.619 30.1837 266.377 29.9219C266.135 29.6567 265.802 29.5241 265.378 29.5241C265.093 29.5241 264.841 29.5855 264.622 29.7081C264.406 29.8307 264.237 30.0097 264.115 30.245C263.995 30.477 263.934 30.7571 263.931 31.0852ZM273.336 35.6243C272.756 35.6243 272.23 35.4751 271.76 35.1768C271.293 34.8752 270.921 34.4328 270.646 33.8494C270.374 33.2628 270.239 32.5436 270.239 31.6918C270.239 30.8168 270.379 30.0893 270.661 29.5092C270.943 28.9259 271.317 28.4901 271.785 28.2017C272.255 27.91 272.771 27.7642 273.331 27.7642C273.758 27.7642 274.115 27.8371 274.4 27.983C274.688 28.1255 274.92 28.3045 275.096 28.5199C275.275 28.732 275.411 28.9408 275.503 29.1463H275.568V25.3182H277.681V35.5H275.593V34.277H275.503C275.404 34.4891 275.263 34.6996 275.081 34.9084C274.902 35.1139 274.668 35.2846 274.38 35.4205C274.095 35.5563 273.747 35.6243 273.336 35.6243ZM274.007 33.9389C274.348 33.9389 274.637 33.8461 274.872 33.6605C275.111 33.4716 275.293 33.2081 275.419 32.87C275.548 32.532 275.613 32.1359 275.613 31.6818C275.613 31.2277 275.55 30.8333 275.424 30.4986C275.298 30.1638 275.116 29.9053 274.877 29.723C274.638 29.5407 274.348 29.4496 274.007 29.4496C273.659 29.4496 273.366 29.544 273.127 29.733C272.888 29.9219 272.708 30.1837 272.585 30.5185C272.463 30.8532 272.401 31.241 272.401 31.6818C272.401 32.1259 272.463 32.5187 272.585 32.8601C272.711 33.1982 272.892 33.4633 273.127 33.6555C273.366 33.8445 273.659 33.9389 274.007 33.9389ZM113.8 52.5H110.191V42.3182H113.83C114.854 42.3182 115.736 42.522 116.475 42.9297C117.214 43.334 117.782 43.9157 118.18 44.6747C118.581 45.4337 118.782 46.3419 118.782 47.3991C118.782 48.4598 118.581 49.3712 118.18 50.1335C117.782 50.8958 117.21 51.4808 116.465 51.8885C115.722 52.2962 114.834 52.5 113.8 52.5ZM112.343 50.6555H113.71C114.347 50.6555 114.882 50.5429 115.316 50.3175C115.754 50.0888 116.082 49.7358 116.301 49.2585C116.523 48.7779 116.634 48.1581 116.634 47.3991C116.634 46.6468 116.523 46.032 116.301 45.5547C116.082 45.0774 115.755 44.7261 115.321 44.5007C114.887 44.2753 114.352 44.1626 113.715 44.1626H112.343V50.6555ZM123.816 52.6491C123.031 52.6491 122.355 52.4901 121.788 52.1719C121.225 51.8504 120.79 51.3963 120.486 50.8097C120.181 50.2197 120.028 49.522 120.028 48.7166C120.028 47.9311 120.181 47.2417 120.486 46.6484C120.79 46.0552 121.22 45.5928 121.773 45.2614C122.33 44.9299 122.983 44.7642 123.732 44.7642C124.236 44.7642 124.705 44.8454 125.139 45.0078C125.576 45.1669 125.958 45.4072 126.282 45.7287C126.611 46.0502 126.866 46.4545 127.048 46.9418C127.23 47.4257 127.321 47.9924 127.321 48.642V49.2237H120.873V47.9112H125.328C125.328 47.6063 125.262 47.3362 125.129 47.1009C124.996 46.8655 124.812 46.6816 124.577 46.549C124.345 46.4131 124.075 46.3452 123.767 46.3452C123.445 46.3452 123.16 46.4197 122.912 46.5689C122.666 46.7147 122.474 46.9119 122.335 47.1605C122.196 47.4058 122.124 47.6792 122.121 47.9808V49.2287C122.121 49.6065 122.191 49.933 122.33 50.2081C122.473 50.4832 122.673 50.6953 122.932 50.8445C123.19 50.9936 123.497 51.0682 123.851 51.0682C124.087 51.0682 124.302 51.035 124.498 50.9688C124.693 50.9025 124.861 50.803 125 50.6705C125.139 50.5379 125.245 50.3755 125.318 50.1832L127.277 50.3125C127.177 50.7831 126.973 51.1941 126.665 51.5455C126.36 51.8935 125.966 52.1652 125.482 52.3608C125.001 52.553 124.446 52.6491 123.816 52.6491ZM132.154 52.6491C131.372 52.6491 130.699 52.4834 130.135 52.152C129.575 51.8172 129.144 51.3532 128.843 50.7599C128.544 50.1667 128.395 49.4839 128.395 48.7116C128.395 47.9295 128.546 47.2434 128.848 46.6534C129.153 46.0601 129.585 45.5978 130.145 45.2663C130.705 44.9316 131.372 44.7642 132.144 44.7642C132.81 44.7642 133.393 44.8852 133.894 45.1271C134.394 45.3691 134.79 45.7088 135.082 46.1463C135.374 46.5838 135.535 47.0975 135.564 47.6875H133.566C133.509 47.3063 133.36 46.9998 133.118 46.7678C132.88 46.5324 132.566 46.4148 132.179 46.4148C131.851 46.4148 131.564 46.5043 131.319 46.6832C131.077 46.8589 130.888 47.1158 130.752 47.4538C130.616 47.7919 130.548 48.2012 130.548 48.6818C130.548 49.169 130.614 49.5833 130.747 49.9247C130.883 50.2661 131.073 50.5263 131.319 50.7053C131.564 50.8842 131.851 50.9737 132.179 50.9737C132.421 50.9737 132.638 50.924 132.83 50.8246C133.026 50.7251 133.186 50.581 133.312 50.392C133.441 50.1998 133.526 49.9695 133.566 49.701H135.564C135.531 50.2843 135.372 50.7981 135.087 51.2422C134.805 51.683 134.416 52.0277 133.919 52.2763C133.422 52.5249 132.833 52.6491 132.154 52.6491ZM139.038 42.3182V52.5H136.92V42.3182H139.038ZM142.912 52.6442C142.425 52.6442 141.991 52.5597 141.61 52.3906C141.229 52.2183 140.927 51.9647 140.705 51.63C140.486 51.2919 140.377 50.871 140.377 50.3672C140.377 49.9429 140.455 49.5866 140.611 49.2983C140.766 49.0099 140.978 48.7779 141.247 48.6023C141.515 48.4266 141.82 48.294 142.162 48.2045C142.506 48.1151 142.868 48.0521 143.245 48.0156C143.69 47.9692 144.048 47.9261 144.319 47.8864C144.591 47.8433 144.788 47.7803 144.911 47.6974C145.034 47.6146 145.095 47.492 145.095 47.3295V47.2997C145.095 46.9848 144.995 46.7412 144.797 46.5689C144.601 46.3965 144.323 46.3104 143.961 46.3104C143.58 46.3104 143.277 46.3949 143.052 46.5639C142.826 46.7296 142.677 46.9384 142.604 47.1903L140.645 47.0312C140.745 46.5672 140.94 46.1662 141.232 45.8281C141.524 45.4867 141.9 45.2249 142.361 45.0426C142.825 44.857 143.361 44.7642 143.971 44.7642C144.396 44.7642 144.802 44.8139 145.189 44.9134C145.58 45.0128 145.927 45.1669 146.228 45.3757C146.533 45.5845 146.774 45.853 146.949 46.1811C147.125 46.5059 147.213 46.8954 147.213 47.3494V52.5H145.204V51.4411H145.145C145.022 51.6797 144.858 51.8902 144.652 52.0724C144.447 52.2514 144.2 52.3923 143.912 52.495C143.623 52.5945 143.29 52.6442 142.912 52.6442ZM143.519 51.1825C143.83 51.1825 144.106 51.1212 144.344 50.9986C144.583 50.8726 144.77 50.7036 144.906 50.4915C145.042 50.2794 145.11 50.0391 145.11 49.7706V48.9602C145.044 49.0033 144.952 49.0431 144.836 49.0795C144.724 49.1127 144.596 49.1442 144.454 49.174C144.311 49.2005 144.169 49.2254 144.026 49.2486C143.883 49.2685 143.754 49.2867 143.638 49.3033C143.39 49.3397 143.173 49.3977 142.987 49.4773C142.801 49.5568 142.657 49.6645 142.554 49.8004C142.452 49.933 142.4 50.0987 142.4 50.2976C142.4 50.5859 142.505 50.8063 142.714 50.9588C142.926 51.108 143.194 51.1825 143.519 51.1825ZM148.856 52.5V44.8636H150.909V46.196H150.989C151.128 45.7221 151.362 45.3641 151.69 45.1222C152.018 44.8769 152.396 44.7543 152.823 44.7543C152.929 44.7543 153.044 44.7609 153.166 44.7741C153.289 44.7874 153.397 44.8056 153.489 44.8288V46.7081C153.39 46.6783 153.252 46.6518 153.077 46.6286C152.901 46.6054 152.74 46.5938 152.595 46.5938C152.283 46.5938 152.005 46.6617 151.759 46.7976C151.517 46.9302 151.325 47.1158 151.183 47.3544C151.043 47.593 150.974 47.8681 150.974 48.1797V52.5H148.856ZM156.543 52.6442C156.056 52.6442 155.622 52.5597 155.241 52.3906C154.86 52.2183 154.558 51.9647 154.336 51.63C154.117 51.2919 154.008 50.871 154.008 50.3672C154.008 49.9429 154.086 49.5866 154.241 49.2983C154.397 49.0099 154.609 48.7779 154.878 48.6023C155.146 48.4266 155.451 48.294 155.793 48.2045C156.137 48.1151 156.498 48.0521 156.876 48.0156C157.32 47.9692 157.678 47.9261 157.95 47.8864C158.222 47.8433 158.419 47.7803 158.542 47.6974C158.664 47.6146 158.726 47.492 158.726 47.3295V47.2997C158.726 46.9848 158.626 46.7412 158.427 46.5689C158.232 46.3965 157.954 46.3104 157.592 46.3104C157.211 46.3104 156.908 46.3949 156.682 46.5639C156.457 46.7296 156.308 46.9384 156.235 47.1903L154.276 47.0312C154.376 46.5672 154.571 46.1662 154.863 45.8281C155.155 45.4867 155.531 45.2249 155.991 45.0426C156.455 44.857 156.992 44.7642 157.602 44.7642C158.026 44.7642 158.432 44.8139 158.82 44.9134C159.211 45.0128 159.558 45.1669 159.859 45.3757C160.164 45.5845 160.405 45.853 160.58 46.1811C160.756 46.5059 160.844 46.8954 160.844 47.3494V52.5H158.835V51.4411H158.775C158.653 51.6797 158.489 51.8902 158.283 52.0724C158.078 52.2514 157.831 52.3923 157.543 52.495C157.254 52.5945 156.921 52.6442 156.543 52.6442ZM157.15 51.1825C157.461 51.1825 157.736 51.1212 157.975 50.9986C158.214 50.8726 158.401 50.7036 158.537 50.4915C158.673 50.2794 158.741 50.0391 158.741 49.7706V48.9602C158.674 49.0033 158.583 49.0431 158.467 49.0795C158.355 49.1127 158.227 49.1442 158.084 49.174C157.942 49.2005 157.799 49.2254 157.657 49.2486C157.514 49.2685 157.385 49.2867 157.269 49.3033C157.021 49.3397 156.803 49.3977 156.618 49.4773C156.432 49.5568 156.288 49.6645 156.185 49.8004C156.083 49.933 156.031 50.0987 156.031 50.2976C156.031 50.5859 156.136 50.8063 156.344 50.9588C156.556 51.108 156.825 51.1825 157.15 51.1825ZM166.549 44.8636V46.4545H161.95V44.8636H166.549ZM162.994 43.0341H165.112V50.1534C165.112 50.349 165.142 50.5014 165.201 50.6108C165.261 50.7169 165.344 50.7914 165.45 50.8345C165.559 50.8776 165.685 50.8991 165.828 50.8991C165.927 50.8991 166.027 50.8909 166.126 50.8743C166.225 50.8544 166.302 50.8395 166.355 50.8295L166.688 52.4055C166.582 52.4387 166.433 52.4768 166.24 52.5199C166.048 52.5663 165.814 52.5945 165.539 52.6044C165.029 52.6243 164.581 52.5563 164.197 52.4006C163.816 52.2448 163.519 52.0028 163.307 51.6747C163.095 51.3466 162.991 50.9323 162.994 50.4318V43.0341ZM167.928 52.5V44.8636H170.046V52.5H167.928ZM168.992 43.8793C168.677 43.8793 168.407 43.7749 168.182 43.5661C167.96 43.3539 167.849 43.1004 167.849 42.8054C167.849 42.5137 167.96 42.2635 168.182 42.0547C168.407 41.8426 168.677 41.7365 168.992 41.7365C169.307 41.7365 169.575 41.8426 169.797 42.0547C170.023 42.2635 170.136 42.5137 170.136 42.8054C170.136 43.1004 170.023 43.3539 169.797 43.5661C169.575 43.7749 169.307 43.8793 168.992 43.8793ZM175.193 52.6491C174.421 52.6491 173.753 52.4851 173.189 52.157C172.629 51.8255 172.197 51.3648 171.892 50.7749C171.587 50.1816 171.434 49.4938 171.434 48.7116C171.434 47.9228 171.587 47.2334 171.892 46.6435C172.197 46.0502 172.629 45.5895 173.189 45.2614C173.753 44.9299 174.421 44.7642 175.193 44.7642C175.965 44.7642 176.631 44.9299 177.191 45.2614C177.755 45.5895 178.189 46.0502 178.494 46.6435C178.799 47.2334 178.951 47.9228 178.951 48.7116C178.951 49.4938 178.799 50.1816 178.494 50.7749C178.189 51.3648 177.755 51.8255 177.191 52.157C176.631 52.4851 175.965 52.6491 175.193 52.6491ZM175.203 51.0085C175.554 51.0085 175.848 50.9091 176.083 50.7102C176.318 50.508 176.495 50.233 176.615 49.8849C176.737 49.5369 176.799 49.1409 176.799 48.6967C176.799 48.2526 176.737 47.8565 176.615 47.5085C176.495 47.1605 176.318 46.8854 176.083 46.6832C175.848 46.4811 175.554 46.38 175.203 46.38C174.848 46.38 174.55 46.4811 174.308 46.6832C174.069 46.8854 173.889 47.1605 173.766 47.5085C173.647 47.8565 173.587 48.2526 173.587 48.6967C173.587 49.1409 173.647 49.5369 173.766 49.8849C173.889 50.233 174.069 50.508 174.308 50.7102C174.55 50.9091 174.848 51.0085 175.203 51.0085ZM182.446 48.0852V52.5H180.329V44.8636H182.347V46.2109H182.437C182.606 45.7668 182.889 45.4155 183.287 45.157C183.684 44.8951 184.167 44.7642 184.733 44.7642C185.264 44.7642 185.726 44.8802 186.12 45.1122C186.515 45.3442 186.821 45.6757 187.04 46.1065C187.259 46.5341 187.368 47.0445 187.368 47.6378V52.5H185.25V48.0156C185.254 47.5483 185.134 47.1837 184.892 46.9219C184.651 46.6567 184.317 46.5241 183.893 46.5241C183.608 46.5241 183.356 46.5855 183.138 46.7081C182.922 46.8307 182.753 47.0097 182.63 47.245C182.511 47.477 182.45 47.7571 182.446 48.0852ZM195.728 52.6491C194.956 52.6491 194.288 52.4851 193.725 52.157C193.164 51.8255 192.732 51.3648 192.427 50.7749C192.122 50.1816 191.97 49.4938 191.97 48.7116C191.97 47.9228 192.122 47.2334 192.427 46.6435C192.732 46.0502 193.164 45.5895 193.725 45.2614C194.288 44.9299 194.956 44.7642 195.728 44.7642C196.5 44.7642 197.167 44.9299 197.727 45.2614C198.29 45.5895 198.724 46.0502 199.029 46.6435C199.334 47.2334 199.487 47.9228 199.487 48.7116C199.487 49.4938 199.334 50.1816 199.029 50.7749C198.724 51.3648 198.29 51.8255 197.727 52.157C197.167 52.4851 196.5 52.6491 195.728 52.6491ZM195.738 51.0085C196.089 51.0085 196.383 50.9091 196.618 50.7102C196.853 50.508 197.031 50.233 197.15 49.8849C197.273 49.5369 197.334 49.1409 197.334 48.6967C197.334 48.2526 197.273 47.8565 197.15 47.5085C197.031 47.1605 196.853 46.8854 196.618 46.6832C196.383 46.4811 196.089 46.38 195.738 46.38C195.383 46.38 195.085 46.4811 194.843 46.6832C194.604 46.8854 194.424 47.1605 194.301 47.5085C194.182 47.8565 194.122 48.2526 194.122 48.6967C194.122 49.1409 194.182 49.5369 194.301 49.8849C194.424 50.233 194.604 50.508 194.843 50.7102C195.085 50.9091 195.383 51.0085 195.738 51.0085ZM204.97 44.8636V46.4545H200.257V44.8636H204.97ZM201.336 52.5V44.3118C201.336 43.7583 201.444 43.2992 201.659 42.9347C201.878 42.5701 202.176 42.2966 202.554 42.1143C202.932 41.9321 203.361 41.8409 203.842 41.8409C204.167 41.8409 204.463 41.8658 204.732 41.9155C205.003 41.9652 205.206 42.0099 205.338 42.0497L204.96 43.6406C204.877 43.6141 204.775 43.5893 204.652 43.5661C204.533 43.5429 204.41 43.5312 204.284 43.5312C203.973 43.5312 203.756 43.6042 203.633 43.75C203.51 43.8925 203.449 44.093 203.449 44.3516V52.5H201.336ZM211.836 52.5L208.923 42.3182H211.274L212.96 49.3928H213.044L214.903 42.3182H216.917L218.771 49.4077H218.861L220.546 42.3182H222.898L219.984 52.5H217.886L215.948 45.843H215.868L213.934 52.5H211.836ZM225.367 52.6442C224.88 52.6442 224.446 52.5597 224.065 52.3906C223.684 52.2183 223.382 51.9647 223.16 51.63C222.941 51.2919 222.832 50.871 222.832 50.3672C222.832 49.9429 222.91 49.5866 223.066 49.2983C223.221 49.0099 223.434 48.7779 223.702 48.6023C223.97 48.4266 224.275 48.294 224.617 48.2045C224.961 48.1151 225.323 48.0521 225.701 48.0156C226.145 47.9692 226.503 47.9261 226.774 47.8864C227.046 47.8433 227.243 47.7803 227.366 47.6974C227.489 47.6146 227.55 47.492 227.55 47.3295V47.2997C227.55 46.9848 227.451 46.7412 227.252 46.5689C227.056 46.3965 226.778 46.3104 226.416 46.3104C226.035 46.3104 225.732 46.3949 225.507 46.5639C225.281 46.7296 225.132 46.9384 225.059 47.1903L223.1 47.0312C223.2 46.5672 223.395 46.1662 223.687 45.8281C223.979 45.4867 224.355 45.2249 224.816 45.0426C225.28 44.857 225.817 44.7642 226.426 44.7642C226.851 44.7642 227.257 44.8139 227.644 44.9134C228.036 45.0128 228.382 45.1669 228.684 45.3757C228.988 45.5845 229.229 45.853 229.404 46.1811C229.58 46.5059 229.668 46.8954 229.668 47.3494V52.5H227.659V51.4411H227.6C227.477 51.6797 227.313 51.8902 227.108 52.0724C226.902 52.2514 226.655 52.3923 226.367 52.495C226.078 52.5945 225.745 52.6442 225.367 52.6442ZM225.974 51.1825C226.286 51.1825 226.561 51.1212 226.799 50.9986C227.038 50.8726 227.225 50.7036 227.361 50.4915C227.497 50.2794 227.565 50.0391 227.565 49.7706V48.9602C227.499 49.0033 227.407 49.0431 227.291 49.0795C227.179 49.1127 227.051 49.1442 226.909 49.174C226.766 49.2005 226.624 49.2254 226.481 49.2486C226.339 49.2685 226.209 49.2867 226.093 49.3033C225.845 49.3397 225.628 49.3977 225.442 49.4773C225.256 49.5568 225.112 49.6645 225.009 49.8004C224.907 49.933 224.855 50.0987 224.855 50.2976C224.855 50.5859 224.96 50.8063 225.169 50.9588C225.381 51.108 225.649 51.1825 225.974 51.1825ZM231.311 52.5V44.8636H233.364V46.196H233.444C233.583 45.7221 233.817 45.3641 234.145 45.1222C234.473 44.8769 234.851 44.7543 235.278 44.7543C235.384 44.7543 235.499 44.7609 235.621 44.7741C235.744 44.7874 235.852 44.8056 235.945 44.8288V46.7081C235.845 46.6783 235.708 46.6518 235.532 46.6286C235.356 46.6054 235.195 46.5938 235.05 46.5938C234.738 46.5938 234.46 46.6617 234.214 46.7976C233.972 46.9302 233.78 47.1158 233.638 47.3544C233.498 47.593 233.429 47.8681 233.429 48.1797V52.5H231.311Z" fill="white"/>
</svg>
