<svg width="43" height="44" viewBox="0 0 43 44" fill="none" xmlns="http://www.w3.org/2000/svg">
<path d="M24.8219 27.6367C25.3802 28.1978 25.8003 28.8811 26.0492 29.6326L26.8519 32.0997C26.919 32.2899 27.0434 32.4545 27.208 32.571C27.3726 32.6875 27.5693 32.7501 27.771 32.7501C27.9727 32.7501 28.1693 32.6875 28.334 32.571C28.4986 32.4545 28.623 32.2899 28.6901 32.0997L29.4928 29.6326C29.743 28.8829 30.1643 28.2018 30.7235 27.6432C31.2826 27.0847 31.9642 26.6641 32.7142 26.4147L35.1831 25.6121C35.3719 25.5438 35.535 25.419 35.6503 25.2547C35.7656 25.0904 35.8274 24.8946 35.8274 24.6939C35.8274 24.4931 35.7656 24.2973 35.6503 24.133C35.535 23.9687 35.3719 23.8439 35.1831 23.7756L35.133 23.7631L32.664 22.9604C31.9141 22.7111 31.2325 22.2905 30.6733 21.7319C30.1142 21.1734 29.6928 20.4923 29.4426 19.7426L28.6417 17.2755C28.575 17.0847 28.4506 16.9193 28.2858 16.8024C28.121 16.6854 27.9238 16.6226 27.7217 16.6226C27.5196 16.6226 27.3225 16.6854 27.1577 16.8024C26.9928 16.9193 26.8684 17.0847 26.8017 17.2755L25.999 19.7426C25.7539 20.4869 25.3402 21.1646 24.7901 21.7228C24.24 22.2809 23.5685 22.7045 22.8278 22.9604L20.3589 23.7631C20.1701 23.8314 20.007 23.9561 19.8917 24.1204C19.7764 24.2847 19.7146 24.4806 19.7146 24.6813C19.7146 24.882 19.7764 25.0779 19.8917 25.2422C20.007 25.4065 20.1701 25.5313 20.3589 25.5995L22.8278 26.4022C23.5803 26.653 24.2611 27.0759 24.8219 27.6367ZM28.6668 11.2501V15C28.3233 14.875 27.9585 14.8193 27.5933 14.8362C27.2281 14.853 26.8699 14.9421 26.5394 15.0982C26.2089 15.2543 25.9126 15.4743 25.6676 15.7457C25.4226 16.017 25.2338 16.3341 25.1122 16.6788L25.105 16.7003L24.297 19.1854C24.1387 19.665 23.8724 20.1018 23.5186 20.4621C23.1648 20.8225 22.7329 21.0967 22.2562 21.2637L19.7837 22.0646L19.764 22.0735C19.2243 22.264 18.757 22.6172 18.4264 23.0844C18.0958 23.5516 17.9183 24.1099 17.9183 24.6822C17.9183 25.2545 18.0958 25.8128 18.4264 26.28C18.757 26.7472 19.2243 27.1004 19.764 27.2909L19.7837 27.298L22.267 28.1043C22.74 28.262 23.1718 28.5271 23.5283 28.8747C22.4593 29.1901 21.3315 29.2519 20.2345 29.055C19.1374 28.8582 18.1014 28.4082 17.2088 27.7408C16.3161 27.0734 15.5914 26.207 15.0923 25.2104C14.5932 24.2139 14.3334 23.1146 14.3335 22.0001V11.2519C14.3335 9.35115 15.0886 7.52828 16.4326 6.18427C17.7766 4.84026 19.5994 4.08521 21.5002 4.08521C23.4009 4.08521 25.2238 4.84026 26.5678 6.18427C27.9118 7.52828 28.6668 9.34936 28.6668 11.2501ZM21.9481 31.856C22.8981 31.8555 23.8427 31.7123 24.7502 31.4314L25.1552 32.6766L25.1623 32.6981C25.3218 33.1496 25.5959 33.551 25.9542 33.8627C24.9514 34.2156 23.906 34.4337 22.8457 34.5113L22.8439 38.5748C22.8438 38.9152 22.7145 39.243 22.482 39.4917C22.2496 39.7405 21.9314 39.8918 21.5918 39.915C21.2521 39.9382 20.9163 39.8316 20.6522 39.6168C20.3881 39.4019 20.2154 39.0948 20.169 38.7575L20.1564 38.5748V34.5113C17.185 34.2906 14.3996 32.9808 12.3344 30.8329C10.2692 28.6851 9.0696 25.8504 8.96566 22.8726L8.9585 22.448V21.5522C8.9586 21.2117 9.08793 20.884 9.32036 20.6352C9.55279 20.3864 9.87099 20.2352 10.2107 20.212C10.5503 20.1887 10.8861 20.2953 11.1502 20.5102C11.4143 20.725 11.587 21.0321 11.6335 21.3694L11.646 21.5522V22.448C11.6458 24.8758 12.5843 27.2097 14.2653 28.9615C15.9463 30.7132 18.2395 31.7472 20.6652 31.8471L21.0522 31.8542L21.9481 31.856ZM39.4473 34.4808L40.8197 34.9252L40.8466 34.9323C40.9256 34.9602 40.9971 35.006 41.0555 35.0662C41.1138 35.1263 41.1575 35.1992 41.183 35.279C41.2085 35.3588 41.2152 35.4435 41.2025 35.5263C41.1898 35.6092 41.1582 35.6879 41.11 35.7565C41.0449 35.8481 40.9528 35.917 40.8466 35.9536L39.476 36.3979C39.0588 36.5367 38.6798 36.7706 38.3688 37.0813C38.0578 37.392 37.8235 37.7708 37.6843 38.1878L37.24 39.5566C37.2029 39.6625 37.1338 39.7541 37.0423 39.819C36.9508 39.8839 36.8415 39.9187 36.7293 39.9187C36.6172 39.9187 36.5078 39.8839 36.4163 39.819C36.3249 39.7541 36.2558 39.6625 36.2187 39.5566L35.7726 38.1878C35.6343 37.77 35.4005 37.3902 35.0898 37.0786C34.7791 36.767 34.4001 36.5321 33.9827 36.3925L32.6121 35.9464C32.5331 35.9185 32.4616 35.8727 32.4032 35.8126C32.3448 35.7524 32.3012 35.6796 32.2757 35.5998C32.2502 35.5199 32.2435 35.4353 32.2562 35.3524C32.2688 35.2696 32.3005 35.1908 32.3487 35.1222C32.4137 35.0306 32.5058 34.9617 32.6121 34.9252L33.9827 34.4808C34.3943 34.3385 34.7675 34.1031 35.0733 33.793C35.3791 33.4828 35.6092 33.1063 35.7457 32.6927L36.1918 31.3221C36.2289 31.2163 36.298 31.1246 36.3895 31.0597C36.4809 30.9949 36.5903 30.96 36.7025 30.96C36.8146 30.96 36.924 30.9949 37.0154 31.0597C37.1069 31.1246 37.176 31.2163 37.2131 31.3221L37.6592 32.691C37.7982 33.1077 38.0323 33.4864 38.3429 33.7971C38.6536 34.1078 39.0305 34.3418 39.4473 34.4808Z" fill="white"/>
</svg>
