<svg width="41" height="44" viewBox="0 0 41 44" fill="none" xmlns="http://www.w3.org/2000/svg">
<path d="M14.5832 23.8126H16.0415C16.4547 23.8126 16.8013 23.6726 17.0813 23.3926C17.3613 23.1126 17.5008 22.7665 17.4998 22.3542V20.8959C17.4998 20.4827 17.3598 20.1366 17.0798 19.8576C16.7998 19.5786 16.4537 19.4386 16.0415 19.4376H13.854C13.6596 19.4376 13.4894 19.5105 13.3436 19.6563C13.1978 19.8022 13.1248 19.9723 13.1248 20.1667V26.0001C13.1248 26.1945 13.1978 26.3647 13.3436 26.5105C13.4894 26.6563 13.6596 26.7292 13.854 26.7292C14.0484 26.7292 14.2186 26.6563 14.3644 26.5105C14.5103 26.3647 14.5832 26.1945 14.5832 26.0001V23.8126ZM14.5832 22.3542V20.8959H16.0415V22.3542H14.5832ZM21.8748 26.7292C22.288 26.7292 22.6346 26.5892 22.9146 26.3092C23.1946 26.0292 23.3341 25.6831 23.3332 25.2709V20.8959C23.3332 20.4827 23.1932 20.1366 22.9132 19.8576C22.6332 19.5786 22.2871 19.4386 21.8748 19.4376H19.6873C19.4929 19.4376 19.3228 19.5105 19.1769 19.6563C19.0311 19.8022 18.9582 19.9723 18.9582 20.1667V26.0001C18.9582 26.1945 19.0311 26.3647 19.1769 26.5105C19.3228 26.6563 19.4929 26.7292 19.6873 26.7292H21.8748ZM20.4165 25.2709V20.8959H21.8748V25.2709H20.4165ZM26.2498 23.8126H26.979C27.1734 23.8126 27.3436 23.7397 27.4894 23.5938C27.6353 23.448 27.7082 23.2779 27.7082 23.0834C27.7082 22.889 27.6353 22.7188 27.4894 22.573C27.3436 22.4272 27.1734 22.3542 26.979 22.3542H26.2498V20.8959H26.979C27.1734 20.8959 27.3436 20.823 27.4894 20.6772C27.6353 20.5313 27.7082 20.3612 27.7082 20.1667C27.7082 19.9723 27.6353 19.8022 27.4894 19.6563C27.3436 19.5105 27.1734 19.4376 26.979 19.4376H25.5207C25.3262 19.4376 25.1561 19.5105 25.0103 19.6563C24.8644 19.8022 24.7915 19.9723 24.7915 20.1667V26.0001C24.7915 26.1945 24.8644 26.3647 25.0103 26.5105C25.1561 26.6563 25.3262 26.7292 25.5207 26.7292C25.7151 26.7292 25.8853 26.6563 26.0311 26.5105C26.1769 26.3647 26.2498 26.1945 26.2498 26.0001V23.8126ZM11.6665 34.7501C10.8644 34.7501 10.178 34.4647 9.60734 33.894C9.03664 33.3233 8.75081 32.6365 8.74984 31.8334V14.3334C8.74984 13.5313 9.03567 12.8449 9.60734 12.2742C10.179 11.7036 10.8654 11.4177 11.6665 11.4167H29.1665C29.9686 11.4167 30.6555 11.7026 31.2271 12.2742C31.7988 12.8459 32.0841 13.5323 32.0832 14.3334V31.8334C32.0832 32.6355 31.7978 33.3224 31.2271 33.894C30.6564 34.4657 29.9696 34.7511 29.1665 34.7501H11.6665ZM5.83317 40.5834C5.03109 40.5834 4.3447 40.2981 3.774 39.7274C3.20331 39.1567 2.91748 38.4698 2.9165 37.6667V18.7084C2.9165 18.2952 3.0565 17.9491 3.3365 17.6701C3.6165 17.3911 3.96262 17.2511 4.37484 17.2501C4.78706 17.2491 5.13366 17.3891 5.41463 17.6701C5.6956 17.9511 5.83512 18.2972 5.83317 18.7084V37.6667H24.7915C25.2047 37.6667 25.5513 37.8067 25.8313 38.0867C26.1113 38.3667 26.2508 38.7129 26.2498 39.1251C26.2489 39.5373 26.1089 39.8839 25.8298 40.1649C25.5508 40.4458 25.2047 40.5854 24.7915 40.5834H5.83317Z" fill="black"/>
<mask id="path-2-inside-1_36_1536" fill="white">
<path d="M23.8196 18.2244C24.0725 18.404 24.3749 18.5009 24.6851 18.5017C24.9953 18.5025 25.2982 18.4072 25.5521 18.2289C25.7793 18.0669 25.9582 17.8453 26.0673 17.5882L26.7626 15.4682C26.9326 14.9572 27.2194 14.4928 27.6002 14.112C27.981 13.7312 28.4453 13.4444 28.9563 13.2744L30.9988 12.609C31.2918 12.5056 31.5457 12.3139 31.7252 12.0602C31.9047 11.8065 32.0011 11.5034 32.0011 11.1926C32.0011 10.8818 31.9047 10.5787 31.7252 10.325C31.5457 10.0713 31.2918 9.87959 30.9988 9.77622L28.9175 9.10516C28.4082 8.93466 27.9453 8.64845 27.5652 8.269C27.185 7.88955 26.898 7.42718 26.7266 6.91816L26.0634 4.87685C25.9602 4.58364 25.7684 4.32983 25.5144 4.15066C25.2595 3.97418 24.9568 3.87964 24.6467 3.87964C24.3367 3.87964 24.034 3.97418 23.7791 4.15066C23.5206 4.3337 23.3264 4.59349 23.2239 4.89316L22.5528 6.95585C22.3823 7.45191 22.1016 7.90287 21.7318 8.27485C21.362 8.64682 20.9126 8.93013 20.4176 9.10347L18.3774 9.7661C18.0827 9.86989 17.8278 10.063 17.648 10.3185C17.4683 10.574 17.3727 10.8792 17.3745 11.1916C17.3764 11.504 17.4756 11.808 17.6584 12.0614C17.8412 12.3147 18.0984 12.5048 18.3943 12.605L20.4119 13.2603C20.9231 13.432 21.3874 13.72 21.7683 14.1016C22.1492 14.4833 22.4362 14.9482 22.6068 15.4597L23.2706 17.4977C23.3735 17.7907 23.5653 18.045 23.819 18.2244M32.4916 23.3612C32.6765 23.4921 32.8973 23.5627 33.1239 23.5631L33.1267 23.5648C33.356 23.5643 33.5793 23.492 33.7654 23.358C33.9514 23.224 34.0908 23.0351 34.1639 22.8178L34.484 21.8334C34.5496 21.637 34.6599 21.4584 34.8062 21.3118C34.9525 21.1652 35.1309 21.0545 35.3272 20.9885L36.3341 20.6612C36.4935 20.6047 36.6378 20.5121 36.7554 20.3906C36.8731 20.2691 36.961 20.1219 37.0122 19.9607C37.0635 19.7995 37.0766 19.6286 37.0507 19.4614C37.0248 19.2943 36.9605 19.1354 36.8628 18.9973C36.7239 18.8027 36.5255 18.6586 36.2975 18.5867L35.3092 18.2666C35.1129 18.2008 34.9345 18.0903 34.7881 17.9439C34.6417 17.7975 34.5313 17.6192 34.4654 17.4228L34.1381 16.4165C34.0626 16.2013 33.9216 16.0151 33.735 15.8839C33.5484 15.7527 33.3254 15.6832 33.0973 15.6851C32.8692 15.687 32.6474 15.7601 32.463 15.8943C32.2785 16.0285 32.1406 16.217 32.0686 16.4334L31.7469 17.4217C31.683 17.6151 31.5758 17.7914 31.4335 17.9371C31.2912 18.0829 31.1175 18.1942 30.9256 18.2627L29.9188 18.59C29.7036 18.6655 29.5175 18.8063 29.3864 18.9928C29.2552 19.1792 29.1857 19.4021 29.1875 19.63C29.1893 19.858 29.2623 20.0797 29.3964 20.2641C29.5304 20.4485 29.7188 20.5863 29.9351 20.6583L30.9206 20.979C31.1174 21.0447 31.2963 21.1556 31.4427 21.3026C31.5892 21.4497 31.6993 21.629 31.7643 21.8261L32.0917 22.8318C32.1671 23.0456 32.3071 23.2307 32.4916 23.3612Z"/>
</mask>
<path d="M23.8196 18.2244C24.0725 18.404 24.3749 18.5009 24.6851 18.5017C24.9953 18.5025 25.2982 18.4072 25.5521 18.2289C25.7793 18.0669 25.9582 17.8453 26.0673 17.5882L26.7626 15.4682C26.9326 14.9572 27.2194 14.4928 27.6002 14.112C27.981 13.7312 28.4453 13.4444 28.9563 13.2744L30.9988 12.609C31.2918 12.5056 31.5457 12.3139 31.7252 12.0602C31.9047 11.8065 32.0011 11.5034 32.0011 11.1926C32.0011 10.8818 31.9047 10.5787 31.7252 10.325C31.5457 10.0713 31.2918 9.87959 30.9988 9.77622L28.9175 9.10516C28.4082 8.93466 27.9453 8.64845 27.5652 8.269C27.185 7.88955 26.898 7.42718 26.7266 6.91816L26.0634 4.87685C25.9602 4.58364 25.7684 4.32983 25.5144 4.15066C25.2595 3.97418 24.9568 3.87964 24.6467 3.87964C24.3367 3.87964 24.034 3.97418 23.7791 4.15066C23.5206 4.3337 23.3264 4.59349 23.2239 4.89316L22.5528 6.95585C22.3823 7.45191 22.1016 7.90287 21.7318 8.27485C21.362 8.64682 20.9126 8.93013 20.4176 9.10347L18.3774 9.7661C18.0827 9.86989 17.8278 10.063 17.648 10.3185C17.4683 10.574 17.3727 10.8792 17.3745 11.1916C17.3764 11.504 17.4756 11.808 17.6584 12.0614C17.8412 12.3147 18.0984 12.5048 18.3943 12.605L20.4119 13.2603C20.9231 13.432 21.3874 13.72 21.7683 14.1016C22.1492 14.4833 22.4362 14.9482 22.6068 15.4597L23.2706 17.4977C23.3735 17.7907 23.5653 18.045 23.819 18.2244M32.4916 23.3612C32.6765 23.4921 32.8973 23.5627 33.1239 23.5631L33.1267 23.5648C33.356 23.5643 33.5793 23.492 33.7654 23.358C33.9514 23.224 34.0908 23.0351 34.1639 22.8178L34.484 21.8334C34.5496 21.637 34.6599 21.4584 34.8062 21.3118C34.9525 21.1652 35.1309 21.0545 35.3272 20.9885L36.3341 20.6612C36.4935 20.6047 36.6378 20.5121 36.7554 20.3906C36.8731 20.2691 36.961 20.1219 37.0122 19.9607C37.0635 19.7995 37.0766 19.6286 37.0507 19.4614C37.0248 19.2943 36.9605 19.1354 36.8628 18.9973C36.7239 18.8027 36.5255 18.6586 36.2975 18.5867L35.3092 18.2666C35.1129 18.2008 34.9345 18.0903 34.7881 17.9439C34.6417 17.7975 34.5313 17.6192 34.4654 17.4228L34.1381 16.4165C34.0626 16.2013 33.9216 16.0151 33.735 15.8839C33.5484 15.7527 33.3254 15.6832 33.0973 15.6851C32.8692 15.687 32.6474 15.7601 32.463 15.8943C32.2785 16.0285 32.1406 16.217 32.0686 16.4334L31.7469 17.4217C31.683 17.6151 31.5758 17.7914 31.4335 17.9371C31.2912 18.0829 31.1175 18.1942 30.9256 18.2627L29.9188 18.59C29.7036 18.6655 29.5175 18.8063 29.3864 18.9928C29.2552 19.1792 29.1857 19.4021 29.1875 19.63C29.1893 19.858 29.2623 20.0797 29.3964 20.2641C29.5304 20.4485 29.7188 20.5863 29.9351 20.6583L30.9206 20.979C31.1174 21.0447 31.2963 21.1556 31.4427 21.3026C31.5892 21.4497 31.6993 21.629 31.7643 21.8261L32.0917 22.8318C32.1671 23.0456 32.3071 23.2307 32.4916 23.3612Z" fill="black"/>
<path d="M25.5521 18.2289L26.1267 19.0473L26.1325 19.0432L25.5521 18.2289ZM26.0673 17.5882L26.9878 17.979L27.0043 17.94L27.0175 17.8998L26.0673 17.5882ZM26.7626 15.4682L25.8137 15.1524L25.8124 15.1566L26.7626 15.4682ZM28.9563 13.2744L28.6465 12.3236L28.6406 12.3256L28.9563 13.2744ZM30.9988 12.609L31.3085 13.5598L31.32 13.5561L31.3313 13.552L30.9988 12.609ZM30.9988 9.77622L31.3313 8.83315L31.3185 8.82864L31.3056 8.82447L30.9988 9.77622ZM28.9175 9.10516L28.6 10.0535L28.6106 10.0569L28.9175 9.10516ZM26.7266 6.91816L25.7754 7.22716L25.7789 7.23731L26.7266 6.91816ZM26.0634 4.87685L27.0144 4.56786L27.0107 4.55641L27.0067 4.54504L26.0634 4.87685ZM25.5144 4.15066L26.0908 3.33348L26.0836 3.32845L25.5144 4.15066ZM24.6467 3.87964V4.87964V3.87964ZM23.7791 4.15066L23.2098 3.32841L23.2011 3.33457L23.7791 4.15066ZM23.2239 4.89316L22.2777 4.56961L22.2753 4.57668L22.2729 4.58379L23.2239 4.89316ZM22.5528 6.95585L23.4985 7.28086L23.5012 7.27306L23.5038 7.26522L22.5528 6.95585ZM20.4176 9.10347L20.7265 10.0546L20.7373 10.0511L20.748 10.0473L20.4176 9.10347ZM18.3774 9.7661L18.0685 8.815L18.0568 8.81881L18.0451 8.82291L18.3774 9.7661ZM18.3943 12.605L18.0732 13.5522L18.0854 13.5561L18.3943 12.605ZM20.4119 13.2603L20.7302 12.3123L20.7208 12.3093L20.4119 13.2603ZM22.6068 15.4597L23.5577 15.15L23.5555 15.1434L22.6068 15.4597ZM23.2706 17.4977L22.3197 17.8073L22.3233 17.8182L22.3271 17.8291L23.2706 17.4977ZM32.4916 23.3612L33.0698 22.5453L33.0691 22.5447L32.4916 23.3612ZM33.1239 23.5631L33.6389 22.7059L33.402 22.5636L33.1257 22.5631L33.1239 23.5631ZM33.1267 23.5648L32.6117 24.422L32.8504 24.5654L33.1288 24.5648L33.1267 23.5648ZM34.1639 22.8178L35.1118 23.1368L35.1149 23.127L34.1639 22.8178ZM34.484 21.8334L33.5355 21.5166L33.533 21.5242L34.484 21.8334ZM35.3272 20.9885L35.018 20.0375L35.0085 20.0407L35.3272 20.9885ZM36.3341 20.6612L36.6433 21.6122L36.6555 21.6082L36.6676 21.6039L36.3341 20.6612ZM36.8628 18.9973L37.6794 18.42L37.6766 18.4161L36.8628 18.9973ZM36.2975 18.5867L35.9894 19.538L35.9965 19.5403L36.2975 18.5867ZM35.3092 18.2666L34.9913 19.2148L35.0011 19.218L35.3092 18.2666ZM34.4654 17.4228L33.5145 17.7322L33.5173 17.7407L34.4654 17.4228ZM34.1381 16.4165L35.089 16.1072L35.0855 16.0963L35.0817 16.0855L34.1381 16.4165ZM32.0686 16.4334L31.1197 16.1178L31.1178 16.1238L32.0686 16.4334ZM31.7469 17.4217L32.6964 17.7354L32.6978 17.7313L31.7469 17.4217ZM30.9256 18.2627L31.2348 19.2137L31.2483 19.2093L31.2617 19.2045L30.9256 18.2627ZM29.9188 18.59L29.6095 17.639L29.5987 17.6426L29.5879 17.6464L29.9188 18.59ZM29.9351 20.6583L29.6191 21.6071L29.6257 21.6093L29.9351 20.6583ZM30.9206 20.979L31.2374 20.0305L31.2299 20.028L30.9206 20.979ZM31.7643 21.8261L32.7152 21.5166L32.7141 21.5131L31.7643 21.8261ZM32.0917 22.8318L31.1408 23.1414L31.1446 23.1529L31.1486 23.1644L32.0917 22.8318ZM23.8196 18.2244L23.2407 19.0398C23.662 19.339 24.1657 19.5003 24.6825 19.5017L24.6851 18.5017L24.6877 17.5017C24.584 17.5014 24.483 17.469 24.3985 17.409L23.8196 18.2244ZM24.6851 18.5017L24.6825 19.5017C25.1993 19.503 25.7038 19.3443 26.1267 19.0473L25.5521 18.2289L24.9774 17.4105C24.8926 17.4701 24.7914 17.5019 24.6877 17.5017L24.6851 18.5017ZM25.5521 18.2289L26.1325 19.0432C26.5086 18.7751 26.8059 18.4075 26.9878 17.979L26.0673 17.5882L25.1468 17.1975C25.1105 17.2831 25.0501 17.3587 24.9716 17.4146L25.5521 18.2289ZM26.0673 17.5882L27.0175 17.8998L27.7128 15.7798L26.7626 15.4682L25.8124 15.1566L25.1171 17.2766L26.0673 17.5882ZM26.7626 15.4682L27.7114 15.7839C27.8324 15.4204 28.0364 15.0901 28.3073 14.8192L27.6002 14.112L26.8931 13.4049C26.4024 13.8956 26.0328 14.494 25.8137 15.1524L26.7626 15.4682ZM27.6002 14.112L28.3073 14.8192C28.5782 14.5483 28.9085 14.3442 29.272 14.2233L28.9563 13.2744L28.6406 12.3256C27.9821 12.5447 27.3838 12.9142 26.8931 13.4049L27.6002 14.112ZM28.9563 13.2744L29.2661 14.2252L31.3085 13.5598L30.9988 12.609L30.689 11.6582L28.6465 12.3236L28.9563 13.2744ZM30.9988 12.609L31.3313 13.552C31.8196 13.3799 32.2424 13.0605 32.5414 12.6379L31.7252 12.0602L30.9089 11.4825C30.8489 11.5673 30.7641 11.6314 30.6662 11.6659L30.9988 12.609ZM31.7252 12.0602L32.5414 12.6379C32.8405 12.2153 33.0011 11.7103 33.0011 11.1926H32.0011H31.0011C31.0011 11.2965 30.9689 11.3977 30.9089 11.4825L31.7252 12.0602ZM32.0011 11.1926H33.0011C33.0011 10.6749 32.8405 10.1699 32.5414 9.74734L31.7252 10.325L30.9089 10.9027C30.9689 10.9875 31.0011 11.0887 31.0011 11.1926H32.0011ZM31.7252 10.325L32.5414 9.74734C32.2424 9.32475 31.8196 9.00534 31.3313 8.83315L30.9988 9.77622L30.6662 10.7193C30.7641 10.7538 30.8489 10.8179 30.9089 10.9027L31.7252 10.325ZM30.9988 9.77622L31.3056 8.82447L29.2244 8.15341L28.9175 9.10516L28.6106 10.0569L30.6919 10.728L30.9988 9.77622ZM28.9175 9.10516L29.235 8.15689C28.8721 8.03543 28.5424 7.83156 28.2716 7.56126L27.5652 8.269L26.8587 8.97675C27.3482 9.46535 27.9442 9.83389 28.6001 10.0534L28.9175 9.10516ZM27.5652 8.269L28.2716 7.56126C28.0008 7.29097 27.7964 6.9616 27.6743 6.59901L26.7266 6.91816L25.7789 7.23731C25.9996 7.89276 26.3692 8.48814 26.8587 8.97675L27.5652 8.269ZM26.7266 6.91816L27.6776 6.60918L27.0144 4.56786L26.0634 4.87685L25.1123 5.18583L25.7755 7.22715L26.7266 6.91816ZM26.0634 4.87685L27.0067 4.54504C26.8347 4.05587 26.5145 3.63242 26.0908 3.33351L25.5144 4.15066L24.938 4.96781C25.0222 5.02723 25.0858 5.11141 25.12 5.20866L26.0634 4.87685ZM25.5144 4.15066L26.0836 3.32845C25.6614 3.03621 25.1602 2.87964 24.6467 2.87964V3.87964V4.87964C24.7534 4.87964 24.8575 4.91216 24.9452 4.97287L25.5144 4.15066ZM24.6467 3.87964V2.87964C24.1333 2.87964 23.632 3.03621 23.2099 3.32845L23.7791 4.15066L24.3483 4.97287C24.4359 4.91216 24.5401 4.87964 24.6467 4.87964V3.87964ZM23.7791 4.15066L23.2011 3.33457C22.7712 3.63903 22.4481 4.07115 22.2777 4.56961L23.2239 4.89316L24.1701 5.21671C24.2046 5.11583 24.27 5.02837 24.357 4.96675L23.7791 4.15066ZM23.2239 4.89316L22.2729 4.58379L21.6019 6.64648L22.5528 6.95585L23.5038 7.26522L24.1748 5.20254L23.2239 4.89316ZM22.5528 6.95585L21.6071 6.63083C21.4857 6.98396 21.2859 7.30499 21.0227 7.56979L21.7318 8.27485L22.4409 8.97991C22.9173 8.50076 23.2789 7.91985 23.4985 7.28086L22.5528 6.95585ZM21.7318 8.27485L21.0227 7.56979C20.7594 7.83458 20.4395 8.03626 20.0871 8.15966L20.4176 9.10347L20.748 10.0473C21.3858 9.824 21.9646 9.45906 22.4409 8.97991L21.7318 8.27485ZM20.4176 9.10347L20.1087 8.15238L18.0685 8.815L18.3774 9.7661L18.6863 10.7172L20.7265 10.0546L20.4176 9.10347ZM18.3774 9.7661L18.0451 8.82291C17.5543 8.99582 17.1296 9.31748 16.8302 9.7431L17.648 10.3185L18.4659 10.8939C18.526 10.8085 18.6112 10.744 18.7096 10.7093L18.3774 9.7661ZM17.648 10.3185L16.8302 9.7431C16.5307 10.1687 16.3715 10.6771 16.3746 11.1975L17.3745 11.1916L18.3745 11.1856C18.3739 11.0812 18.4058 10.9793 18.4659 10.8939L17.648 10.3185ZM17.3745 11.1916L16.3746 11.1975C16.3776 11.7179 16.5429 12.2244 16.8474 12.6464L17.6584 12.0614L18.4694 11.4763C18.4083 11.3916 18.3751 11.29 18.3745 11.1856L17.3745 11.1916ZM17.6584 12.0614L16.8474 12.6464C17.1519 13.0685 17.5804 13.3851 18.0732 13.5521L18.3943 12.605L18.7153 11.658C18.6164 11.6245 18.5305 11.5609 18.4694 11.4763L17.6584 12.0614ZM18.3943 12.605L18.0854 13.5561L20.103 14.2114L20.4119 13.2603L20.7208 12.3093L18.7032 11.6539L18.3943 12.605ZM20.4119 13.2603L20.0937 14.2083C20.458 14.3307 20.789 14.536 21.0605 14.808L21.7683 14.1016L22.4762 13.3952C21.9859 12.904 21.3882 12.5333 20.7302 12.3124L20.4119 13.2603ZM21.7683 14.1016L21.0605 14.808C21.332 15.0801 21.5366 15.4114 21.6582 15.7761L22.6068 15.4597L23.5555 15.1434C23.3359 14.485 22.9664 13.8865 22.4762 13.3952L21.7683 14.1016ZM22.6068 15.4597L21.656 15.7694L22.3197 17.8073L23.2706 17.4977L24.2214 17.188L23.5577 15.15L22.6068 15.4597ZM23.2706 17.4977L22.3271 17.8291C22.4987 18.3178 22.8184 18.7416 23.2415 19.0408L23.819 18.2244L24.3965 17.408C24.3122 17.3484 24.2483 17.2637 24.2141 17.1663L23.2706 17.4977ZM32.4916 23.3612L31.9134 24.1771C32.2668 24.4275 32.689 24.5623 33.1221 24.5631L33.1239 23.5631L33.1257 22.5631C33.1057 22.5631 33.0862 22.5568 33.0698 22.5453L32.4916 23.3612ZM33.1239 23.5631L32.6089 24.4203L32.6117 24.422L33.1267 23.5648L33.6417 22.7076L33.6389 22.7059L33.1239 23.5631ZM33.1267 23.5648L33.1288 24.5648C33.5671 24.5639 33.9941 24.4256 34.3498 24.1695L33.7654 23.358L33.181 22.5465C33.1645 22.5584 33.1448 22.5647 33.1246 22.5648L33.1267 23.5648ZM33.7654 23.358L34.3498 24.1695C34.7054 23.9133 34.9719 23.5522 35.1117 23.1368L34.1639 22.8178L33.2162 22.4988C33.2097 22.518 33.1974 22.5347 33.181 22.5465L33.7654 23.358ZM34.1639 22.8178L35.1149 23.127L35.435 22.1426L34.484 21.8334L33.533 21.5242L33.2129 22.5086L34.1639 22.8178ZM34.484 21.8334L35.4325 22.1502C35.4491 22.1005 35.477 22.0553 35.514 22.0182L34.8062 21.3118L34.0984 20.6054C33.8428 20.8615 33.6501 21.1734 33.5355 21.5166L34.484 21.8334ZM34.8062 21.3118L35.514 22.0182C35.5511 21.9811 35.5962 21.9531 35.6459 21.9364L35.3272 20.9885L35.0085 20.0407C34.6656 20.156 34.354 20.3493 34.0984 20.6054L34.8062 21.3118ZM35.3272 20.9885L35.6364 21.9395L36.6433 21.6122L36.3341 20.6612L36.0249 19.7102L35.018 20.0375L35.3272 20.9885ZM36.3341 20.6612L36.6676 21.6039C36.9727 21.496 37.2487 21.3188 37.4739 21.0862L36.7554 20.3906L36.037 19.695C36.0268 19.7055 36.0144 19.7135 36.0006 19.7184L36.3341 20.6612ZM36.7554 20.3906L37.4739 21.0862C37.699 20.8536 37.8672 20.5721 37.9653 20.2636L37.0122 19.9607L36.0592 19.6579C36.0548 19.6718 36.0472 19.6845 36.037 19.695L36.7554 20.3906ZM37.0122 19.9607L37.9653 20.2636C38.0633 19.9551 38.0885 19.6281 38.0389 19.3082L37.0507 19.4614L36.0625 19.6147C36.0648 19.6291 36.0636 19.6439 36.0592 19.6579L37.0122 19.9607ZM37.0507 19.4614L38.0389 19.3082C37.9893 18.9883 37.8662 18.6843 37.6794 18.42L36.8628 18.9973L36.0463 19.5746C36.0547 19.5865 36.0603 19.6002 36.0625 19.6147L37.0507 19.4614ZM36.8628 18.9973L37.6766 18.4161C37.4116 18.0451 37.0333 17.7703 36.5985 17.633L36.2975 18.5867L35.9965 19.5403C36.0177 19.547 36.0361 19.5604 36.049 19.5785L36.8628 18.9973ZM36.2975 18.5867L36.6056 17.6353L35.6173 17.3152L35.3092 18.2666L35.0011 19.218L35.9894 19.538L36.2975 18.5867ZM35.3092 18.2666L35.6271 17.3185C35.5774 17.3018 35.5323 17.2739 35.4952 17.2368L34.7881 17.9439L34.081 18.651C34.3368 18.9068 34.6484 19.0998 34.9913 19.2147L35.3092 18.2666ZM34.7881 17.9439L35.4952 17.2368C35.4582 17.1998 35.4302 17.1546 35.4136 17.105L34.4654 17.4228L33.5173 17.7407C33.6323 18.0837 33.8252 18.3953 34.081 18.651L34.7881 17.9439ZM34.4654 17.4228L35.4164 17.1135L35.089 16.1072L34.1381 16.4165L33.1871 16.7259L33.5145 17.7322L34.4654 17.4228ZM34.1381 16.4165L35.0817 16.0855C34.9371 15.6734 34.6673 15.3169 34.31 15.0658L33.735 15.8839L33.16 16.7021C33.176 16.7133 33.188 16.7292 33.1945 16.7476L34.1381 16.4165ZM33.735 15.8839L34.31 15.0658C33.9527 14.8147 33.5258 14.6816 33.0892 14.6851L33.0973 15.6851L33.1055 16.6851C33.125 16.6849 33.144 16.6908 33.16 16.7021L33.735 15.8839ZM33.0973 15.6851L33.0892 14.6851C32.6525 14.6887 32.2278 14.8287 31.8747 15.0856L32.463 15.8943L33.0512 16.7029C33.067 16.6915 33.086 16.6852 33.1055 16.6851L33.0973 15.6851ZM32.463 15.8943L31.8747 15.0856C31.5216 15.3425 31.2576 15.7034 31.1197 16.1178L32.0686 16.4334L33.0175 16.749C33.0237 16.7305 33.0355 16.7144 33.0512 16.7029L32.463 15.8943ZM32.0686 16.4334L31.1178 16.1238L30.796 17.1122L31.7469 17.4217L32.6978 17.7313L33.0195 16.743L32.0686 16.4334ZM31.7469 17.4217L30.7974 17.108C30.7812 17.157 30.7541 17.2016 30.7181 17.2385L31.4335 17.9371L32.1489 18.6358C32.3975 18.3812 32.5848 18.0733 32.6964 17.7354L31.7469 17.4217ZM31.4335 17.9371L30.7181 17.2385C30.682 17.2753 30.6381 17.3035 30.5895 17.3208L30.9256 18.2627L31.2617 19.2045C31.5969 19.0849 31.9003 18.8904 32.1489 18.6358L31.4335 17.9371ZM30.9256 18.2627L30.6164 17.3117L29.6095 17.639L29.9188 18.59L30.228 19.541L31.2348 19.2137L30.9256 18.2627ZM29.9188 18.59L29.5879 17.6464C29.1759 17.7908 28.8194 18.0605 28.5683 18.4176L29.3864 18.9928L30.2044 19.5679C30.2155 19.5521 30.2314 19.5401 30.2497 19.5337L29.9188 18.59ZM29.3864 18.9928L28.5683 18.4176C28.3172 18.7747 28.1841 19.2014 28.1875 19.6379L29.1875 19.63L30.1875 19.6221C30.1873 19.6028 30.1932 19.5838 30.2044 19.5679L29.3864 18.9928ZM29.1875 19.63L28.1875 19.6379C28.191 20.0744 28.3308 20.499 28.5875 20.8521L29.3964 20.2641L30.2052 19.6761C30.1938 19.6604 30.1876 19.6415 30.1875 19.6221L29.1875 19.63ZM29.3964 20.2641L28.5875 20.8521C28.8442 21.2052 29.2049 21.4692 29.6191 21.6071L29.9351 20.6583L30.251 19.7096C30.2326 19.7035 30.2166 19.6917 30.2052 19.6761L29.3964 20.2641ZM29.9351 20.6583L29.6257 21.6093L30.6112 21.9299L30.9206 20.979L31.2299 20.028L30.2444 19.7074L29.9351 20.6583ZM30.9206 20.979L30.6037 21.9275C30.6529 21.9439 30.6976 21.9716 30.7342 22.0083L31.4427 21.3026L32.1513 20.5969C31.8949 20.3396 31.582 20.1456 31.2374 20.0305L30.9206 20.979ZM31.4427 21.3026L30.7342 22.0083C30.7708 22.0451 30.7983 22.0899 30.8146 22.1391L31.7643 21.8261L32.7141 21.5131C32.6003 21.168 32.4076 20.8543 32.1513 20.5969L31.4427 21.3026ZM31.7643 21.8261L30.8134 22.1356L31.1408 23.1414L32.0917 22.8318L33.0426 22.5223L32.7152 21.5166L31.7643 21.8261ZM32.0917 22.8318L31.1486 23.1644C31.2929 23.5736 31.5608 23.9277 31.9142 24.1776L32.4916 23.3612L33.0691 22.5447C33.0534 22.5337 33.0412 22.5176 33.0348 22.4993L32.0917 22.8318Z" fill="white" mask="url(#path-2-inside-1_36_1536)"/>
</svg>
