<svg width="20" height="21" viewBox="0 0 20 21" fill="none" xmlns="http://www.w3.org/2000/svg">
<mask id="path-1-inside-1_36_1502" fill="white">
<path d="M6.44506 15.2304C6.69801 15.4148 7.00037 15.5143 7.31059 15.5151C7.62081 15.5159 7.92367 15.4181 8.17756 15.235C8.40481 15.0687 8.58368 14.8411 8.69281 14.5771L9.38806 12.4C9.55809 11.8753 9.84489 11.3985 10.2257 11.0075C10.6065 10.6164 11.0708 10.3219 11.5818 10.1473L13.6242 9.464C13.9173 9.35785 14.1711 9.16096 14.3507 8.90046C14.5302 8.63996 14.6266 8.32868 14.6266 8.00955C14.6266 7.69041 14.5302 7.37913 14.3507 7.11863C14.1711 6.85813 13.9173 6.66124 13.6242 6.5551L11.543 5.86599C11.0337 5.69091 10.5708 5.39701 10.1906 5.00736C9.81051 4.61771 9.52347 4.14291 9.35206 3.6202L8.68887 1.52402C8.58574 1.22293 8.39385 0.962289 8.13987 0.778308C7.88494 0.597087 7.58226 0.5 7.27221 0.5C6.96216 0.5 6.65948 0.597087 6.40456 0.778308C6.14609 0.966264 5.95184 1.23304 5.84937 1.54077L5.17831 3.6589C5.00782 4.1683 4.72712 4.63139 4.35729 5.01336C3.98746 5.39533 3.53812 5.68626 3.04306 5.86426L1.00287 6.5447C0.70822 6.65128 0.453271 6.84957 0.273521 7.11194C0.0937718 7.37431 -0.00183034 7.68771 2.65461e-05 8.0085C0.00188344 8.32929 0.101107 8.6415 0.283881 8.90166C0.466655 9.16181 0.723882 9.35697 1.01974 9.45995L3.03743 10.1329C3.5486 10.3091 4.01292 10.6048 4.39381 10.9968C4.7747 11.3887 5.06174 11.8661 5.23231 12.3914L5.89606 14.4841C5.99899 14.785 6.19081 15.0461 6.44449 15.2304M15.1171 20.5052C15.302 20.6397 15.5228 20.7122 15.7494 20.7126L15.7522 20.7143C15.9815 20.7138 16.2048 20.6396 16.3909 20.502C16.5769 20.3644 16.7163 20.1704 16.7894 19.9472L17.1095 18.9364C17.1751 18.7347 17.2854 18.5513 17.4317 18.4008C17.578 18.2502 17.7564 18.1366 17.9527 18.0688L18.9596 17.7326C19.119 17.6747 19.2633 17.5796 19.3809 17.4548C19.4986 17.33 19.5865 17.1789 19.6377 17.0134C19.6889 16.8478 19.7021 16.6723 19.6762 16.5007C19.6503 16.329 19.586 16.1659 19.4883 16.024C19.3494 15.8243 19.151 15.6763 18.923 15.6024L17.9347 15.2737C17.7384 15.2061 17.56 15.0927 17.4136 14.9424C17.2672 14.792 17.1567 14.6089 17.0909 14.4073L16.7636 13.3739C16.688 13.1529 16.5471 12.9616 16.3605 12.827C16.1739 12.6923 15.9509 12.6209 15.7228 12.6228C15.4947 12.6247 15.2729 12.6998 15.0885 12.8376C14.904 12.9754 14.7661 13.169 14.6941 13.3912L14.3724 14.4061C14.3085 14.6047 14.2013 14.7858 14.059 14.9354C13.9167 15.085 13.743 15.1994 13.5511 15.2697L12.5442 15.6058C12.3291 15.6833 12.143 15.8279 12.0118 16.0194C11.8807 16.2109 11.8112 16.4397 11.813 16.6738C11.8148 16.9079 11.8878 17.1355 12.0219 17.3249C12.1559 17.5142 12.3443 17.6558 12.5606 17.7298L13.5461 18.059C13.7429 18.1265 13.9217 18.2403 14.0682 18.3914C14.2147 18.5424 14.3248 18.7264 14.3898 18.9289L14.7172 19.9617C14.7926 20.1812 14.9326 20.3712 15.1171 20.5052Z"/>
</mask>
<path d="M6.44506 15.2304C6.69801 15.4148 7.00037 15.5143 7.31059 15.5151C7.62081 15.5159 7.92367 15.4181 8.17756 15.235C8.40481 15.0687 8.58368 14.8411 8.69281 14.5771L9.38806 12.4C9.55809 11.8753 9.84489 11.3985 10.2257 11.0075C10.6065 10.6164 11.0708 10.3219 11.5818 10.1473L13.6242 9.464C13.9173 9.35785 14.1711 9.16096 14.3507 8.90046C14.5302 8.63996 14.6266 8.32868 14.6266 8.00955C14.6266 7.69041 14.5302 7.37913 14.3507 7.11863C14.1711 6.85813 13.9173 6.66124 13.6242 6.5551L11.543 5.86599C11.0337 5.69091 10.5708 5.39701 10.1906 5.00736C9.81051 4.61771 9.52347 4.14291 9.35206 3.6202L8.68887 1.52402C8.58574 1.22293 8.39385 0.962289 8.13987 0.778308C7.88494 0.597087 7.58226 0.5 7.27221 0.5C6.96216 0.5 6.65948 0.597087 6.40456 0.778308C6.14609 0.966264 5.95184 1.23304 5.84937 1.54077L5.17831 3.6589C5.00782 4.1683 4.72712 4.63139 4.35729 5.01336C3.98746 5.39533 3.53812 5.68626 3.04306 5.86426L1.00287 6.5447C0.70822 6.65128 0.453271 6.84957 0.273521 7.11194C0.0937718 7.37431 -0.00183034 7.68771 2.65461e-05 8.0085C0.00188344 8.32929 0.101107 8.6415 0.283881 8.90166C0.466655 9.16181 0.723882 9.35697 1.01974 9.45995L3.03743 10.1329C3.5486 10.3091 4.01292 10.6048 4.39381 10.9968C4.7747 11.3887 5.06174 11.8661 5.23231 12.3914L5.89606 14.4841C5.99899 14.785 6.19081 15.0461 6.44449 15.2304M15.1171 20.5052C15.302 20.6397 15.5228 20.7122 15.7494 20.7126L15.7522 20.7143C15.9815 20.7138 16.2048 20.6396 16.3909 20.502C16.5769 20.3644 16.7163 20.1704 16.7894 19.9472L17.1095 18.9364C17.1751 18.7347 17.2854 18.5513 17.4317 18.4008C17.578 18.2502 17.7564 18.1366 17.9527 18.0688L18.9596 17.7326C19.119 17.6747 19.2633 17.5796 19.3809 17.4548C19.4986 17.33 19.5865 17.1789 19.6377 17.0134C19.6889 16.8478 19.7021 16.6723 19.6762 16.5007C19.6503 16.329 19.586 16.1659 19.4883 16.024C19.3494 15.8243 19.151 15.6763 18.923 15.6024L17.9347 15.2737C17.7384 15.2061 17.56 15.0927 17.4136 14.9424C17.2672 14.792 17.1567 14.6089 17.0909 14.4073L16.7636 13.3739C16.688 13.1529 16.5471 12.9616 16.3605 12.827C16.1739 12.6923 15.9509 12.6209 15.7228 12.6228C15.4947 12.6247 15.2729 12.6998 15.0885 12.8376C14.904 12.9754 14.7661 13.169 14.6941 13.3912L14.3724 14.4061C14.3085 14.6047 14.2013 14.7858 14.059 14.9354C13.9167 15.085 13.743 15.1994 13.5511 15.2697L12.5442 15.6058C12.3291 15.6833 12.143 15.8279 12.0118 16.0194C11.8807 16.2109 11.8112 16.4397 11.813 16.6738C11.8148 16.9079 11.8878 17.1355 12.0219 17.3249C12.1559 17.5142 12.3443 17.6558 12.5606 17.7298L13.5461 18.059C13.7429 18.1265 13.9217 18.2403 14.0682 18.3914C14.2147 18.5424 14.3248 18.7264 14.3898 18.9289L14.7172 19.9617C14.7926 20.1812 14.9326 20.3712 15.1171 20.5052Z" fill="url(#paint0_linear_36_1502)"/>
<path d="M8.17756 15.235L8.47 15.6406L8.4729 15.6385L8.17756 15.235ZM8.69281 14.5771L9.15488 14.7681L9.1628 14.749L9.16911 14.7292L8.69281 14.5771ZM9.38806 12.4L8.9124 12.2459L8.91175 12.2479L9.38806 12.4ZM11.5818 10.1473L11.4232 9.67314L11.4201 9.67418L11.5818 10.1473ZM13.6242 9.464L13.7829 9.93831L13.7945 9.93412L13.6242 9.464ZM13.6242 6.5551L13.7946 6.08479L13.7814 6.08044L13.6242 6.5551ZM11.543 5.86599L11.3804 6.33887L11.3858 6.34065L11.543 5.86599ZM9.35206 3.6202L8.87532 3.77103L8.87695 3.77601L9.35206 3.6202ZM8.68887 1.52402L9.16571 1.37315L9.16189 1.36199L8.68887 1.52402ZM8.13987 0.778308L8.4332 0.373368L8.42957 0.370786L8.13987 0.778308ZM7.27221 0.5L7.27221 1L7.27221 0.5ZM6.40456 0.778308L6.11484 0.370762L6.11049 0.373927L6.40456 0.778308ZM5.84937 1.54077L5.37493 1.38278L5.37272 1.38976L5.84937 1.54077ZM5.17831 3.6589L5.65252 3.81761L5.65496 3.80992L5.17831 3.6589ZM3.04306 5.86426L3.20129 6.3387L3.21223 6.33477L3.04306 5.86426ZM1.00287 6.5447L0.844627 6.07023L0.832786 6.07452L1.00287 6.5447ZM1.01974 9.45995L0.855366 9.9322L0.861553 9.93427L1.01974 9.45995ZM3.03743 10.1329L3.20041 9.66016L3.19562 9.65856L3.03743 10.1329ZM5.23231 12.3914L5.70892 12.2402L5.70786 12.237L5.23231 12.3914ZM5.89606 14.4841L5.41934 14.6353L5.42297 14.6459L5.89606 14.4841ZM15.1171 20.5052L15.4113 20.1009L15.411 20.1007L15.1171 20.5052ZM15.7494 20.7126L16.0119 20.287L15.8916 20.2128L15.7503 20.2126L15.7494 20.7126ZM15.7522 20.7143L15.4897 21.1399L15.6109 21.2146L15.7533 21.2143L15.7522 20.7143ZM16.7894 19.9472L17.2646 20.103L17.2661 20.0982L16.7894 19.9472ZM17.1095 18.9364L16.634 18.7818L16.6328 18.7855L17.1095 18.9364ZM17.9527 18.0688L17.7943 17.5945L17.7895 17.5962L17.9527 18.0688ZM18.9596 17.7326L19.118 18.2071L19.1303 18.2026L18.9596 17.7326ZM19.4883 16.024L19.9001 15.7405L19.8988 15.7386L19.4883 16.024ZM18.923 15.6024L18.7652 16.0768L18.7688 16.078L18.923 15.6024ZM17.9347 15.2737L17.7719 15.7465L17.7769 15.7482L17.9347 15.2737ZM17.0909 14.4073L16.6143 14.5583L16.6156 14.5625L17.0909 14.4073ZM16.7636 13.3739L17.2403 13.2229L17.2367 13.2123L16.7636 13.3739ZM14.6941 13.3912L14.2184 13.2372L14.2175 13.2401L14.6941 13.3912ZM14.3724 14.4061L14.8483 14.5592L14.849 14.5572L14.3724 14.4061ZM13.5511 15.2697L13.7095 15.7439L13.7163 15.7416L13.7231 15.7391L13.5511 15.2697ZM12.5442 15.6058L12.3859 15.1314L12.3749 15.1354L12.5442 15.6058ZM12.5606 17.7298L12.3988 18.2029L12.4021 18.204L12.5606 17.7298ZM13.5461 18.059L13.7083 17.586L13.7045 17.5848L13.5461 18.059ZM14.3898 18.9289L14.8664 18.7778L14.8659 18.7761L14.3898 18.9289ZM14.7172 19.9617L14.2404 20.1128L14.2443 20.1241L14.7172 19.9617ZM6.44506 15.2304L6.1505 15.6344C6.4878 15.8803 6.8926 16.014 7.30926 16.0151L7.31059 15.5151L7.31193 15.0151C7.10814 15.0145 6.90822 14.9493 6.73961 14.8264L6.44506 15.2304ZM7.31059 15.5151L7.30926 16.0151C7.72592 16.0162 8.13141 15.8847 8.46999 15.6406L8.17756 15.235L7.88512 14.8294C7.71593 14.9514 7.51571 15.0156 7.31193 15.0151L7.31059 15.5151ZM8.17756 15.235L8.4729 15.6385C8.7745 15.4177 9.01088 15.1165 9.15488 14.7681L8.69281 14.5771L8.23073 14.3861C8.15649 14.5657 8.03512 14.7196 7.88222 14.8316L8.17756 15.235ZM8.69281 14.5771L9.16911 14.7292L9.86436 12.5522L9.38806 12.4L8.91175 12.2479L8.2165 14.425L8.69281 14.5771ZM9.38806 12.4L9.86371 12.5542C10.0103 12.1017 10.2573 11.6917 10.5839 11.3563L10.2257 11.0075L9.86748 10.6586C9.43251 11.1053 9.10585 11.6489 8.9124 12.2459L9.38806 12.4ZM10.2257 11.0075L10.5839 11.3563C10.9105 11.0209 11.3077 10.7694 11.7435 10.6205L11.5818 10.1473L11.4201 9.67418C10.8339 9.87448 10.3025 10.2119 9.86748 10.6586L10.2257 11.0075ZM11.5818 10.1473L11.7404 10.6215L13.7829 9.93816L13.6242 9.464L13.4656 8.98983L11.4232 9.67315L11.5818 10.1473ZM13.6242 9.464L13.7945 9.93412C14.1871 9.79195 14.5247 9.52908 14.7624 9.18419L14.3507 8.90046L13.939 8.61673C13.8176 8.79284 13.6476 8.92376 13.454 8.99387L13.6242 9.464ZM14.3507 8.90046L14.7624 9.18419C14.9999 8.83947 15.1266 8.42908 15.1266 8.00955H14.6266H14.1266C14.1266 8.22829 14.0605 8.44045 13.939 8.61673L14.3507 8.90046ZM14.6266 8.00955H15.1266C15.1266 7.59002 14.9999 7.17962 14.7624 6.8349L14.3507 7.11863L13.939 7.40236C14.0605 7.57865 14.1266 7.7908 14.1266 8.00955H14.6266ZM14.3507 7.11863L14.7624 6.8349C14.5247 6.49001 14.1871 6.22715 13.7945 6.08497L13.6242 6.5551L13.454 7.02522C13.6476 7.09533 13.8176 7.22625 13.939 7.40236L14.3507 7.11863ZM13.6242 6.5551L13.7814 6.08044L11.7002 5.39134L11.543 5.86599L11.3858 6.34065L13.4671 7.02975L13.6242 6.5551ZM11.543 5.86599L11.7055 5.39315C11.2709 5.24375 10.8747 4.99255 10.5485 4.6582L10.1906 5.00736L9.83275 5.35652C10.2668 5.80147 10.7964 6.13807 11.3805 6.33884L11.543 5.86599ZM10.1906 5.00736L10.5485 4.6582C10.2223 4.3238 9.97504 3.91534 9.82716 3.4644L9.35206 3.6202L8.87695 3.77601C9.0719 4.37047 9.39871 4.91162 9.83275 5.35652L10.1906 5.00736ZM9.35206 3.6202L9.82877 3.46938L9.16558 1.3732L8.68887 1.52402L8.21216 1.67484L8.87535 3.77102L9.35206 3.6202ZM8.68887 1.52402L9.16189 1.36199C9.02587 0.964889 8.772 0.618815 8.43319 0.373384L8.13987 0.778308L7.84655 1.18323C8.0157 1.30576 8.1456 1.48096 8.21585 1.68604L8.68887 1.52402ZM8.13987 0.778308L8.42957 0.370786C8.09082 0.129976 7.68706 0 7.27221 0L7.27221 0.5L7.27221 1C7.47746 1 7.67907 1.0642 7.85017 1.18583L8.13987 0.778308ZM7.27221 0.5L7.27221 0C6.85736 0 6.45361 0.129976 6.11486 0.370786L6.40456 0.778308L6.69426 1.18583C6.86536 1.0642 7.06696 1 7.27221 1L7.27221 0.5ZM6.40456 0.778308L6.11049 0.373927C5.76636 0.624182 5.50987 0.97772 5.37498 1.3828L5.84937 1.54077L6.32376 1.69874C6.39382 1.48835 6.52583 1.30835 6.69862 1.18269L6.40456 0.778308ZM5.84937 1.54077L5.37272 1.38976L4.70166 3.50789L5.17831 3.6589L5.65496 3.80992L6.32602 1.69178L5.84937 1.54077ZM5.17831 3.6589L4.70416 3.50022C4.55713 3.93954 4.31539 4.33782 3.99807 4.66556L4.35729 5.01336L4.71651 5.36116C5.13884 4.92495 5.45852 4.39706 5.65246 3.81759L5.17831 3.6589ZM4.35729 5.01336L3.99807 4.66556C3.6808 4.99325 3.29627 5.24188 2.87388 5.39375L3.04306 5.86426L3.21223 6.33477C3.77998 6.13063 4.29412 5.79741 4.71651 5.36116L4.35729 5.01336ZM3.04306 5.86426L2.88486 5.38995L0.844677 6.07038L1.00287 6.5447L1.16106 7.01901L3.20125 6.33858L3.04306 5.86426ZM1.00287 6.5447L0.832786 6.07452C0.438116 6.21728 0.0990025 6.482 -0.138962 6.82935L0.273521 7.11194L0.686005 7.39453C0.807539 7.21713 0.978324 7.08529 1.17295 7.01488L1.00287 6.5447ZM0.273521 7.11194L-0.138962 6.82935C-0.37681 7.17652 -0.502406 7.5897 -0.499965 8.01139L2.65461e-05 8.0085L0.500018 8.0056C0.498745 7.78572 0.564354 7.5721 0.686005 7.39453L0.273521 7.11194ZM2.65461e-05 8.0085L-0.499965 8.01139C-0.497524 8.43309 -0.367151 8.84476 -0.125244 9.18909L0.283881 8.90166L0.693006 8.61422C0.569365 8.43823 0.501291 8.22548 0.500018 8.0056L2.65461e-05 8.0085ZM0.283881 8.90166L-0.125244 9.18909C0.116783 9.53358 0.459017 9.7942 0.85538 9.93216L1.01974 9.45995L1.18411 8.98774C0.988746 8.91974 0.816527 8.79004 0.693006 8.61422L0.283881 8.90166ZM1.01974 9.45995L0.861553 9.93427L2.87924 10.6072L3.03743 10.1329L3.19562 9.65856L1.17794 8.98564L1.01974 9.45995ZM3.03743 10.1329L2.87446 10.6056C3.31078 10.756 3.70832 11.0088 4.03524 11.3452L4.39381 10.9968L4.75238 10.6483C4.31753 10.2009 3.78642 9.86222 3.2004 9.66018L3.03743 10.1329ZM4.39381 10.9968L4.03524 11.3452C4.36222 11.6817 4.60956 12.0925 4.75675 12.5458L5.23231 12.3914L5.70786 12.237C5.51392 11.6397 5.18717 11.0957 4.75238 10.6483L4.39381 10.9968ZM5.23231 12.3914L4.7557 12.5425L5.41946 14.6353L5.89606 14.4841L6.37266 14.3329L5.70891 12.2402L5.23231 12.3914ZM5.89606 14.4841L5.42297 14.6459C5.55869 15.0427 5.81231 15.3892 6.15066 15.6349L6.44449 15.2304L6.73833 14.8258C6.5693 14.7031 6.43929 14.5274 6.36915 14.3223L5.89606 14.4841ZM15.1171 20.5052L14.8229 20.9095C15.0922 21.1054 15.4155 21.212 15.7485 21.2126L15.7494 20.7126L15.7503 20.2126C15.6302 20.2124 15.5118 20.174 15.4113 20.1009L15.1171 20.5052ZM15.7494 20.7126L15.4868 21.1381L15.4897 21.1399L15.7522 20.7143L16.0147 20.2888L16.0119 20.287L15.7494 20.7126ZM15.7522 20.7143L15.7533 21.2143C16.0903 21.2136 16.4172 21.1044 16.6882 20.904L16.3909 20.502L16.0936 20.1C15.9924 20.1748 15.8726 20.2141 15.7511 20.2143L15.7522 20.7143ZM16.3909 20.502L16.6882 20.904C16.9589 20.7038 17.1596 20.4231 17.2646 20.103L16.7894 19.9472L16.3143 19.7915C16.273 19.9177 16.1949 20.025 16.0936 20.1L16.3909 20.502ZM16.7894 19.9472L17.2661 20.0982L17.5862 19.0873L17.1095 18.9364L16.6328 18.7855L16.3128 19.7963L16.7894 19.9472ZM17.1095 18.9364L17.585 19.091C17.6272 18.9612 17.6978 18.8444 17.7903 18.7492L17.4317 18.4008L17.0732 18.0523C16.873 18.2583 16.723 18.5081 16.634 18.7818L17.1095 18.9364ZM17.4317 18.4008L17.7903 18.7492C17.8827 18.6542 17.9943 18.5834 18.1158 18.5414L17.9527 18.0688L17.7895 17.5962C17.5184 17.6898 17.2734 17.8463 17.0732 18.0523L17.4317 18.4008ZM17.9527 18.0688L18.111 18.5431L19.1179 18.2069L18.9596 17.7326L18.8012 17.2584L17.7943 17.5946L17.9527 18.0688ZM18.9596 17.7326L19.1303 18.2026C19.364 18.1177 19.5741 17.9788 19.7447 17.7978L19.3809 17.4548L19.0171 17.1118C18.9524 17.1804 18.8741 17.2317 18.7888 17.2627L18.9596 17.7326ZM19.3809 17.4548L19.7447 17.7978C19.9153 17.6169 20.0418 17.3988 20.1154 17.1612L19.6377 17.0134L19.1601 16.8656C19.1312 16.959 19.0819 17.0431 19.0171 17.1118L19.3809 17.4548ZM19.6377 17.0134L20.1154 17.1612C20.1889 16.9235 20.2077 16.672 20.1706 16.426L19.6762 16.5007L19.1818 16.5753C19.1965 16.6727 19.189 16.7721 19.1601 16.8656L19.6377 17.0134ZM19.6762 16.5007L20.1706 16.426C20.1334 16.18 20.0412 15.9453 19.9001 15.7405L19.4883 16.024L19.0765 16.3076C19.1308 16.3864 19.1671 16.478 19.1818 16.5753L19.6762 16.5007ZM19.4883 16.024L19.8988 15.7386C19.6985 15.4506 19.4108 15.2349 19.0772 15.1267L18.923 15.6024L18.7688 16.078C18.8912 16.1177 19.0002 16.1979 19.0778 16.3095L19.4883 16.024ZM18.923 15.6024L19.0808 15.1279L18.0925 14.7993L17.9347 15.2737L17.7769 15.7482L18.7652 16.0768L18.923 15.6024ZM17.9347 15.2737L18.0974 14.8009C17.9759 14.7591 17.8643 14.6885 17.7718 14.5935L17.4136 14.9424L17.0554 15.2912C17.2557 15.4969 17.5008 15.6531 17.7719 15.7465L17.9347 15.2737ZM17.4136 14.9424L17.7718 14.5935C17.6793 14.4985 17.6086 14.3818 17.5662 14.2521L17.0909 14.4073L16.6156 14.5625C16.7049 14.8359 16.8551 15.0855 17.0554 15.2912L17.4136 14.9424ZM17.0909 14.4073L17.5676 14.2563L17.2402 13.2229L16.7636 13.3739L16.2869 13.5249L16.6143 14.5583L17.0909 14.4073ZM16.7636 13.3739L17.2367 13.2123C17.1282 12.8948 16.925 12.6178 16.6531 12.4215L16.3605 12.827L16.0679 13.2324C16.1692 13.3055 16.2478 13.411 16.2904 13.5356L16.7636 13.3739ZM16.3605 12.827L16.6531 12.4215C16.381 12.2251 16.0542 12.12 15.7186 12.1228L15.7228 12.6228L15.727 13.1228C15.8476 13.1218 15.9668 13.1594 16.0679 13.2324L16.3605 12.827ZM15.7228 12.6228L15.7186 12.1228C15.383 12.1256 15.0581 12.2362 14.7892 12.437L15.0885 12.8376L15.3877 13.2382C15.4877 13.1634 15.6064 13.1238 15.727 13.1228L15.7228 12.6228ZM15.0885 12.8376L14.7892 12.437C14.5206 12.6377 14.3218 12.918 14.2185 13.2372L14.6941 13.3912L15.1698 13.5453C15.2104 13.42 15.2874 13.3131 15.3877 13.2382L15.0885 12.8376ZM14.6941 13.3912L14.2175 13.2401L13.8957 14.255L14.3724 14.4061L14.849 14.5572L15.1707 13.5423L14.6941 13.3912ZM14.3724 14.4061L13.8964 14.253C13.8553 14.3808 13.7866 14.4962 13.6967 14.5908L14.059 14.9354L14.4213 15.28C14.6159 15.0753 14.7617 14.8286 14.8483 14.5592L14.3724 14.4061ZM14.059 14.9354L13.6967 14.5908C13.6067 14.6854 13.4979 14.7566 13.3791 14.8002L13.5511 15.2697L13.7231 15.7391C13.988 15.6421 14.2266 15.4847 14.4213 15.28L14.059 14.9354ZM13.5511 15.2697L13.3928 14.7954L12.3859 15.1316L12.5442 15.6058L12.7026 16.0801L13.7095 15.7439L13.5511 15.2697ZM12.5442 15.6058L12.3749 15.1354C12.0594 15.249 11.7888 15.4602 11.5993 15.7369L12.0118 16.0194L12.4244 16.3019C12.4972 16.1956 12.5989 16.1176 12.7136 16.0763L12.5442 15.6058ZM12.0118 16.0194L11.5993 15.7369C11.4099 16.0135 11.3104 16.3424 11.313 16.6776L11.813 16.6738L12.313 16.6699C12.312 16.537 12.3515 16.4083 12.4244 16.3019L12.0118 16.0194ZM11.813 16.6738L11.313 16.6776C11.3156 17.0129 11.4201 17.3402 11.6138 17.6138L12.0219 17.3249L12.43 17.036C12.3555 16.9308 12.314 16.8028 12.313 16.6699L11.813 16.6738ZM12.0219 17.3249L11.6138 17.6138C11.8076 17.8875 12.0815 18.0943 12.3988 18.2029L12.5606 17.7298L12.7224 17.2567C12.6071 17.2172 12.5043 17.1409 12.43 17.036L12.0219 17.3249ZM12.5606 17.7298L12.4021 18.204L13.3876 18.5332L13.5461 18.059L13.7045 17.5848L12.719 17.2555L12.5606 17.7298ZM13.5461 18.059L13.3838 18.5319C13.5054 18.5736 13.617 18.6443 13.7093 18.7395L14.0682 18.3914L14.4271 18.0432C14.2264 17.8363 13.9805 17.6794 13.7083 17.586L13.5461 18.059ZM14.0682 18.3914L13.7093 18.7395C13.8017 18.8347 13.872 18.9517 13.9137 19.0817L14.3898 18.9289L14.8659 18.7761C14.7776 18.5012 14.6278 18.2501 14.4271 18.0432L14.0682 18.3914ZM14.3898 18.9289L13.9132 19.08L14.2406 20.1128L14.7172 19.9617L15.1938 19.8106L14.8664 18.7778L14.3898 18.9289ZM14.7172 19.9617L14.2443 20.1241C14.3526 20.4394 14.5544 20.7145 14.8233 20.9098L15.1171 20.5052L15.411 20.1007C15.3108 20.0279 15.2326 19.923 15.1901 19.7993L14.7172 19.9617Z" fill="white" mask="url(#path-1-inside-1_36_1502)"/>
<defs>
<linearGradient id="paint0_linear_36_1502" x1="-11.5" y1="-17.4704" x2="24.1605" y2="27.8256" gradientUnits="userSpaceOnUse">
<stop stop-color="#5F46C1"/>
<stop offset="1" stop-color="#DF4B75"/>
</linearGradient>
</defs>
</svg>
