<svg width="17" height="16" viewBox="0 0 17 16" fill="none" xmlns="http://www.w3.org/2000/svg">
<path d="M4.9084 10.4408C5.12969 10.5895 5.39479 10.6692 5.66661 10.669C5.93843 10.6688 6.20337 10.5885 6.42436 10.4395C6.64527 10.284 6.81317 10.0713 6.90749 9.82725L7.39911 8.404C7.51704 8.06868 7.71653 7.76393 7.9817 7.51405C8.24686 7.26417 8.57036 7.07606 8.92641 6.96473L10.465 6.49387C10.7231 6.40673 10.9455 6.24545 11.1009 6.03283C11.2562 5.82021 11.3367 5.56699 11.3309 5.30896C11.3251 5.05093 11.2334 4.80114 11.0686 4.59489C10.9038 4.38863 10.6743 4.23635 10.4126 4.15956L8.89807 3.69804C8.54165 3.58719 8.21768 3.39945 7.95202 3.14979C7.68635 2.90013 7.48634 2.59547 7.36794 2.26011L6.86782 0.814171C6.77705 0.575395 6.60994 0.368958 6.38947 0.223252C6.169 0.0775459 5.906 -0.000272414 5.63663 0.000499399C5.36341 -0.000595284 5.09673 0.0791723 4.87427 0.22853C4.65182 0.377888 4.48485 0.589285 4.39694 0.832846L3.89256 2.28678C3.77412 2.6122 3.57904 2.90818 3.32191 3.15258C3.06478 3.39697 2.75227 3.58344 2.40777 3.69804L0.871975 4.16623C0.615405 4.2516 0.393512 4.41019 0.237216 4.61991C0.0809205 4.82964 -0.00199089 5.08004 3.63063e-05 5.33623C0.0020635 5.59242 0.0889282 5.84163 0.248525 6.04914C0.408122 6.25665 0.632501 6.41211 0.890393 6.49387L2.40211 6.95673C2.75901 7.06899 3.08324 7.25799 3.34908 7.50874C3.61492 7.75949 3.81507 8.06509 3.93365 8.40133L4.43236 9.84193C4.52162 10.082 4.6888 10.2914 4.90982 10.4395M12.0929 15.8031C12.2849 15.9316 12.5147 16.0006 12.7503 16.0005C12.9882 15.9982 13.2195 15.9264 13.4121 15.795C13.6048 15.6636 13.7493 15.479 13.8257 15.2668L14.177 14.2504C14.2521 14.0397 14.3796 13.8463 14.5454 13.6889C14.7112 13.5315 14.9166 13.4127 15.1404 13.3434L16.2342 13.0072C16.4604 12.9342 16.6563 12.7957 16.7938 12.6115C16.9314 12.4273 17.0035 12.2068 16.9999 11.9817C16.9963 11.7566 16.9171 11.5383 16.7737 11.3581C16.6303 11.1778 16.4301 11.045 16.2016 10.9784L15.1192 10.6463C14.8954 10.5757 14.692 10.4573 14.5248 10.3004C14.3577 10.1435 14.2314 9.95237 14.1558 9.74188L13.7987 8.70945C13.7219 8.49743 13.5762 8.31354 13.3822 8.18385C13.1882 8.05415 12.9557 7.98523 12.7178 7.98686C12.4798 7.98848 12.2485 8.06056 12.0565 8.19289C11.8645 8.32522 11.7216 8.51108 11.6481 8.72413L11.2981 9.74055C11.2259 9.94951 11.1035 10.14 10.9403 10.2971C10.7771 10.4542 10.5776 10.5737 10.3574 10.6463L9.25794 10.9837C9.09152 11.0382 8.94088 11.1285 8.81798 11.2473C8.69508 11.3662 8.60331 11.5104 8.54995 11.6685C8.49659 11.8266 8.48311 11.9942 8.51059 12.1581C8.53806 12.3219 8.60573 12.4775 8.70822 12.6124C8.84849 12.7992 9.04684 12.9392 9.27494 13.0126L10.3559 13.342C10.5805 13.4133 10.7844 13.5327 10.9516 13.6908C11.1188 13.8489 11.2447 14.0414 11.3194 14.2531L11.6778 15.2855C11.7554 15.4942 11.9 15.6751 12.0915 15.8031" fill="url(#paint0_linear_44_1599)"/>
<defs>
<linearGradient id="paint0_linear_44_1599" x1="-8.50141" y1="7.99975" x2="21.2511" y2="7.99975" gradientUnits="userSpaceOnUse">
<stop stop-color="#813ADC"/>
<stop offset="1" stop-color="#FF5151"/>
</linearGradient>
</defs>
</svg>
