<svg width="24" height="24" viewBox="0 0 24 24" fill="none" xmlns="http://www.w3.org/2000/svg">
<g clip-path="url(#clip0_26_300)">
<rect width="24" height="24" rx="3" fill="white"/>
<path d="M21.2912 7.30188C21.1817 6.88923 20.9656 6.51262 20.6646 6.20976C20.3637 5.9069 19.9885 5.68842 19.5766 5.57621C18.0642 5.16821 11.9999 5.16821 11.9999 5.16821C11.9999 5.16821 5.93556 5.16821 4.42322 5.57621C4.01128 5.68842 3.63606 5.9069 3.33513 6.20976C3.0342 6.51262 2.81813 6.88923 2.70856 7.30188C2.30322 8.82388 2.30322 11.9999 2.30322 11.9999C2.30322 11.9999 2.30322 15.1759 2.70856 16.6982C2.81813 17.1109 3.0342 17.4875 3.33513 17.7903C3.63606 18.0932 4.01128 18.3117 4.42322 18.4239C5.93556 18.8315 11.9999 18.8315 11.9999 18.8315C11.9999 18.8315 18.0642 18.8315 19.5766 18.4239C19.9885 18.3117 20.3637 18.0932 20.6646 17.7903C20.9656 17.4875 21.1817 17.1109 21.2912 16.6982C21.6966 15.1759 21.6966 11.9999 21.6966 11.9999C21.6966 11.9999 21.6966 8.82388 21.2912 7.30188Z" fill="#EA5A47"/>
<path d="M10.0166 14.8834L15.0853 12L10.0166 9.1167V14.8834Z" fill="white"/>
<path d="M21.2912 7.30188C21.1817 6.88923 20.9656 6.51262 20.6646 6.20976C20.3637 5.9069 19.9885 5.68842 19.5766 5.57621C18.0642 5.16821 11.9999 5.16821 11.9999 5.16821C11.9999 5.16821 5.93556 5.16821 4.42322 5.57621C4.01128 5.68842 3.63606 5.9069 3.33513 6.20976C3.0342 6.51262 2.81813 6.88923 2.70856 7.30188C2.30322 8.82388 2.30322 11.9999 2.30322 11.9999C2.30322 11.9999 2.30322 15.1759 2.70856 16.6982C2.81813 17.1109 3.0342 17.4875 3.33513 17.7903C3.63606 18.0932 4.01128 18.3117 4.42322 18.4239C5.93556 18.8315 11.9999 18.8315 11.9999 18.8315C11.9999 18.8315 18.0642 18.8315 19.5766 18.4239C19.9885 18.3117 20.3637 18.0932 20.6646 17.7903C20.9656 17.4875 21.1817 17.1109 21.2912 16.6982C21.6966 15.1759 21.6966 11.9999 21.6966 11.9999C21.6966 11.9999 21.6966 8.82388 21.2912 7.30188Z" stroke="black" stroke-width="0.5" stroke-miterlimit="10"/>
<path d="M10.0166 14.8831L15.0853 11.9998L10.0166 9.11646V14.8831Z" stroke="black" stroke-width="0.5" stroke-miterlimit="10" stroke-linecap="round" stroke-linejoin="round"/>
</g>
<defs>
<clipPath id="clip0_26_300">
<rect width="24" height="24" fill="white"/>
</clipPath>
</defs>
</svg>
