<svg width="134" height="134" viewBox="0 0 134 134" fill="none" xmlns="http://www.w3.org/2000/svg">
<path d="M32.6109 62.5661L32.3613 61.8392L32.1642 61.0641L31.9606 60.0569L31.8599 59.4701L31.7635 58.6797L31.6803 57.7163L31.6015 56.72L31.492 54.4188L31.5621 53.0416L31.6256 51.8483L31.8555 48.8311L32.1161 47.1846L32.4051 45.5293L32.8846 42.4617L33.2699 40.2109L33.4166 39.6241L33.5655 38.9672L33.6838 38.5359L33.9115 37.8067L34.1304 36.9769L34.2903 36.4164L34.518 35.742L34.7304 35.1902L34.9099 34.6932L35.177 34.1677L35.4464 33.5853L35.8098 33.0576L36.147 32.5803C36.147 32.5803 36.4032 32.2453 36.493 32.138C36.5652 32.0526 36.7163 31.8884 36.7951 31.8118C36.898 31.7154 37.1192 31.4855 37.2265 31.3936C37.325 31.3082 37.6074 31.098 37.6074 31.098L37.9096 30.8812L38.3782 30.6754L39.2715 30.5156L40.2655 30.5002L40.5983 30.5703L41.38 30.7761L42.7332 31.2797L44.1038 31.9913L45.873 33.154L48.0581 34.6976L50.4338 36.2062L53.659 38.4264C53.659 38.4264 55.3405 39.7489 55.8091 40.2831C55.923 40.4123 56.1529 40.7101 56.2448 40.8546C56.3477 41.0144 56.6236 41.4786 56.6236 41.4786C56.6236 41.4786 56.8885 41.8946 56.9367 42.0501C56.9783 42.188 57.0878 42.4792 57.0987 42.6216C57.1097 42.7704 57.0944 43.0682 57.0593 43.2105C57.0287 43.3375 56.8688 43.6966 56.8688 43.6966C56.8688 43.6966 56.6477 44.1345 56.5426 44.2681C56.4331 44.4082 56.1288 44.8067 56.1288 44.8067L55.8726 45.0651L54.0378 46.5649L56.1485 45.8993L60.0218 44.7958L62.0405 44.2331L64.865 43.9397L67.2867 43.8586L69.4959 43.8192L72.003 43.944L74.5187 44.3316L76.5572 44.7695L79.8131 45.7657L81.961 46.5364L83.6995 47.2568L85.5913 48.0801L87.0057 48.9537L88.6763 50.2193L89.5259 50.979L90.0054 51.4301L90.4345 51.8308L90.7433 52.0432L90.3491 51.2856L89.7273 50.6331L88.9938 49.8864L87.8793 48.9077L84.2972 46.1905C84.271 46.1642 84.2447 46.1358 84.2184 46.1095L83.717 45.3826C83.6973 45.3432 83.6776 45.3059 83.6579 45.2665L83.5243 44.868C83.4849 44.7366 83.474 44.6009 83.4893 44.4651L83.5046 44.3338C83.5375 44.0688 83.6645 43.8258 83.8637 43.6506L84.271 43.3047L84.733 42.9741C84.733 42.9741 89.1602 39.889 90.6995 38.9782C91.1812 38.6935 92.5978 37.8812 92.5978 37.8812L93.9247 37.2528L95.2252 36.7558L97.0863 36.158L98.9803 35.7004C98.9803 35.7004 100.725 35.3982 101.31 35.4355C101.54 35.4508 101.993 35.569 102.208 35.6566C102.462 35.7595 102.95 35.9084 103.189 36.0464C103.3 36.1099 103.528 36.32 103.629 36.4251C103.749 36.5499 104.097 36.9375 104.097 36.9375C104.097 36.9375 104.511 37.6513 104.612 37.9075C104.688 38.1001 104.875 38.5096 104.938 38.7088C105.043 39.0438 105.352 40.016 105.352 40.016L105.728 41.3232L105.961 42.6872L106.074 43.8236L106.315 45.6913L106.466 47.4999L106.617 49.2471L106.751 50.4689L106.782 52.0191L106.847 53.1642L106.909 54.4298L106.812 56.9258L106.751 58.7366L106.458 60.8583L105.998 63.5908L105.516 65.7453L105.065 67.8998C105.065 67.8998 104.542 69.0975 104.391 69.5069C104.248 69.8901 104.014 70.6783 103.843 71.0506C103.718 71.3221 103.39 71.8476 103.362 72.1431C103.34 72.3555 103.543 72.9752 103.543 72.9752C103.543 72.9752 103.764 73.297 103.832 73.4065C103.905 73.5204 104.047 73.7503 104.108 73.8707C104.242 74.1356 104.572 74.9589 104.572 74.9589L104.745 75.5676L105.05 76.7412L105.282 77.9586L105.496 78.9526L105.772 80.4065L105.891 81.7618L105.95 83.3142L105.989 84.6323L105.93 86.3226L105.891 87.4831L105.685 88.6173L105.332 90.382L104.98 91.8753C104.98 91.8753 104.638 93.1474 104.491 93.5591C104.345 93.9707 103.972 94.7655 103.786 95.1618C103.484 95.7946 102.51 97.6601 102.51 97.6601L101.45 99.2628C101.45 99.2628 100.134 101.295 99.6306 101.925C99.3941 102.221 98.5993 103.04 98.5993 103.04L97.6491 104.043C97.6491 104.043 96.8915 104.813 96.6441 105.076C96.4098 105.323 95.9478 105.827 95.6938 106.055C95.4004 106.315 94.4458 107.005 94.4458 107.005L92.8299 108.008L90.0667 109.523L86.2284 111.172C86.2284 111.172 83.2988 112.312 82.2938 112.606C81.1093 112.954 78.6745 113.42 77.4483 113.574C76.5572 113.685 73.8641 113.769 73.8641 113.769L70.2842 113.825L64.5082 113.317L60.8407 112.65C60.8407 112.65 58.2811 112.227 57.4447 112.01C56.7112 111.82 54.5698 111.051 54.5698 111.051C54.5698 111.051 52.1219 110.16 51.3402 109.784C50.5016 109.379 48.9252 108.384 48.1194 107.918C47.445 107.528 46.0613 106.801 45.4066 106.379C44.66 105.897 42.5361 104.279 42.5361 104.279C42.5361 104.279 40.6071 102.525 39.9634 101.941C39.1292 101.183 37.4585 99.6679 36.7141 98.8249C36.2017 98.2447 34.8617 96.3463 34.8617 96.3463L32.8233 93.2919L31.1154 90.231L30.5352 88.9019L30.1126 87.8181L29.285 84.6827L28.8471 82.191L28.4048 79.0096L28.5274 75.0049L28.9215 72.4584L29.5543 69.7062L30.4586 66.6846L31.5774 64.2061L32.4314 62.8617L32.6109 62.5661Z" fill="white"/>
<path d="M58.9182 41.6626C58.8328 41.632 58.5745 41.4415 58.5745 41.4415L58.3139 41.2313L57.9417 40.8897L55.866 38.4725L55.3405 37.6623L55.0909 37.1106L54.9464 36.6573L54.8369 36.1734L54.8741 35.6107L54.9858 35.1334L55.1172 34.7218L55.3843 34.3999L64.484 26.465L64.668 26.3511L64.9132 26.1935L65.3029 26.003L65.5131 25.911L65.7168 25.8125L66.7064 25.5323L67.8034 25.2717L70.3827 24.6543L72.0664 24.2864L73.8619 23.9624C73.8619 23.9624 74.8931 23.7303 75.2413 23.6777C75.4777 23.6427 75.9572 23.6077 76.1981 23.6427C76.3229 23.6602 76.5659 23.7522 76.671 23.8266C76.7718 23.8989 76.9272 24.0915 76.9907 24.1988C77.0345 24.2755 77.1002 24.4419 77.1111 24.5294C77.1221 24.6017 77.1068 24.8185 77.1068 24.8185C77.1068 24.8185 77.0805 25.0681 77.063 25.1535C77.0367 25.2761 76.9097 25.6374 76.9097 25.6374L76.7345 26.1103L76.509 26.6861L73.6079 32.2126L73.3823 32.5673L73.0495 33.0949L72.5065 33.7627L71.8475 34.3517L71.3767 34.8028L69.1324 36.469L63.9432 40.1431L63.236 40.5613L62.6361 40.9204C62.6361 40.9204 62.2288 41.1525 62.1018 41.2138C61.9157 41.3035 61.3793 41.4984 61.3793 41.4984L60.9873 41.6101L60.4027 41.7064L59.9342 41.748L59.3934 41.7546C59.3912 41.7502 59.0386 41.7064 58.9182 41.6626Z" fill="url(#paint0_linear_23_955)"/>
<path d="M94.2079 80.2965C94.8412 77.7748 93.3342 75.2232 90.8419 74.5972C88.3496 73.9713 85.8157 75.508 85.1824 78.0296C84.5491 80.5513 86.0561 83.1029 88.5484 83.7289C91.0407 84.3548 93.5745 82.8181 94.2079 80.2965Z" fill="black"/>
<path d="M108.27 107.327C108.275 107.327 108.279 107.312 108.279 107.294C108.279 107.276 108.275 107.261 108.27 107.261C108.266 107.261 108.262 107.276 108.262 107.294C108.262 107.312 108.266 107.327 108.27 107.327Z" fill="url(#paint1_linear_23_955)"/>
<path d="M75.4712 17.606C75.4712 17.606 78.0001 16.4346 78.5891 15.7318C79.2109 14.9917 80.0211 12.0862 80.0211 12.0862C80.0211 12.0862 81.0764 14.8122 81.8143 15.5084C82.5828 16.2332 84.9957 16.8747 84.9957 16.8747C84.9957 16.8747 82.458 17.9629 81.8647 18.5694C81.1246 19.3248 80.7896 22.8522 80.7896 22.8522C80.7896 22.8522 79.5394 19.3752 78.8365 18.7949" fill="url(#paint2_linear_23_955)"/>
<path d="M75.4712 17.606C75.4712 17.606 78.0001 16.4346 78.5891 15.7318C79.2109 14.9917 80.0211 12.0862 80.0211 12.0862C80.0211 12.0862 81.0764 14.8122 81.8143 15.5084C82.5828 16.2332 84.9957 16.8747 84.9957 16.8747C84.9957 16.8747 82.458 17.9629 81.8647 18.5694C81.1246 19.3248 80.7896 22.8522 80.7896 22.8522C80.7896 22.8522 79.5394 19.3752 78.8365 18.7949" fill="#8077B5"/>
<path d="M83.7915 21.5406C83.7915 21.5406 84.3958 21.2078 84.5359 21.0064C84.6848 20.7962 84.8775 19.9685 84.8775 19.9685C84.8775 19.9685 85.1293 20.7458 85.3067 20.9429C85.4906 21.1487 86.2 21.3939 86.2 21.3939C86.2 21.3939 85.4862 21.5953 85.3461 21.7683C85.1687 21.9829 85.0636 23.0339 85.0636 23.0339C85.0636 23.0339 84.7658 22.0442 84.5973 21.8778" fill="#B072A1"/>
<path d="M71.0376 14.7202C71.0376 14.7202 71.4908 14.4399 71.5959 14.2713C71.7076 14.094 71.8521 13.3999 71.8521 13.3999C71.8521 13.3999 72.0404 14.0524 72.174 14.2188C72.3119 14.3918 72.844 14.5976 72.844 14.5976C72.844 14.5976 72.3097 14.7662 72.2024 14.9107C72.0689 15.0902 71.9901 15.9726 71.9901 15.9726C71.9901 15.9726 71.7667 15.1428 71.6397 15.0026" fill="#B072A1"/>
<path d="M79.0293 29.2806C79.0293 29.2806 79.6752 28.9062 79.8263 28.6807C79.9839 28.4442 80.1919 27.5137 80.1919 27.5137C80.1919 27.5137 80.4613 28.3873 80.6496 28.6106C80.8466 28.8427 81.6042 29.1186 81.6042 29.1186C81.6042 29.1186 80.8422 29.3441 80.6912 29.539C80.5029 29.782 80.389 30.9644 80.389 30.9644C80.389 30.9644 80.0693 29.8499 79.8898 29.6638" fill="#B072A1"/>
<path d="M28.8055 57.3813C28.8799 57.4119 29.0748 57.5411 29.0748 57.5411L29.3857 57.7776L29.655 58.0557L30.128 58.8877L30.3228 59.3606L30.5024 59.8664C30.5024 59.8664 30.5943 60.2342 30.625 60.3612C30.6556 60.486 30.7148 60.7488 30.7301 60.878C30.752 61.0444 30.7826 61.3816 30.787 61.548C30.7936 61.7275 30.7892 62.2683 30.7892 62.2683L30.6907 62.715C30.6907 62.715 30.5571 63.1288 30.5002 63.2602C30.463 63.3478 30.3688 63.5142 30.3272 63.5996C30.2812 63.6893 30.1893 63.8711 30.1477 63.963C30.1104 64.0441 30.0448 64.2126 29.9922 64.2849C29.9265 64.3725 29.7908 64.5411 29.7141 64.6221C29.6244 64.7162 29.331 64.9856 29.331 64.9856L22.6353 70.7375C22.6353 70.7375 22.2522 70.9477 22.1208 71.0134C21.9785 71.0834 21.6829 71.2104 21.534 71.263C21.4223 71.3024 21.1924 71.3571 21.0764 71.3834C20.9494 71.4119 20.6932 71.4557 20.564 71.471C20.4327 71.4863 20.1634 71.4994 20.0298 71.4929C19.8809 71.4841 19.5853 71.4272 19.4496 71.3681C19.3379 71.3199 19.0533 71.09 19.0533 71.09L18.6044 70.7375L18.1774 70.2777C18.1774 70.2777 17.0783 68.9311 16.8528 68.4056C16.7696 68.2151 16.7192 67.8385 16.7039 67.6043C16.6907 67.4094 16.6732 67.0481 16.6929 66.8773C16.7148 66.6825 16.8024 66.2949 16.8637 66.1066C16.9163 65.9511 17.0695 65.6556 17.1527 65.5176C17.3673 65.1629 18.149 64.2105 18.149 64.2105L18.8387 63.4726L19.7189 62.7238L21.2034 61.5283L22.2456 60.7378L23.1608 60.0635C23.1608 60.0635 23.9075 59.5949 24.1505 59.4307C24.4089 59.2577 25.173 58.7081 25.173 58.7081L26.0532 58.1432L26.905 57.609L27.4896 57.3594L28.037 57.2915L28.4749 57.3068C28.4727 57.3003 28.7288 57.3506 28.8055 57.3813Z" fill="url(#paint3_linear_23_955)"/>
<path d="M28.8055 57.3813C28.8799 57.4119 29.0748 57.5411 29.0748 57.5411L29.3857 57.7776L29.655 58.0557L30.128 58.8877L30.3228 59.3606L30.5024 59.8664C30.5024 59.8664 30.5943 60.2342 30.625 60.3612C30.6556 60.486 30.7148 60.7488 30.7301 60.878C30.752 61.0444 30.7826 61.3816 30.787 61.548C30.7936 61.7275 30.7892 62.2683 30.7892 62.2683L30.6907 62.715C30.6907 62.715 30.5571 63.1288 30.5002 63.2602C30.463 63.3478 30.3688 63.5142 30.3272 63.5996C30.2812 63.6893 30.1893 63.8711 30.1477 63.963C30.1104 64.0441 30.0448 64.2126 29.9922 64.2849C29.9265 64.3725 29.7908 64.5411 29.7141 64.6221C29.6244 64.7162 29.331 64.9856 29.331 64.9856L22.6353 70.7375C22.6353 70.7375 22.2522 70.9477 22.1208 71.0134C21.9785 71.0834 21.6829 71.2104 21.534 71.263C21.4223 71.3024 21.1924 71.3571 21.0764 71.3834C20.9494 71.4119 20.6932 71.4557 20.564 71.471C20.4327 71.4863 20.1634 71.4994 20.0298 71.4929C19.8809 71.4841 19.5853 71.4272 19.4496 71.3681C19.3379 71.3199 19.0533 71.09 19.0533 71.09L18.6044 70.7375L18.1774 70.2777C18.1774 70.2777 17.0783 68.9311 16.8528 68.4056C16.7696 68.2151 16.7192 67.8385 16.7039 67.6043C16.6907 67.4094 16.6732 67.0481 16.6929 66.8773C16.7148 66.6825 16.8024 66.2949 16.8637 66.1066C16.9163 65.9511 17.0695 65.6556 17.1527 65.5176C17.3673 65.1629 18.149 64.2105 18.149 64.2105L18.8387 63.4726L19.7189 62.7238L21.2034 61.5283L22.2456 60.7378L23.1608 60.0635C23.1608 60.0635 23.9075 59.5949 24.1505 59.4307C24.4089 59.2577 25.173 58.7081 25.173 58.7081L26.0532 58.1432L26.905 57.609L27.4896 57.3594L28.037 57.2915L28.4749 57.3068C28.4727 57.3003 28.7288 57.3506 28.8055 57.3813Z" fill="url(#paint4_linear_23_955)"/>
<path d="M69.5005 87.2751C69.4545 87.008 68.9049 86.7212 68.7013 86.5416C68.5064 86.3686 68.1955 85.9482 68.051 85.7315C67.9109 85.5191 67.5211 84.8622 67.5211 84.8622C67.5211 84.8622 67.3482 84.1769 67.4007 83.9558C67.4598 83.6996 67.7751 83.2398 67.9853 83.0843C68.1495 82.9639 68.5327 82.7887 68.7363 82.7625C69.1502 82.7099 69.991 82.8238 70.4026 82.8916C70.7595 82.9508 71.4733 83.0756 71.8236 83.1632C72.1082 83.2354 72.671 83.4106 72.949 83.5091C73.1614 83.5857 73.5884 83.7565 73.7613 83.901C73.8774 83.9974 74.0701 84.247 74.1204 84.3915C74.1752 84.5448 74.2102 84.8754 74.2036 85.0396C74.1993 85.1951 74.173 85.5103 74.1226 85.657C74.0657 85.8278 73.9037 86.1519 73.7898 86.2898C73.6409 86.4672 73.2731 86.7562 73.0913 86.9029C72.9556 87.0124 72.6972 87.251 72.5483 87.343C72.406 87.4306 72.0907 87.5422 71.9396 87.6123C71.8039 87.6758 71.5455 87.8291 71.4185 87.9123C71.355 87.9539 71.2346 88.0458 71.1886 88.1028C71.147 88.1553 71.0989 88.2845 71.0967 88.3502C71.0923 88.5253 71.2412 88.856 71.3134 89.0158C71.3879 89.1822 71.5236 89.5238 71.6178 89.6814C71.7141 89.8413 72.0732 90.277 72.0732 90.277L72.8461 91.028L73.1855 91.2885L73.584 91.5798L74.0526 91.9016C74.0526 91.9016 74.4248 92.0768 74.5562 92.1184C74.7204 92.1709 75.2305 92.2629 75.2305 92.2629L75.8436 92.2979L76.4479 92.2695C76.4479 92.2695 76.9033 92.2454 77.0522 92.2103C77.1748 92.1819 77.5252 92.0396 77.5252 92.0396L77.9018 91.9169L78.2521 91.7856L78.563 91.5907C78.563 91.5907 78.6396 91.5075 78.8148 91.3674C78.99 91.2272 79.1192 91.0827 79.2024 90.9711C79.2549 90.9032 79.3491 90.7609 79.395 90.6886C79.4804 90.5572 79.6446 90.2879 79.73 90.1566C79.787 90.0712 79.9096 89.9048 79.9621 89.8172C80.0037 89.7471 80.0672 89.5982 80.1066 89.5282C80.1526 89.4471 80.2599 89.2917 80.2927 89.2041C80.3212 89.134 80.3606 88.9085 80.3606 88.9085L80.4219 88.602L80.4898 88.2779C80.4898 88.2779 80.5796 88.0524 80.6387 87.9911C80.6912 87.9364 80.8379 87.886 80.8379 87.886C80.8379 87.886 80.9212 87.8444 81.1313 87.8356C81.3415 87.8269 81.5298 87.9079 81.6218 87.9977C81.6787 88.0524 81.7685 88.186 81.7926 88.2626C81.8254 88.3699 81.8408 88.5932 81.8451 88.7049C81.8473 88.8363 81.8408 89.2282 81.8408 89.2282L81.8495 89.5435L81.7138 90.2157C81.7138 90.2157 81.6328 90.6098 81.5824 90.728C81.4554 91.0324 81.0416 91.5272 80.8489 91.7834C80.7898 91.8622 80.6847 92.0308 80.6212 92.1074C80.5533 92.1863 80.3979 92.3264 80.3168 92.3921C80.249 92.449 80.041 92.611 80.041 92.611L79.6315 92.8869L79.2505 93.0971L78.9746 93.2022L78.5564 93.3533L78.0616 93.5438L77.7091 93.6095L77.3478 93.6664C77.3478 93.6664 76.9559 93.7233 76.8267 93.7343C76.6822 93.7474 76.2509 93.7671 76.2509 93.7671C76.2509 93.7671 75.6794 93.7802 75.513 93.7649C75.3094 93.7474 74.7773 93.6423 74.7773 93.6423L74.3481 93.5372L73.8402 93.4036L73.2731 93.2153L72.6578 92.9198L72.0863 92.5059L71.5083 92.079L71.0025 91.6673L70.615 91.2666L70.2077 90.7696L69.9559 90.485L69.4458 90.947L69.0407 91.2491L68.6772 91.5053L68.3313 91.779L67.9328 91.998C67.9328 91.998 67.6044 92.2235 67.4752 92.2782C67.3504 92.3308 66.9168 92.4271 66.9168 92.4271C66.9168 92.4271 66.5731 92.5015 66.4592 92.5125C66.2906 92.53 65.7892 92.5497 65.7892 92.5497L65.2396 92.5169L64.7536 92.4096L63.5427 92.1775L63.0195 92.0067C63.0195 92.0067 62.4611 91.698 62.2903 91.5776C62.1064 91.4484 61.6181 91.0061 61.6181 91.0061L60.8978 90.347L60.6241 90.0974L60.2541 89.5807L60.057 89.2873L59.8402 88.9851L59.5359 88.4553C59.5359 88.4553 59.341 88.0568 59.2819 87.921C59.225 87.7875 59.1264 87.516 59.0936 87.3736C59.0564 87.2094 59.0235 86.8744 59.0126 86.708C59.0038 86.5591 58.9929 86.2614 58.9907 86.1125C58.9863 85.9855 58.9819 85.6089 58.9819 85.6089L59.0038 84.9564C59.0038 84.9564 59.0235 84.709 59.052 84.6323C59.0958 84.5097 59.1921 84.2535 59.3191 84.1813C59.3761 84.1484 59.503 84.1068 59.5687 84.1025C59.7395 84.0915 60.0986 84.0324 60.2519 84.1725C60.3373 84.2514 60.5277 84.3696 60.5475 84.5272C60.5562 84.6039 60.554 84.836 60.554 84.836L60.5869 85.3374C60.5869 85.3374 60.6022 85.4775 60.611 85.657C60.6175 85.7731 60.6788 86.1738 60.6788 86.1738L60.7423 86.535L60.8584 87.0518L60.9722 87.4371L61.1561 87.9955L61.3488 88.3502L61.7101 88.8275L62.2728 89.4165L62.991 89.9157L63.3873 90.0996L64.1602 90.4237L64.8543 90.5594L65.3732 90.5945L65.9228 90.531L66.5096 90.3711L66.9738 90.1763L67.4949 89.7953L68.005 89.3136L68.3773 88.9392L68.7714 88.4378L69.1983 87.851C69.2005 87.8444 69.5268 87.4328 69.5005 87.2751Z" fill="black"/>
<path d="M61.1364 75.1189C61.1233 75.2108 60.9766 75.3554 60.9 75.4079C60.8233 75.4605 60.6372 75.5283 60.5431 75.5283C60.4314 75.5283 60.2103 75.4736 60.1095 75.4276C59.9563 75.3597 59.5337 75.0882 59.5337 75.0882L58.8965 74.6635C58.8965 74.6635 58.174 74.1205 57.8894 73.9738C57.6266 73.838 57.1361 73.6081 56.8712 73.4767C56.6128 73.3497 55.9472 73.1155 55.6735 73.0235C55.4436 72.9447 54.7233 72.8308 54.7233 72.8308L53.9044 72.6732L52.4987 72.4717L51.6492 72.3666L50.9047 72.2966L50.296 72.1411C50.296 72.1411 49.9238 72.0426 49.7968 71.9988C49.6282 71.9419 49.3348 71.7952 49.1794 71.7076C49.0677 71.6441 48.7283 71.4339 48.7283 71.4339C48.7283 71.4339 48.4656 71.1755 48.4064 71.0682C48.3692 71.0025 48.3429 70.8493 48.3364 70.7748C48.3276 70.6829 48.3605 70.4836 48.4086 70.4048C48.5072 70.2428 48.8268 70.0545 48.9932 69.991C49.129 69.9384 49.418 69.829 49.5603 69.7939C49.7311 69.7523 50.0683 69.7107 50.2435 69.6844C50.4537 69.6538 50.8806 69.6188 51.093 69.6363C51.3076 69.6538 51.936 69.7939 51.936 69.7939L53.4621 70.2077L54.5196 70.6172L55.7414 71.1974L57.2675 72.0973L58.347 72.7498L59.4264 73.503L60.265 74.1752L60.8562 74.6788C60.8562 74.6788 61.0204 74.8145 61.062 74.8715C61.1014 74.924 61.1474 75.0554 61.1364 75.1189Z" fill="black"/>
<defs>
<linearGradient id="paint0_linear_23_955" x1="59.5968" y1="36.8677" x2="73.3687" y2="26.5598" gradientUnits="userSpaceOnUse">
<stop stop-color="#7B79B6"/>
<stop offset="1" stop-color="#B071A1"/>
</linearGradient>
<linearGradient id="paint1_linear_23_955" x1="108.262" y1="107.295" x2="108.278" y2="107.295" gradientUnits="userSpaceOnUse">
<stop/>
<stop offset="1" stop-color="white"/>
</linearGradient>
<linearGradient id="paint2_linear_23_955" x1="75.4708" y1="17.469" x2="84.9954" y2="17.469" gradientUnits="userSpaceOnUse">
<stop/>
<stop offset="1" stop-color="white"/>
</linearGradient>
<linearGradient id="paint3_linear_23_955" x1="18.0684" y1="69.2403" x2="29.7817" y2="59.7581" gradientUnits="userSpaceOnUse">
<stop/>
<stop offset="1" stop-color="white"/>
</linearGradient>
<linearGradient id="paint4_linear_23_955" x1="18.144" y1="69.1255" x2="29.2996" y2="60.263" gradientUnits="userSpaceOnUse">
<stop stop-color="#418CBD"/>
<stop offset="1" stop-color="#7684BD"/>
</linearGradient>
</defs>
</svg>
